<svg width="24" height="24" viewBox="0 0 24 24" fill="none" xmlns="http://www.w3.org/2000/svg">
<path d="M21.9298 6.75H19.1498C18.5506 6.75 18.2509 6.75 17.9684 6.66418C17.686 6.57837 17.4367 6.41165 16.938 6.0782C16.1902 5.57803 15.3371 5.00745 14.9132 4.87872C14.4895 4.75 14.04 4.75 13.1412 4.75C11.9189 4.75 11.131 4.75 10.5815 4.97836C10.032 5.20672 9.5998 5.64027 8.73548 6.50736L7.97483 7.27044C7.78005 7.46585 7.68265 7.56356 7.62252 7.66002C7.39963 8.01761 7.42434 8.47705 7.68426 8.80851C7.75439 8.89793 7.86169 8.98456 8.0763 9.15782C8.86954 9.79824 10.0131 9.73432 10.7314 9.00942L11.9617 7.76786H12.9585L18.9393 13.8036C19.4899 14.3592 19.4899 15.2599 18.9393 15.8155C18.3888 16.3711 17.4963 16.3711 16.9457 15.8155L16.4473 15.3125M16.4473 15.3125L13.4569 12.2947M16.4473 15.3125C16.9979 15.8681 16.9979 16.7689 16.4473 17.3244C15.8968 17.88 15.0042 17.88 14.4537 17.3244L13.4569 16.3185M13.4569 16.3185C14.0074 16.874 14.0074 17.7748 13.4569 18.3304C12.9064 18.8859 12.0138 18.8859 11.4633 18.3304L9.96806 16.8214M13.4569 16.3185L11.4633 14.3185M9.96806 16.8214L9.46966 16.3185M9.96806 16.8214C10.5186 17.377 10.5186 18.2778 9.96806 18.8334C9.41754 19.3889 8.52497 19.3889 7.97444 18.8334L5.15983 15.9509C4.58146 15.3586 4.29227 15.0625 3.92177 14.9062C3.55126 14.75 3.13801 14.75 2.31151 14.75H1.99359" stroke="#FAFAFA" stroke-width="1.5" stroke-linecap="round" stroke-linejoin="round"/>
<path d="M21.9298 14.75H19.4377" stroke="#FAFAFA" stroke-width="1.5" stroke-linecap="round"/>
<path d="M8.47285 6.75H1.99359" stroke="#FAFAFA" stroke-width="1.5" stroke-linecap="round"/>
</svg>
