<svg width="24" height="24" viewBox="0 0 24 24" fill="none" xmlns="http://www.w3.org/2000/svg">
<path d="M6.97766 17V13" stroke="#FAFAFA" stroke-width="1.5" stroke-linecap="round"/>
<path d="M11.9617 17V7" stroke="#FAFAFA" stroke-width="1.5" stroke-linecap="round"/>
<path d="M16.9457 17V11" stroke="#FAFAFA" stroke-width="1.5" stroke-linecap="round"/>
<path d="M2.492 12C2.492 7.52166 2.492 5.28249 3.8788 3.89124C5.26562 2.5 7.49764 2.5 11.9617 2.5C16.4257 2.5 18.6578 2.5 20.0446 3.89124C21.4314 5.28249 21.4314 7.52166 21.4314 12C21.4314 16.4783 21.4314 18.7175 20.0446 20.1088C18.6578 21.5 16.4257 21.5 11.9617 21.5C7.49764 21.5 5.26562 21.5 3.8788 20.1088C2.492 18.7175 2.492 16.4783 2.492 12Z" stroke="#FAFAFA" stroke-width="1.5" stroke-linejoin="round"/>
</svg>
