<svg width="19" height="35" viewBox="0 0 19 35" fill="none" xmlns="http://www.w3.org/2000/svg">
<g clip-path="url(#clip0_631_3218)">
<g clip-path="url(#clip1_631_3218)">
<path fill-rule="evenodd" clip-rule="evenodd" d="M18.4947 34.4515C18.3701 34.5757 18.2221 34.6743 18.0591 34.7415C17.8961 34.8088 17.7214 34.8434 17.5449 34.8434C17.3685 34.8434 17.1937 34.8088 17.0308 34.7415C16.8678 34.6743 16.7197 34.5757 16.5951 34.4515L0.496653 18.4455C0.37172 18.3216 0.272602 18.1744 0.204972 18.0123C0.13734 17.8503 0.102528 17.6765 0.102528 17.5011C0.102528 17.3257 0.13734 17.1519 0.204972 16.9899C0.272602 16.8278 0.371721 16.6806 0.496654 16.5567L16.5951 0.550671C16.847 0.300212 17.1887 0.159506 17.5449 0.159506C17.9012 0.159506 18.2428 0.300213 18.4947 0.550671C18.7466 0.801133 18.8882 1.14083 18.8882 1.49503C18.8882 1.84923 18.7466 2.18893 18.4947 2.43939L3.3434 17.5011L18.4947 32.5628C18.6197 32.6867 18.7188 32.8339 18.7864 32.996C18.854 33.158 18.8889 33.3317 18.8889 33.5072C18.8889 33.6826 18.854 33.8563 18.7864 34.0184C18.7188 34.1804 18.6197 34.3276 18.4947 34.4515Z" fill="white"/>
</g>
</g>
<defs>
<clipPath id="clip0_631_3218">
<rect width="18.375" height="34.0478" fill="white" transform="scale(1.02797)"/>
</clipPath>
<clipPath id="clip1_631_3218">
<rect width="18.375" height="34.0478" fill="white" transform="translate(18.8889 35) scale(1.02797) rotate(-180)"/>
</clipPath>
</defs>
</svg>
