<svg width="16" height="34" viewBox="0 0 16 34" fill="none" xmlns="http://www.w3.org/2000/svg">
<g clip-path="url(#clip0_631_3247)">
<g clip-path="url(#clip1_631_3247)">
<path fill-rule="evenodd" clip-rule="evenodd" d="M-2.65368 0.54047C-2.53133 0.418512 -2.38598 0.321752 -2.22596 0.255732C-2.06594 0.189712 -1.89439 0.155728 -1.72114 0.155728C-1.54789 0.155728 -1.37634 0.189712 -1.21632 0.255732C-1.0563 0.321752 -0.91095 0.418512 -0.788598 0.54047L15.0172 16.2555C15.1399 16.3772 15.2372 16.5217 15.3036 16.6808C15.37 16.8399 15.4041 17.0105 15.4041 17.1827C15.4041 17.355 15.37 17.5256 15.3036 17.6847C15.2372 17.8438 15.1399 17.9883 15.0172 18.1099L-0.788598 33.825C-1.03592 34.0709 -1.37137 34.2091 -1.72114 34.2091C-2.07091 34.2091 -2.40636 34.0709 -2.65368 33.825C-2.90101 33.5791 -3.03995 33.2456 -3.03995 32.8978C-3.03995 32.5501 -2.90101 32.2165 -2.65368 31.9706L12.2222 17.1827L-2.65368 2.39485C-2.77634 2.2732 -2.87366 2.12868 -2.94006 1.96958C-3.00646 1.81048 -3.04064 1.63992 -3.04064 1.46766C-3.04064 1.2954 -3.00646 1.12484 -2.94006 0.965736C-2.87366 0.806634 -2.77634 0.662119 -2.65368 0.54047Z" fill="#0A0A0B"/>
</g>
</g>
<defs>
<clipPath id="clip0_631_3247">
<rect width="15.3125" height="33.6875" fill="white" transform="scale(1.00928)"/>
</clipPath>
<clipPath id="clip1_631_3247">
<rect width="18.375" height="34.0478" fill="white" transform="translate(-3.09091) scale(1.00928)"/>
</clipPath>
</defs>
</svg>
