<svg width="19" height="35" viewBox="0 0 19 35" fill="none" xmlns="http://www.w3.org/2000/svg">
<g clip-path="url(#clip0_631_3215)">
<g clip-path="url(#clip1_631_3215)">
<path fill-rule="evenodd" clip-rule="evenodd" d="M0.445324 0.549474C0.569941 0.425258 0.717982 0.326706 0.880965 0.259463C1.04395 0.192221 1.21867 0.157608 1.39513 0.157608C1.57159 0.157608 1.74632 0.192221 1.9093 0.259463C2.07229 0.326706 2.22033 0.425258 2.34494 0.549474L18.4434 16.5555C18.5683 16.6794 18.6675 16.8266 18.7351 16.9887C18.8027 17.1507 18.8375 17.3245 18.8375 17.4999C18.8375 17.6753 18.8027 17.8491 18.7351 18.0111C18.6675 18.1732 18.5683 18.3204 18.4434 18.4443L2.34494 34.4503C2.09304 34.7008 1.75138 34.8415 1.39513 34.8415C1.03889 34.8415 0.697229 34.7008 0.445324 34.4503C0.193419 34.1999 0.0518999 33.8602 0.0518999 33.506C0.0518999 33.1518 0.193419 32.8121 0.445324 32.5616L15.5967 17.4999L0.445324 2.43819C0.320391 2.31429 0.22127 2.1671 0.15364 2.00505C0.0860087 1.843 0.0511975 1.66928 0.0511975 1.49383C0.0511975 1.31839 0.0860087 1.14466 0.15364 0.982615C0.22127 0.820566 0.320391 0.673376 0.445324 0.549474Z" fill="white"/>
</g>
</g>
<defs>
<clipPath id="clip0_631_3215">
<rect width="18.375" height="34.0478" fill="white" transform="scale(1.02797)"/>
</clipPath>
<clipPath id="clip1_631_3215">
<rect width="18.375" height="34.0478" fill="white" transform="scale(1.02797)"/>
</clipPath>
</defs>
</svg>
