<svg width="24" height="24" viewBox="0 0 24 24" fill="none" xmlns="http://www.w3.org/2000/svg">
<path d="M14.4985 17.5V7.5H7.49933C5.14258 7.5 3.9642 7.5 3.23205 8.23222C2.49989 8.96445 2.49988 10.1429 2.49986 12.5L2.49982 16.5C2.4998 18.857 2.49979 20.0355 3.23194 20.7678C3.9641 21.5 5.1425 21.5 7.49929 21.5H10.4989C12.3843 21.5 13.327 21.5 13.9128 20.9142C14.4985 20.3284 14.4985 19.3856 14.4985 17.5Z" stroke="#FAFAFA" stroke-width="1.5" stroke-linecap="round" stroke-linejoin="round"/>
<path d="M14.4984 16.5H16.4982C18.8549 16.5 20.0334 16.5 20.7655 15.7678C21.4977 15.0355 21.4977 13.857 21.4977 11.5V7.5C21.4977 5.14298 21.4977 3.96447 20.7655 3.23223C20.0334 2.5 18.8549 2.5 16.4982 2.5H9.49908L9.49922 7.5" stroke="#FAFAFA" stroke-width="1.5" stroke-linecap="round" stroke-linejoin="round"/>
<path d="M5.49951 12.5H8.99914M5.49951 16.5H11.4989" stroke="#FAFAFA" stroke-width="1.5" stroke-linecap="round" stroke-linejoin="round"/>
<path d="M9.49908 2.5L14.4986 7.5" stroke="#FAFAFA" stroke-width="1.5" stroke-linecap="round" stroke-linejoin="round"/>
</svg>
