<svg width="76" height="16" viewBox="0 0 76 16" fill="none" xmlns="http://www.w3.org/2000/svg">
<path d="M12.6715 7.73053C13.4852 7.11501 13.0499 5.81794 12.0296 5.81794H10.1834C9.71684 5.81794 9.3047 5.51396 9.16689 5.06821L8.61654 3.28805C8.30749 2.28841 6.89253 2.28841 6.58348 3.28805L6.03313 5.06821C5.89532 5.51396 5.48317 5.81794 5.0166 5.81794H3.13851C2.12148 5.81794 1.6841 7.10809 2.49145 7.72658L4.09997 8.95883C4.45273 9.22907 4.60039 9.69007 4.47029 10.115L3.88585 12.0238C3.58276 13.0137 4.72847 13.8095 5.55029 13.1799L6.95295 12.1054C7.33474 11.8129 7.86527 11.8129 8.24707 12.1054L9.63733 13.1704C10.4603 13.8009 11.6071 13.002 11.3009 12.0115L10.7084 10.0949C10.5761 9.66702 10.7259 9.20216 11.083 8.932L12.6715 7.73053Z" fill="#FFAD33"/>
<path d="M27.8714 7.73053C28.6851 7.11501 28.2498 5.81794 27.2295 5.81794H25.3833C24.9167 5.81794 24.5046 5.51396 24.3668 5.06821L23.8164 3.28805C23.5074 2.28841 22.0924 2.28841 21.7834 3.28805L21.233 5.06821C21.0952 5.51396 20.6831 5.81794 20.2165 5.81794H18.3384C17.3214 5.81794 16.884 7.10809 17.6913 7.72658L19.2999 8.95883C19.6526 9.22907 19.8003 9.69007 19.6702 10.115L19.0858 12.0238C18.7827 13.0137 19.9284 13.8095 20.7502 13.1799L22.1529 12.1054C22.5346 11.8129 23.0652 11.8129 23.447 12.1054L24.8372 13.1704C25.6602 13.8009 26.807 13.002 26.5008 12.0115L25.9083 10.0949C25.776 9.66702 25.9258 9.20216 26.2829 8.932L27.8714 7.73053Z" fill="#FFAD33"/>
<path d="M43.0713 7.73053C43.885 7.11501 43.4497 5.81794 42.4294 5.81794H40.5832C40.1166 5.81794 39.7045 5.51396 39.5667 5.06821L39.0163 3.28805C38.7073 2.28841 37.2923 2.28841 36.9833 3.28805L36.4329 5.06821C36.2951 5.51396 35.883 5.81794 35.4164 5.81794H33.5383C32.5213 5.81794 32.0839 7.10809 32.8913 7.72658L34.4998 8.95883C34.8525 9.22907 35.0002 9.69007 34.8701 10.115L34.2857 12.0238C33.9826 13.0137 35.1283 13.8095 35.9501 13.1799L37.3528 12.1054C37.7345 11.8129 38.2651 11.8129 38.6469 12.1054L40.0371 13.1704C40.8601 13.8009 42.0069 13.002 41.7007 12.0115L41.1082 10.0949C40.9759 9.66702 41.1257 9.20216 41.4828 8.932L43.0713 7.73053Z" fill="#FFAD33"/>
<path opacity="0.25" d="M58.2712 7.73053C59.0849 7.11501 58.6496 5.81794 57.6293 5.81794H55.7831C55.3165 5.81794 54.9044 5.51396 54.7666 5.06821L54.2162 3.28805C53.9072 2.28841 52.4922 2.28841 52.1832 3.28805L51.6328 5.06821C51.495 5.51396 51.0829 5.81794 50.6163 5.81794H48.7382C47.7212 5.81794 47.2838 7.10809 48.0912 7.72658L49.6997 8.95883C50.0524 9.22907 50.2001 9.69007 50.07 10.115L49.4856 12.0238C49.1825 13.0137 50.3282 13.8095 51.15 13.1799L52.5527 12.1054C52.9344 11.8129 53.465 11.8129 53.8468 12.1054L55.237 13.1704C56.06 13.8009 57.2068 13.002 56.9006 12.0115L56.3081 10.0949C56.1758 9.66702 56.3256 9.20216 56.6827 8.932L58.2712 7.73053Z" fill="black"/>
<path opacity="0.25" d="M73.4716 7.73053C74.2853 7.11501 73.85 5.81794 72.8297 5.81794H70.9835C70.5169 5.81794 70.1048 5.51396 69.967 5.06821L69.4166 3.28805C69.1076 2.28841 67.6926 2.28841 67.3836 3.28805L66.8332 5.06821C66.6954 5.51396 66.2833 5.81794 65.8167 5.81794H63.9386C62.9216 5.81794 62.4842 7.10809 63.2915 7.72658L64.9001 8.95883C65.2528 9.22907 65.4005 9.69007 65.2704 10.115L64.686 12.0238C64.3829 13.0137 65.5286 13.8095 66.3504 13.1799L67.753 12.1054C68.1348 11.8129 68.6654 11.8129 69.0472 12.1054L70.4374 13.1704C71.2604 13.8009 72.4072 13.002 72.101 12.0115L71.5085 10.0949C71.3762 9.66702 71.526 9.20216 71.8831 8.932L73.4716 7.73053Z" fill="black"/>
</svg>
