<svg width="24" height="24" viewBox="0 0 24 24" fill="none" xmlns="http://www.w3.org/2000/svg">
<path d="M11.999 18V15" stroke="#FAFAFA" stroke-width="1.5" stroke-linecap="round"/>
<path d="M2.35135 13.2135C1.99837 10.9162 1.82188 9.76763 2.25614 8.74938C2.6904 7.73112 3.65386 7.03443 5.58076 5.64106L7.02046 4.6C9.41751 2.86667 10.616 2 11.999 2C13.3818 2 14.5804 2.86667 16.9775 4.6L18.4171 5.64106C20.3441 7.03443 21.3075 7.73112 21.7418 8.74938C22.176 9.76763 21.9995 10.9162 21.6466 13.2135L21.3456 15.1724C20.8451 18.4289 20.595 20.0572 19.4272 21.0286C18.2594 22 16.5521 22 13.1377 22H10.8603C7.44577 22 5.73852 22 4.57073 21.0286C3.40294 20.0572 3.15275 18.4289 2.65236 15.1724L2.35135 13.2135Z" stroke="#FAFAFA" stroke-width="1.5" stroke-linejoin="round"/>
</svg>
