<svg width="97" height="64" viewBox="0 0 97 64" fill="none" xmlns="http://www.w3.org/2000/svg">
<path d="M46.3575 35.8264C45.684 35.8264 45.1509 35.2916 45.1509 34.6441C45.1509 33.9685 45.684 33.4336 46.3575 33.4336C47.0309 33.4336 47.5641 33.9685 47.5641 34.6441C47.5641 35.2916 47.0309 35.8264 46.3575 35.8264ZM47.536 49.5361H48.462V49.705H44.2249V49.5361H45.1509V38.1067L44.2529 38.2474L44.2249 38.0785L45.1509 37.9378L47.536 37.5155V49.5361Z" fill="black"/>
<path d="M55.2126 49.5361V49.705C52.8836 49.705 50.33 48.9731 50.33 46.1579V37.6844H49.4882V37.5155H50.33V35.6857L49.4321 35.8264L49.404 35.6575L50.33 35.5168L52.7152 35.0945V37.5155H53.7254V37.6844H52.7152V46.4113C52.7152 49.0012 54.2024 49.5361 55.2126 49.5361Z" fill="black"/>
<path d="M62.4021 37.5155C63.3281 37.5155 64.4505 37.8533 65.4326 39.0357L64.2822 41.7945C63.9174 39.7395 63.5806 37.6844 62.2057 37.6844C60.6343 37.6844 59.7644 39.1483 59.4838 39.655V49.5361H60.4098V49.705H56.1726V49.5361H57.0986V38.1067L56.2007 38.2474L56.1726 38.0785L57.0986 37.9378L59.4838 37.5155V39.3453C59.8766 38.6697 60.6904 37.5155 62.4021 37.5155Z" fill="black"/>
<path d="M68.5266 35.8264C67.8531 35.8264 67.32 35.2916 67.32 34.6441C67.32 33.9685 67.8531 33.4336 68.5266 33.4336C69.2 33.4336 69.7332 33.9685 69.7332 34.6441C69.7332 35.2916 69.2 35.8264 68.5266 35.8264ZM69.7051 49.5361H70.6311V49.705H66.3939V49.5361H67.32V38.1067L66.422 38.2474L66.3939 38.0785L67.32 37.9378L69.7051 37.5155V49.5361Z" fill="black"/>
<path d="M83.8357 49.5361H84.7617V49.705H80.5245V49.5361H81.4505V42.9768C81.4505 40.2462 81.0577 37.5155 78.448 37.6844C76.5679 37.797 75.2491 39.2609 74.8843 39.7113V49.5361H75.8103V49.705H71.5731V49.5361H72.4991V38.1067L71.6012 38.2474L71.5731 38.0785L72.4991 37.9378L74.8843 37.5155V39.4298C75.3894 38.8105 76.6802 37.6281 78.448 37.5155C80.1597 37.4029 83.8357 38.5571 83.8357 42.8642V49.5361Z" fill="black"/>
<path d="M96.0741 49.5361H97.0001V49.705H93.6889V47.0306C93.5767 47.6218 92.9594 49.705 89.4798 49.705C85.411 49.705 85.4671 46.8336 85.4671 46.8336C85.4671 41.9634 92.9313 43.1739 93.6889 40.8937C93.6889 39.9365 93.5206 37.6844 91.1074 37.6844C88.4416 37.6844 88.0207 41.0344 88.0207 41.513C87.2911 41.0063 86.1406 40.1336 86.1406 40.1336C86.1406 40.1336 87.5436 37.5155 91.1074 37.5155C95.2604 37.5155 96.0741 40.2743 96.0741 41.5411V49.5361ZM93.6889 46.4957V41.1189C93.0155 42.8924 87.8523 42.2449 87.8523 46.4676C87.8523 47.6218 88.3855 49.1138 90.6023 49.1138C93.4364 49.1138 93.6889 46.4957 93.6889 46.4957Z" fill="black"/>
<path d="M25.754 9.18555C25.866 9.24974 25.978 9.31394 26.09 9.37814C26.145 9.40963 26.145 9.40963 26.2011 9.44175C26.4218 9.56812 26.6422 9.69495 26.8622 9.82235C27.5892 10.2424 28.3238 10.6465 29.0625 11.0454C29.2369 11.1399 29.4108 11.2354 29.5845 11.3311C30.1001 11.6155 30.616 11.8964 31.1441 12.1568C31.3776 12.2722 31.608 12.3919 31.8372 12.5156C32.3116 12.7717 32.7927 13.01 33.2797 13.241C33.615 13.4002 33.949 13.5615 34.2816 13.7263C38.8789 16.0004 43.7314 17.8906 48.6727 19.2596C48.7233 19.2737 48.774 19.2877 48.8261 19.3021C50.9451 19.8875 53.0781 20.4058 55.2568 20.7089C55.4398 20.7371 55.6215 20.7689 55.8036 20.8024C55.862 20.8131 55.9204 20.8238 55.9806 20.8348C56.0251 20.843 56.0696 20.8512 56.1154 20.8596C56.1168 21.7011 56.1178 22.5425 56.1185 23.384C56.1188 23.7751 56.1192 24.1661 56.1199 24.5572C56.1232 26.5058 56.1103 28.4524 56.0563 30.4004C56.0368 30.4004 56.0173 30.4004 55.9973 30.4004C55.9289 30.0525 55.9108 29.7026 55.8881 29.3495C55.8835 29.2797 55.8789 29.21 55.8741 29.1382C55.8615 28.9475 55.8491 28.7569 55.8368 28.5662C55.8264 28.4063 55.816 28.2464 55.8055 28.0866C55.7808 27.7086 55.7563 27.3306 55.7318 26.9527C55.7068 26.5649 55.6814 26.1771 55.6558 25.7894C55.6338 25.4549 55.612 25.1205 55.5904 24.786C55.5775 24.587 55.5645 24.3879 55.5513 24.1889C55.4465 22.5986 55.4465 22.5986 55.4656 21.867C55.4007 21.8642 55.3358 21.8614 55.2689 21.8585C54.6353 21.8286 54.0115 21.7697 53.3835 21.6818C53.3372 21.6755 53.291 21.6691 53.2434 21.6625C48.7073 21.0328 44.375 19.6543 40.1098 18.011C39.8527 17.912 39.5953 17.8141 39.3378 17.7164C36.6382 16.6922 33.9412 15.6431 31.3065 14.4596C31.2653 14.4412 31.2242 14.4227 31.1818 14.4037C30.2462 13.9836 29.3154 13.553 28.3863 13.1189C28.3497 13.1018 28.3131 13.0847 28.2753 13.0671C27.8451 12.866 27.4176 12.6606 26.9945 12.4448C26.7262 13.0122 26.47 13.5833 26.2254 14.1613C26.1289 14.3892 26.0318 14.6169 25.9349 14.8446C25.9049 14.9151 25.9049 14.9151 25.8743 14.9871C25.6883 15.4241 25.5003 15.8601 25.3119 16.296C24.9178 17.208 24.5271 18.1214 24.1373 19.0352C23.6825 20.1013 23.2264 21.1667 22.7633 22.2292C22.4054 23.0506 22.0505 23.8734 21.6967 24.6967C21.6557 24.7921 21.6557 24.7921 21.6139 24.8894C21.4745 25.2139 21.3351 25.5385 21.1957 25.863C20.9505 26.4338 20.7051 27.0045 20.4596 27.5753C20.3246 27.8893 20.1896 28.2033 20.0546 28.5173C20.0278 28.5795 20.001 28.6418 19.9734 28.7059C19.8092 29.0878 19.645 29.4698 19.4808 29.8517C18.9207 31.1545 18.3605 32.4571 17.7998 33.7596C17.4224 34.6361 17.0454 35.5126 16.6685 36.3893C16.6414 36.4522 16.6144 36.5151 16.5865 36.58C16.3935 37.0287 16.2006 37.4775 16.0076 37.9263C15.7874 38.4386 15.5671 38.951 15.3468 39.4633C15.3197 39.5263 15.2927 39.5893 15.2648 39.6541C14.8695 40.5733 14.4741 41.4924 14.0784 42.4115C13.7284 43.2244 13.3787 44.0375 13.029 44.8506C12.9474 45.0405 12.8657 45.2304 12.7841 45.4204C12.531 46.0089 12.278 46.5974 12.0252 47.1861C11.9099 47.4547 11.7945 47.7234 11.679 47.9921C11.625 48.118 11.5709 48.2439 11.5168 48.3699C11.1281 49.2759 10.7342 50.1795 10.337 51.0818C10.3781 51.0851 10.4191 51.0884 10.4614 51.0918C10.8086 51.1213 11.1491 51.1618 11.4916 51.2256C11.5615 51.2383 11.5615 51.2383 11.6328 51.2513C11.7867 51.2796 11.9405 51.3084 12.0943 51.3374C12.1753 51.3526 12.1753 51.3526 12.258 51.368C14.4508 51.7802 16.6291 52.2731 18.7929 52.8174C19.0508 52.8821 19.3087 52.9464 19.5666 53.0107C20.4946 53.2422 21.4222 53.4753 22.3496 53.709C22.6131 53.7754 22.8766 53.8418 23.1401 53.908C25.2969 54.4501 27.45 55.0004 29.5907 55.6037C29.8906 55.6882 30.1909 55.7714 30.4912 55.8542C32.8276 56.4997 35.1394 57.2227 37.4496 57.9559C37.5161 57.977 37.5826 57.9981 37.6511 58.0198C39.0952 58.4783 40.5272 58.969 41.9551 59.476C42.2819 59.5917 42.6102 59.7006 42.9414 59.8032C43.0612 59.8522 43.0612 59.8522 43.1202 59.9707C42.3844 59.792 41.655 59.5922 40.9252 59.3902C36.152 58.0719 31.3476 56.9277 17.8735 54.3743C17.7309 54.352 17.5883 54.3295 17.4457 54.307C15.519 54.0025 13.5906 53.7513 11.6513 53.5448C11.6044 53.5398 11.5574 53.5348 11.509 53.5296C10.0009 53.369 8.49247 53.223 6.97628 53.1662C6.81483 53.1528 6.65702 53.1249 6.49756 53.0967C7.30569 50.8568 8.28297 48.6952 9.2474 46.5199C9.28406 46.4372 9.28406 46.4372 9.32146 46.3528C9.37103 46.241 9.42061 46.1292 9.47019 46.0174C9.8205 45.2276 10.1684 44.4367 10.5142 43.6448C10.8884 42.7882 11.2651 41.9327 11.6439 41.0781C11.6688 41.0219 11.6938 40.9657 11.7194 40.9078C11.9309 40.431 12.1425 39.9542 12.3541 39.4775C12.4719 39.2123 12.5896 38.9471 12.7072 38.6818C12.7261 38.6391 12.7451 38.5963 12.7647 38.5522C13.0975 37.8014 13.4268 37.0491 13.7556 36.2965C14.1126 35.4794 14.4723 34.6636 14.8337 33.8485C14.8585 33.7924 14.8834 33.7362 14.9091 33.6784C15.1206 33.2015 15.3322 32.7246 15.5439 32.2478C15.6616 31.9827 15.7793 31.7174 15.8969 31.4522C15.9157 31.4097 15.9346 31.3673 15.954 31.3235C16.2965 30.5511 16.6351 29.777 16.9733 29.0026C17.2492 28.371 17.527 27.7403 17.8092 27.1115C18.1099 26.4416 18.4052 25.7695 18.699 25.0967C19.0817 24.2202 19.4669 23.345 19.8545 22.4707C19.8794 22.4146 19.9043 22.3585 19.9299 22.3007C20.1414 21.8238 20.353 21.3469 20.5647 20.8701C20.6824 20.6049 20.8001 20.3397 20.9177 20.0744C20.9367 20.0317 20.9557 19.9889 20.9752 19.9448C21.3081 19.194 21.6374 18.4417 21.9662 17.6891C22.3232 16.872 22.6828 16.0562 23.0442 15.2411C23.0691 15.185 23.094 15.1288 23.1197 15.0709C23.3311 14.5941 23.5428 14.1172 23.7544 13.6404C23.8531 13.4182 23.9517 13.196 24.0503 12.9737C24.0881 12.8884 24.126 12.803 24.1639 12.7177C24.3988 12.1882 24.6319 11.658 24.8634 11.127C24.8878 11.071 24.9122 11.0149 24.9374 10.9572C25.057 10.683 25.1765 10.4087 25.2956 10.1342C25.3387 10.0352 25.3818 9.93618 25.425 9.83717C25.4446 9.79172 25.4643 9.74627 25.4845 9.69945C25.5642 9.517 25.6436 9.35173 25.754 9.18555Z" fill="black"/>
<path d="M23.3322 12.207C23.4111 12.4444 23.3255 12.5672 23.2235 12.7809C23.2051 12.8208 23.1866 12.8608 23.1675 12.9019C23.1273 12.9888 23.0867 13.0757 23.046 13.1624C22.9352 13.398 22.8264 13.6346 22.7173 13.8709C22.6946 13.9198 22.672 13.9688 22.6486 14.0192C22.4204 14.5126 22.2001 15.0095 21.981 15.507C21.9025 15.6851 21.8238 15.8631 21.7452 16.0411C21.7254 16.0858 21.7057 16.1305 21.6853 16.1766C21.4488 16.7112 21.2091 17.2443 20.9694 17.7774C20.6326 18.5271 20.2975 19.2775 19.9653 20.0293C19.5192 21.0384 19.0677 22.0452 18.6156 23.0517C18.3267 23.695 18.0393 24.3389 17.7518 24.9828C17.6609 25.1863 17.57 25.3897 17.4791 25.5931C17.1162 26.405 16.7537 27.217 16.3916 28.0293C15.9385 29.0456 15.4846 30.0617 15.0305 31.0776C14.6371 31.9576 14.2442 32.8378 13.8517 33.7181C13.3985 34.7345 12.9447 35.7506 12.4905 36.7665C12.0972 37.6465 11.7042 38.5266 11.3117 39.407C10.8586 40.4234 10.4047 41.4394 9.95057 42.4553C9.53544 43.384 9.12082 44.3129 8.70661 45.242C8.40312 45.9227 8.09937 46.6033 7.7951 47.2837C7.61156 47.6942 7.42844 48.1049 7.24563 48.5158C7.17832 48.667 7.11101 48.8182 7.04369 48.9694C7.00041 49.0667 6.95716 49.164 6.91393 49.2612C6.64314 49.8707 6.36755 50.4775 6.0841 51.0811C6.04511 51.0811 6.00613 51.0811 5.96596 51.0811C5.53157 50.2153 5.0977 49.3494 4.6834 48.4737C4.52131 48.1312 4.35766 47.7895 4.19251 47.4485C4.16121 47.3838 4.16121 47.3838 4.12928 47.3179C4.04575 47.1454 3.96219 46.973 3.87849 46.8006C3.78274 46.6034 3.6873 46.4061 3.59268 46.2084C3.52193 46.0605 3.44953 45.9137 3.37584 45.7673C3.34283 45.6999 3.30981 45.6325 3.27579 45.563C3.24631 45.5042 3.21683 45.4453 3.18645 45.3846C3.10466 45.1352 3.14557 44.9586 3.25025 44.7221C3.27512 44.679 3.3 44.6359 3.32563 44.5915C3.3678 44.5178 3.3678 44.5178 3.41083 44.4425C3.45671 44.3644 3.45671 44.3644 3.50353 44.2848C3.53541 44.2297 3.5673 44.1747 3.60015 44.118C3.86175 43.6695 4.13622 43.2299 4.41517 42.7922C4.63729 42.443 4.85298 42.0898 5.06885 41.7367C5.37556 41.2353 5.68409 40.7351 5.99549 40.2367C6.30306 39.7443 6.60799 39.2504 6.91106 38.7552C7.25014 38.2012 7.59213 37.6491 7.93623 37.0982C8.20705 36.6642 8.47513 36.2286 8.7422 35.7922C9.08127 35.2382 9.42327 34.6861 9.76736 34.1353C10.0382 33.7013 10.3063 33.2656 10.5733 32.8293C10.9124 32.2752 11.2544 31.7232 11.5985 31.1723C11.8693 30.7383 12.1374 30.3026 12.4045 29.8663C12.7435 29.3123 13.0855 28.7602 13.4296 28.2093C13.7004 27.7753 13.9685 27.3397 14.2356 26.9033C14.5747 26.3493 14.9167 25.7973 15.2608 25.2464C15.5316 24.8124 15.7997 24.3767 16.0667 23.9404C16.4058 23.3864 16.7478 22.8343 17.0919 22.2834C17.3627 21.8494 17.6308 21.4138 17.8979 20.9774C18.2369 20.4234 18.5789 19.8713 18.923 19.3205C19.1939 18.8864 19.4619 18.4508 19.729 18.0144C20.0681 17.4604 20.4101 16.9084 20.7542 16.3575C21.025 15.9235 21.2931 15.4878 21.5601 15.0515C21.8745 14.5379 22.1905 14.0255 22.5089 13.5144C22.5441 13.458 22.5792 13.4016 22.6154 13.3435C22.8525 12.9635 23.0918 12.5849 23.3322 12.207Z" fill="black"/>
<path d="M27.834 26.229C27.91 26.2282 27.91 26.2282 27.9876 26.2275C28.0707 26.228 28.0707 26.228 28.1555 26.2286C28.214 26.2282 28.2725 26.2279 28.3328 26.2276C28.5266 26.2268 28.7204 26.2274 28.9142 26.228C29.0486 26.2278 29.183 26.2277 29.3174 26.2274C29.5993 26.2272 29.8811 26.2276 30.1629 26.2284C30.5247 26.2294 30.8864 26.2288 31.2481 26.2278C31.5257 26.2271 31.8033 26.2273 32.0808 26.2278C32.2142 26.2279 32.3476 26.2277 32.481 26.2273C32.6673 26.2269 32.8535 26.2276 33.0398 26.2286C33.0952 26.2282 33.1506 26.2278 33.2077 26.2275C33.2584 26.228 33.3091 26.2285 33.3613 26.229C33.4054 26.2291 33.4494 26.2291 33.4948 26.2292C33.6427 26.2579 33.6948 26.3124 33.7874 26.4293C33.8238 26.553 33.8238 26.553 33.8391 26.6886C33.845 26.7331 33.8509 26.7775 33.8571 26.8233C33.8424 27.0157 33.79 27.1088 33.6692 27.259C33.4902 27.3444 33.4902 27.3444 33.2853 27.4108C33.0942 27.4732 32.9398 27.525 32.7814 27.6495C32.6239 28.0425 32.9546 28.6872 33.0832 29.0701C33.1188 29.1773 33.1188 29.1773 33.1552 29.2867C33.2194 29.4795 33.2839 29.6722 33.3484 29.8648C33.4027 30.0269 33.4568 30.189 33.5108 30.3511C33.8266 31.298 34.1456 32.2437 34.4691 33.1879C34.8561 34.3181 35.2307 35.4525 35.6066 36.5865C35.9675 37.6749 36.3286 38.7631 36.7002 39.8479C37.0279 40.8049 37.3496 41.764 37.6692 42.7238C37.7079 42.8398 37.7466 42.9558 37.7854 43.0719C37.8575 43.2878 37.9293 43.5038 38.0011 43.7198C38.023 43.7854 38.0449 43.8509 38.0675 43.9185C38.0874 43.9784 38.1072 44.0382 38.1276 44.0999C38.1451 44.1523 38.1625 44.2048 38.1805 44.2588C38.2175 44.3849 38.2175 44.3849 38.2175 44.5034C38.3899 44.4169 38.3927 44.3105 38.4534 44.129C38.4879 44.0269 38.4879 44.0269 38.5231 43.9228C38.5481 43.8471 38.5732 43.7715 38.5983 43.6958C38.6246 43.6173 38.651 43.5388 38.6774 43.4603C38.7485 43.2486 38.8192 43.0366 38.8897 42.8246C38.9633 42.6036 39.0374 42.3827 39.1115 42.1617C39.2868 41.6388 39.4611 41.1156 39.6352 40.5923C39.6712 40.4841 39.6712 40.4841 39.7079 40.3737C39.8897 39.8272 40.0713 39.2805 40.2524 38.7337C40.5083 37.9614 40.7691 37.1908 41.0324 36.421C41.3748 35.4196 41.7081 34.4151 42.0409 33.4104C42.3335 32.5277 42.6279 31.6457 42.9284 30.7656C42.9791 30.6172 43.0297 30.4686 43.0802 30.3201C43.2148 29.9251 43.3496 29.5303 43.4863 29.136C43.5262 29.0206 43.5658 28.9051 43.6052 28.7896C43.6518 28.6535 43.6988 28.5175 43.7465 28.3818C43.7664 28.3232 43.7862 28.2647 43.8067 28.2043C43.824 28.1543 43.8413 28.1043 43.8592 28.0528C43.8932 27.886 43.8789 27.7765 43.8291 27.6145C43.6118 27.4317 43.3495 27.3803 43.0792 27.3148C42.9105 27.2456 42.8543 27.1805 42.7658 27.0219C42.7402 26.8905 42.7402 26.8905 42.74 26.7553C42.7383 26.6884 42.7383 26.6884 42.7365 26.6201C42.7776 26.436 42.8579 26.3703 43.0021 26.2516C43.1523 26.2211 43.1523 26.2211 43.3234 26.22C43.3877 26.219 43.4519 26.2181 43.5182 26.2171C43.5873 26.2174 43.6564 26.2177 43.7276 26.218C43.7988 26.2176 43.87 26.2173 43.9434 26.2169C44.0939 26.2165 44.2444 26.2167 44.395 26.2174C44.6257 26.2182 44.8562 26.2162 45.0868 26.2139C45.233 26.2139 45.3793 26.214 45.5255 26.2143C45.5946 26.2135 45.6637 26.2127 45.7349 26.2119C46.2107 26.2174 46.2107 26.2174 46.4128 26.3891C46.5103 26.5972 46.5156 26.735 46.4872 26.9627C46.3972 27.169 46.347 27.2435 46.1371 27.3314C46.0381 27.3561 46.0381 27.3561 45.9371 27.3812C45.5304 27.4937 45.5304 27.4937 45.1877 27.733C44.9858 28.0976 44.8532 28.4723 44.7248 28.868C44.7038 28.9317 44.6828 28.9954 44.6611 29.0611C44.6161 29.1978 44.5712 29.3345 44.5265 29.4713C44.4076 29.835 44.2875 30.1984 44.1676 30.5617C44.1436 30.6345 44.1196 30.7073 44.0949 30.7823C43.8909 31.4006 43.682 32.0171 43.471 32.633C43.1618 33.5363 42.8593 34.4416 42.5591 35.3479C42.2589 36.2541 41.9563 37.1594 41.6472 38.0627C41.3255 39.0029 41.0109 39.9453 40.6984 40.8886C40.3699 41.8802 40.0384 42.8706 39.7002 43.859C39.4275 44.6563 39.1604 45.4554 38.8954 46.2553C38.7687 46.6378 38.6415 47.0201 38.5144 47.4025C38.418 47.6924 38.3217 47.9825 38.226 48.2727C38.144 48.5209 38.0614 48.769 37.9783 49.0169C37.9486 49.1056 37.9192 49.1944 37.8901 49.2833C37.8506 49.4037 37.8103 49.5238 37.7697 49.6439C37.7476 49.7103 37.7255 49.7768 37.7028 49.8452C37.6216 50.0262 37.5428 50.1262 37.3906 50.2516C37.0992 50.349 36.8517 50.3514 36.5665 50.247C36.3408 50.1042 36.2864 49.9569 36.2091 49.7126C36.1946 49.6706 36.1802 49.6287 36.1653 49.5855C36.1349 49.4968 36.1052 49.4079 36.0759 49.3188C36.0338 49.1904 35.9902 49.0627 35.9459 48.9351C35.8554 48.6737 35.7675 48.4114 35.6797 48.149C35.6468 48.0513 35.614 47.9537 35.5811 47.856C35.4944 47.5979 35.4078 47.3397 35.3213 47.0814C35.2493 46.8668 35.1772 46.6522 35.1051 46.4376C34.6992 45.2289 34.2948 44.0197 33.8941 42.8093C33.6357 42.0289 33.3723 41.2503 33.1062 40.4725C32.7761 39.507 32.4544 38.5387 32.1334 37.5701C31.787 36.5245 31.4384 35.4798 31.0814 34.4378C30.7926 33.5944 30.5114 32.7486 30.2313 31.9023C29.6991 30.2901 29.6991 30.2901 29.1468 28.6849C29.1218 28.6135 29.0969 28.542 29.0712 28.4684C29.0485 28.4049 29.0259 28.3413 29.0026 28.2759C28.9838 28.2231 28.965 28.1703 28.9457 28.1159C28.8487 27.884 28.7742 27.7113 28.5517 27.5863C28.4922 27.5638 28.4328 27.5414 28.3715 27.5182C28.3087 27.4939 28.2459 27.4695 28.1811 27.4444C28.0712 27.4041 27.9612 27.3638 27.8512 27.3236C27.5335 27.2072 27.5335 27.2072 27.4079 27.0812C27.3902 26.9333 27.3902 26.9333 27.3895 26.759C27.3885 26.7016 27.3875 26.6442 27.3865 26.5851C27.4246 26.3082 27.5676 26.2294 27.834 26.229Z" fill="black"/>
<path d="M22.6234 11.5557C22.6623 11.5752 22.7013 11.5948 22.7415 11.6149C22.7042 11.6725 22.6669 11.7301 22.6284 11.7895C22.2803 12.3276 21.9353 12.8678 21.5924 13.4093C21.3265 13.829 21.0596 14.248 20.7922 14.6668C20.4961 15.1305 20.2007 15.5946 19.9062 16.0594C19.5718 16.5871 19.2359 17.114 18.8997 17.6406C18.6438 18.0415 18.3887 18.4428 18.1341 18.8446C17.7997 19.3723 17.4639 19.8992 17.1276 20.4258C16.8718 20.8267 16.6166 21.228 16.3621 21.6297C16.0276 22.1575 15.6918 22.6844 15.3556 23.211C15.0997 23.6119 14.8445 24.0132 14.59 24.4149C14.2556 24.9427 13.9197 25.4696 13.5835 25.9962C13.3276 26.3971 13.0725 26.7984 12.8179 27.2001C12.4835 27.7279 12.1477 28.2547 11.8114 28.7814C11.5556 29.1822 11.3004 29.5836 11.0459 29.9853C10.7514 30.45 10.4559 30.9141 10.1598 31.3779C9.72532 32.0585 9.29251 32.7402 8.86031 33.4223C8.38832 34.1672 7.91537 34.9115 7.44077 35.6547C7.21538 36.0078 6.99064 36.3613 6.76665 36.7152C6.59855 36.9808 6.43001 37.2461 6.26128 37.5112C6.22548 37.5675 6.18968 37.6238 6.1528 37.6818C6.04654 37.8486 5.93985 38.0152 5.83303 38.1816C5.80058 38.2326 5.76813 38.2836 5.73469 38.3362C5.7047 38.3827 5.67472 38.4293 5.64382 38.4772C5.61754 38.5182 5.59125 38.5593 5.56416 38.6016C5.49338 38.6964 5.49338 38.6964 5.37525 38.7557C5.35141 38.7196 5.32758 38.6836 5.30302 38.6465C4.87731 38.0043 4.4467 37.3653 4.01666 36.726C3.93629 36.6065 3.85591 36.487 3.77554 36.3675C3.58028 36.0771 3.385 35.7868 3.1897 35.4964C3.27161 35.3271 3.35657 35.1893 3.47743 35.045C3.51102 35.0046 3.5446 34.9642 3.57921 34.9225C3.61514 34.8797 3.65107 34.8368 3.68809 34.7927C3.95276 34.4742 4.21396 34.1539 4.46706 33.826C4.71575 33.5048 4.97552 33.195 5.24083 32.8875C5.45062 32.644 5.6534 32.3961 5.85241 32.1436C6.06421 31.8759 6.28143 31.6125 6.49755 31.3483C6.58617 31.2396 6.67478 31.131 6.76336 31.0223C7.47219 30.1532 8.18102 29.2841 8.88984 28.4149C8.93401 28.3608 8.97817 28.3066 9.02367 28.2508C9.10916 28.146 9.19469 28.0412 9.28025 27.9365C9.54467 27.6126 9.80819 27.2881 10.0712 26.9631C10.3756 26.5871 10.6808 26.2118 10.9868 25.8371C11.0754 25.7285 11.164 25.6199 11.2526 25.5112C12.3158 24.2075 13.3791 22.9038 14.4423 21.6001C14.5086 21.5189 14.5086 21.5189 14.5761 21.436C14.6616 21.3312 14.7472 21.2264 14.8327 21.1216C15.0971 20.7978 15.3607 20.4732 15.6237 20.1483C15.928 19.7722 16.2333 19.397 16.5393 19.0223C16.6279 18.9137 16.7165 18.8051 16.8051 18.6964C18.6657 16.4149 18.6657 16.4149 20.5264 14.1334C20.5706 14.0793 20.6147 14.0251 20.6602 13.9693C20.7457 13.8645 20.8313 13.7597 20.9168 13.655C21.2144 13.2906 21.5107 12.9251 21.8066 12.5594C22.0781 12.2242 22.3504 11.8897 22.6234 11.5557Z" fill="black"/>
<path d="M41.6434 5.98529C42.074 6.34409 42.3537 6.73963 42.6125 7.22951C42.7048 7.41103 42.7048 7.41103 42.8248 7.58529C42.8669 7.57315 42.909 7.561 42.9524 7.54849C43.009 7.53252 43.0656 7.51656 43.1239 7.50011C43.1794 7.4843 43.2349 7.46848 43.2921 7.45219C44.2164 7.22594 45.2079 7.28572 46.0362 7.77511C47.2512 8.60699 47.7568 9.96647 48.034 11.3619C48.1004 11.7214 48.1531 12.0821 48.2001 12.4446C48.2106 12.5241 48.2106 12.5241 48.2213 12.6053C48.3357 13.5309 48.3288 14.4616 48.3293 15.3927C48.3294 15.4543 48.3294 15.516 48.3295 15.5795C48.3294 16.2267 48.3212 16.8729 48.2917 17.5196C48.2894 17.5704 48.2871 17.6212 48.2848 17.6736C48.2718 17.9298 48.2486 18.1773 48.2001 18.4297C48.1004 18.4314 48.0007 18.4325 47.9011 18.4334C47.8455 18.4341 47.79 18.4348 47.7328 18.4355C47.5308 18.4291 47.3364 18.4022 47.1368 18.3705C47.1386 18.3266 47.1404 18.2826 47.1423 18.2374C47.4953 13.4986 47.4953 13.4986 45.8041 9.25937C45.4536 8.89923 45.0654 8.67295 44.5556 8.63622C44.0835 8.63808 43.6413 8.66048 43.1792 8.77048C43.1942 8.83113 43.2092 8.89179 43.2247 8.95428C43.5694 10.4175 43.6087 11.8741 43.6075 13.3705C43.6074 13.4417 43.6074 13.513 43.6074 13.5864C43.6061 14.282 43.599 14.977 43.566 15.6719C43.5637 15.7202 43.5614 15.7685 43.5591 15.8183C43.5478 16.027 43.5254 16.2111 43.4746 16.4149C43.1237 16.3954 42.7728 16.3758 42.4113 16.3557C42.4156 16.2726 42.4199 16.1896 42.4243 16.104C42.7307 12.6524 42.7307 12.6524 42.0569 9.36307C41.4316 9.73261 40.8578 10.1359 40.3051 10.6079C40.1981 10.6992 40.0906 10.7898 39.9828 10.8801C39.5034 11.2837 39.0523 11.7086 38.6122 12.1549C38.5076 12.2609 38.4025 12.3664 38.2974 12.4719C38.2294 12.5404 38.1615 12.6089 38.0935 12.6774C38.0628 12.7084 38.032 12.7393 38.0003 12.7712C37.8049 12.9698 37.6251 13.1762 37.4496 13.3927C36.9533 13.2442 36.4974 13.0247 36.0319 12.8001C36.0662 12.6111 36.1175 12.5144 36.2529 12.3796C36.2868 12.3453 36.3207 12.3111 36.3557 12.2758C36.3927 12.2394 36.4297 12.2031 36.4678 12.1656C36.5059 12.1275 36.544 12.0893 36.5833 12.05C36.6642 11.9693 36.7453 11.8888 36.8266 11.8084C36.9497 11.6868 37.0721 11.5645 37.1945 11.4421C37.2734 11.3635 37.3523 11.2849 37.4313 11.2064C37.4675 11.1704 37.5036 11.1344 37.5408 11.0973C37.797 10.8444 38.0629 10.6052 38.3356 10.3705C38.3748 10.3367 38.4141 10.3029 38.4545 10.268C39.4205 9.43918 40.445 8.69015 41.5844 8.11863C41.4223 7.56306 41.0819 7.1154 40.5853 6.81955C39.9442 6.48715 39.2818 6.56172 38.6062 6.75381C37.2981 7.19274 36.187 8.0352 35.1533 8.92974C35.1174 8.96069 35.0816 8.99164 35.0447 9.02353C34.7328 9.29676 34.4426 9.58889 34.1565 9.889C34.0236 10.0149 34.0236 10.0149 33.8464 10.0742C33.8464 10.1133 33.8464 10.1524 33.8464 10.1927C33.7508 10.2943 33.6516 10.3924 33.551 10.489C33.4916 10.5483 33.4324 10.6077 33.3733 10.6672C33.1372 10.9041 32.9011 11.141 32.665 11.3779C32.2166 11.1823 31.7683 10.9868 31.3064 10.7853C31.3647 10.5514 31.3919 10.4986 31.5484 10.3344C31.6045 10.275 31.6045 10.275 31.6617 10.2143C31.7016 10.173 31.7415 10.1316 31.7826 10.089C31.8231 10.0465 31.8636 10.0039 31.9053 9.96008C32.0202 9.83961 32.1357 9.71975 32.2515 9.60011C32.3001 9.54962 32.3487 9.49912 32.3987 9.4471C32.614 9.22721 32.8384 9.02114 33.0713 8.82025C33.2099 8.69966 33.3453 8.57594 33.4809 8.45196C35.4539 6.67325 39.0262 3.98422 41.6434 5.98529Z" fill="black"/>
</svg>
