<svg width="75" height="49" viewBox="0 0 75 49" fill="none" xmlns="http://www.w3.org/2000/svg">
<path d="M35.4922 27.4297C34.9765 27.4297 34.5683 27.0202 34.5683 26.5244C34.5683 26.0072 34.9765 25.5977 35.4922 25.5977C36.0078 25.5977 36.416 26.0072 36.416 26.5244C36.416 27.0202 36.0078 27.4297 35.4922 27.4297ZM36.3945 37.9261H37.1035V38.0554H33.8594V37.9261H34.5683V29.1755L33.8809 29.2833L33.8594 29.1539L34.5683 29.0462L36.3945 28.7229V37.9261Z" fill="black"/>
<path d="M42.2719 37.9261V38.0554C40.4887 38.0554 38.5337 37.4951 38.5337 35.3397V28.8522H37.8891V28.7229H38.5337V27.3219L37.8462 27.4297L37.8247 27.3004L38.5337 27.1926L40.3598 26.8693V28.7229H41.1332V28.8522H40.3598V35.5337C40.3598 37.5166 41.4985 37.9261 42.2719 37.9261Z" fill="black"/>
<path d="M47.7763 28.7229C48.4853 28.7229 49.3447 28.9815 50.0966 29.8868L49.2157 31.999C48.9365 30.4256 48.6786 28.8522 47.6259 28.8522C46.4228 28.8522 45.7568 29.973 45.542 30.3609V37.9261H46.251V38.0554H43.0069V37.9261H43.7158V29.1755L43.0283 29.2833L43.0069 29.1539L43.7158 29.0462L45.542 28.7229V30.1238C45.8428 29.6066 46.4658 28.7229 47.7763 28.7229Z" fill="black"/>
<path d="M52.4654 27.4297C51.9498 27.4297 51.5416 27.0202 51.5416 26.5244C51.5416 26.0072 51.9498 25.5977 52.4654 25.5977C52.981 25.5977 53.3892 26.0072 53.3892 26.5244C53.3892 27.0202 52.981 27.4297 52.4654 27.4297ZM53.3677 37.9261H54.0767V38.0554H50.8326V37.9261H51.5416V29.1755L50.8541 29.2833L50.8326 29.1539L51.5416 29.0462L53.3677 28.7229V37.9261Z" fill="black"/>
<path d="M64.1864 37.9261H64.8954V38.0554H61.6513V37.9261H62.3603V32.9042C62.3603 30.8135 62.0595 28.7229 60.0615 28.8522C58.6221 28.9384 57.6123 30.0592 57.333 30.404V37.9261H58.042V38.0554H54.7979V37.9261H55.5069V29.1755L54.8194 29.2833L54.7979 29.1539L55.5069 29.0462L57.333 28.7229V30.1885C57.7197 29.7143 58.708 28.8091 60.0615 28.7229C61.372 28.6367 64.1864 29.5203 64.1864 32.818V37.9261Z" fill="black"/>
<path d="M73.5565 37.9261H74.2654V38.0554H71.7303V36.0079C71.6444 36.4605 71.1717 38.0554 68.5077 38.0554C65.3925 38.0554 65.4355 35.857 65.4355 35.857C65.4355 32.1283 71.1503 33.0551 71.7303 31.3093C71.7303 30.5765 71.6014 28.8522 69.7538 28.8522C67.7128 28.8522 67.3906 31.417 67.3906 31.7834C66.832 31.3955 65.9511 30.7273 65.9511 30.7273C65.9511 30.7273 67.0253 28.7229 69.7538 28.7229C72.9334 28.7229 73.5565 30.8351 73.5565 31.805V37.9261ZM71.7303 35.5984V31.4817C71.2147 32.8396 67.2616 32.3438 67.2616 35.5768C67.2616 36.4605 67.6698 37.6028 69.3671 37.6028C71.537 37.6028 71.7303 35.5984 71.7303 35.5984Z" fill="black"/>
<path d="M19.7178 7.03223C19.8036 7.08138 19.8893 7.13053 19.975 7.17968C20.0172 7.20379 20.0172 7.20379 20.0601 7.22838C20.2291 7.32514 20.3978 7.42224 20.5663 7.51978C21.1229 7.84137 21.6853 8.1508 22.2509 8.45614C22.3844 8.52855 22.5175 8.60161 22.6505 8.67495C23.0453 8.89266 23.4403 9.10774 23.8446 9.30713C24.0234 9.39541 24.1998 9.4871 24.3753 9.58181C24.7385 9.77785 25.1068 9.96031 25.4797 10.1372C25.7364 10.2591 25.9921 10.3826 26.2468 10.5087C29.7665 12.2498 33.4817 13.697 37.265 14.7452C37.3037 14.7559 37.3425 14.7667 37.3824 14.7777C39.0047 15.2259 40.6378 15.6228 42.3059 15.8548C42.446 15.8764 42.5851 15.9008 42.7245 15.9264C42.7692 15.9346 42.814 15.9428 42.8601 15.9512C42.8941 15.9575 42.9282 15.9637 42.9633 15.9702C42.9643 16.6144 42.9651 17.2587 42.9656 17.9029C42.9658 18.2023 42.9662 18.5017 42.9667 18.8011C42.9692 20.293 42.9594 21.7834 42.918 23.2748C42.9031 23.2748 42.8882 23.2748 42.8728 23.2748C42.8205 23.0085 42.8066 22.7406 42.7892 22.4702C42.7857 22.4168 42.7822 22.3635 42.7785 22.3085C42.7689 22.1625 42.7594 22.0165 42.7499 21.8705C42.742 21.7481 42.734 21.6257 42.726 21.5033C42.7071 21.2139 42.6883 20.9246 42.6696 20.6352C42.6504 20.3383 42.631 20.0414 42.6114 19.7445C42.5945 19.4885 42.5779 19.2324 42.5613 18.9764C42.5514 18.824 42.5415 18.6716 42.5314 18.5192C42.4511 17.3016 42.4511 17.3016 42.4658 16.7415C42.4161 16.7393 42.3664 16.7372 42.3151 16.735C41.8301 16.7121 41.3525 16.6669 40.8716 16.5997C40.8362 16.5948 40.8009 16.5899 40.7644 16.5849C37.2915 16.1028 33.9745 15.0474 30.7089 13.7892C30.5122 13.7134 30.3151 13.6384 30.1179 13.5636C28.051 12.7795 25.9862 11.9763 23.9689 11.0702C23.9374 11.0561 23.9059 11.0419 23.8735 11.0274C23.1572 10.7057 22.4445 10.3761 21.7331 10.0437C21.7051 10.0306 21.6771 10.0175 21.6482 10.004C21.3188 9.8501 20.9915 9.69281 20.6675 9.5276C20.4622 9.96198 20.266 10.3993 20.0787 10.8418C20.0048 11.0163 19.9305 11.1906 19.8563 11.3649C19.8333 11.419 19.8333 11.419 19.8099 11.4741C19.6675 11.8086 19.5236 12.1424 19.3793 12.4762C19.0776 13.1744 18.7785 13.8737 18.48 14.5734C18.1318 15.3896 17.7826 16.2053 17.4281 17.0188C17.154 17.6477 16.8823 18.2776 16.6115 18.9079C16.5801 18.981 16.5801 18.981 16.548 19.0555C16.4413 19.304 16.3346 19.5524 16.2279 19.8009C16.0402 20.2379 15.8522 20.6749 15.6643 21.1119C15.5609 21.3523 15.4576 21.5927 15.3542 21.8331C15.3337 21.8807 15.3132 21.9284 15.2921 21.9775C15.1663 22.2699 15.0406 22.5624 14.9149 22.8548C14.4861 23.8522 14.0572 24.8495 13.6279 25.8467C13.339 26.5178 13.0503 27.1889 12.7617 27.8601C12.741 27.9082 12.7203 27.9564 12.6989 28.0061C12.5512 28.3497 12.4035 28.6933 12.2558 29.0369C12.0871 29.4291 11.9185 29.8214 11.7498 30.2136C11.7291 30.2619 11.7084 30.3101 11.687 30.3597C11.3844 31.0635 11.0816 31.7672 10.7787 32.4708C10.5108 33.0932 10.243 33.7157 9.97528 34.3383C9.91276 34.4837 9.85023 34.6291 9.7877 34.7745C9.59395 35.2251 9.40026 35.6757 9.20675 36.1264C9.11841 36.3321 9.03005 36.5378 8.94168 36.7435C8.90027 36.8399 8.85887 36.9363 8.81749 37.0328C8.51984 37.7264 8.21829 38.4183 7.91421 39.1091C7.94563 39.1116 7.97706 39.1141 8.00944 39.1167C8.27529 39.1393 8.53596 39.1703 8.79821 39.2191C8.85171 39.2289 8.85171 39.2289 8.9063 39.2388C9.02414 39.2605 9.1419 39.2826 9.25964 39.3047C9.32166 39.3163 9.32166 39.3163 9.38494 39.3282C11.0638 39.6437 12.7316 40.0211 14.3882 40.4379C14.5857 40.4874 14.7831 40.5366 14.9806 40.5859C15.6911 40.7631 16.4013 40.9415 17.1113 41.1205C17.313 41.1714 17.5148 41.2221 17.7166 41.2729C19.3678 41.6879 21.0164 42.1092 22.6553 42.5711C22.8849 42.6358 23.1148 42.6995 23.3447 42.7629C25.1335 43.2571 26.9035 43.8107 28.6723 44.372C28.7232 44.3882 28.7741 44.4043 28.8265 44.421C29.9321 44.772 31.0285 45.1477 32.1218 45.5358C32.372 45.6244 32.6234 45.7078 32.8769 45.7864C32.9686 45.8239 32.9686 45.8239 33.0139 45.9146C32.4505 45.7778 31.892 45.6248 31.3333 45.4702C27.6788 44.4609 24.0004 43.5848 13.6843 41.6299C13.5751 41.6128 13.466 41.5956 13.3568 41.5783C11.8817 41.3452 10.4052 41.1529 8.92045 40.9948C8.88451 40.9909 8.84856 40.9871 8.81152 40.9832C7.65684 40.8601 6.50196 40.7484 5.34113 40.7049C5.21752 40.6947 5.09669 40.6733 4.97461 40.6517C5.59334 38.9368 6.34156 37.2818 7.07996 35.6163C7.10803 35.553 7.10803 35.553 7.13666 35.4884C7.17461 35.4028 7.21257 35.3172 7.25053 35.2316C7.51874 34.6269 7.78512 34.0214 8.04988 33.4151C8.33631 32.7592 8.62472 32.1043 8.9148 31.45C8.93388 31.407 8.95296 31.3639 8.97261 31.3196C9.13449 30.9545 9.29651 30.5895 9.45856 30.2245C9.54869 30.0215 9.63879 29.8184 9.72884 29.6153C9.74337 29.5826 9.7579 29.5498 9.77286 29.5161C10.0277 28.9412 10.2798 28.3652 10.5316 27.789C10.8049 27.1635 11.0802 26.5389 11.3569 25.9148C11.376 25.8718 11.3951 25.8288 11.4147 25.7845C11.5766 25.4194 11.7386 25.0543 11.9007 24.6893C11.9908 24.4863 12.0809 24.2832 12.171 24.0801C12.1854 24.0476 12.1998 24.0151 12.2147 23.9816C12.4769 23.3902 12.7362 22.7975 12.9951 22.2047C13.2064 21.7211 13.419 21.2382 13.6351 20.7568C13.8653 20.2439 14.0914 19.7294 14.3163 19.2142C14.6093 18.5432 14.9042 17.873 15.201 17.2037C15.2201 17.1607 15.2391 17.1178 15.2587 17.0735C15.4207 16.7084 15.5827 16.3433 15.7448 15.9782C15.8349 15.7752 15.925 15.5721 16.0151 15.369C16.0296 15.3363 16.0441 15.3035 16.0591 15.2698C16.3139 14.6949 16.5661 14.1189 16.8178 13.5427C17.0911 12.9172 17.3665 12.2926 17.6431 11.6685C17.6622 11.6255 17.6813 11.5825 17.7009 11.5382C17.8628 11.1731 18.0248 10.808 18.1869 10.443C18.2624 10.2729 18.3379 10.1027 18.4134 9.93254C18.4424 9.86719 18.4714 9.80185 18.5004 9.73651C18.6802 9.33114 18.8587 8.92518 19.0359 8.51864C19.0546 8.47574 19.0733 8.43285 19.0926 8.38866C19.1842 8.1787 19.2756 7.96868 19.3668 7.75855C19.3998 7.68274 19.4329 7.60693 19.4659 7.53112C19.481 7.49633 19.496 7.46153 19.5115 7.42568C19.5725 7.28599 19.6333 7.15946 19.7178 7.03223Z" fill="black"/>
<path d="M17.8636 9.3457C17.9239 9.52743 17.8584 9.62149 17.7803 9.78505C17.7662 9.81563 17.7521 9.84621 17.7375 9.87771C17.7067 9.94428 17.6756 10.0108 17.6444 10.0772C17.5596 10.2576 17.4763 10.4387 17.3928 10.6196C17.3754 10.6571 17.3581 10.6945 17.3402 10.7331C17.1654 11.1109 16.9968 11.4913 16.829 11.8723C16.7689 12.0086 16.7087 12.1449 16.6485 12.2811C16.6334 12.3154 16.6182 12.3496 16.6026 12.3849C16.4216 12.7942 16.238 13.2023 16.0546 13.6105C15.7966 14.1845 15.5401 14.759 15.2858 15.3346C14.9442 16.1073 14.5985 16.878 14.2524 17.6486C14.0312 18.1411 13.8112 18.6342 13.591 19.1272C13.5215 19.283 13.4519 19.4387 13.3823 19.5944C13.1044 20.216 12.8269 20.8377 12.5497 21.4596C12.2027 22.2377 11.8553 23.0157 11.5076 23.7935C11.2064 24.4672 10.9055 25.1411 10.605 25.8151C10.2581 26.5933 9.91061 27.3712 9.5629 28.149C9.26172 28.8228 8.96087 29.4967 8.66035 30.1707C8.31342 30.9489 7.96595 31.7268 7.61824 32.5046C7.30041 33.2156 6.98297 33.9268 6.66584 34.6381C6.43348 35.1593 6.20092 35.6803 5.96797 36.2013C5.82744 36.5156 5.68724 36.83 5.54728 37.1446C5.49574 37.2604 5.44421 37.3761 5.39267 37.4919C5.35953 37.5664 5.32641 37.6408 5.29332 37.7153C5.08599 38.1819 4.87499 38.6465 4.65798 39.1087C4.62813 39.1087 4.59828 39.1087 4.56753 39.1087C4.23495 38.4458 3.90277 37.7829 3.58557 37.1124C3.46147 36.8501 3.33617 36.5885 3.20973 36.3274C3.18577 36.2779 3.18577 36.2779 3.16132 36.2274C3.09737 36.0954 3.03339 35.9634 2.96931 35.8314C2.896 35.6804 2.82293 35.5294 2.75048 35.378C2.69631 35.2648 2.64089 35.1523 2.58447 35.0403C2.55919 34.9887 2.53391 34.9371 2.50787 34.8839C2.48529 34.8388 2.46272 34.7937 2.43947 34.7473C2.37685 34.5563 2.40817 34.4211 2.48831 34.2401C2.50736 34.2071 2.5264 34.1741 2.54602 34.1401C2.57831 34.0836 2.57831 34.0836 2.61126 34.026C2.64639 33.9662 2.64639 33.9662 2.68223 33.9052C2.70664 33.8631 2.73105 33.8209 2.7562 33.7775C2.95649 33.4342 3.16663 33.0976 3.38021 32.7625C3.55026 32.4951 3.7154 32.2247 3.88068 31.9543C4.11551 31.5704 4.35172 31.1875 4.59014 30.8059C4.82562 30.4289 5.05908 30.0507 5.29112 29.6716C5.55072 29.2475 5.81257 28.8248 6.07601 28.403C6.28336 28.0707 6.48861 27.7372 6.69308 27.4031C6.95269 26.9789 7.21453 26.5563 7.47798 26.1345C7.68532 25.8022 7.89057 25.4687 8.09505 25.1346C8.35465 24.7104 8.61649 24.2878 8.87994 23.866C9.08728 23.5337 9.29254 23.2002 9.49701 22.8661C9.75661 22.4419 10.0185 22.0192 10.2819 21.5975C10.4892 21.2652 10.6945 20.9316 10.899 20.5976C11.1586 20.1734 11.4204 19.7507 11.6839 19.329C11.8912 18.9967 12.0965 18.6631 12.3009 18.329C12.5605 17.9049 12.8224 17.4822 13.0858 17.0604C13.2932 16.7281 13.4984 16.3946 13.7029 16.0605C13.9625 15.6364 14.2243 15.2137 14.4878 14.7919C14.6951 14.4596 14.9004 14.1261 15.1049 13.792C15.3645 13.3678 15.6263 12.9452 15.8897 12.5234C16.0971 12.1911 16.3023 11.8576 16.5068 11.5235C16.7475 11.1303 16.9895 10.7379 17.2332 10.3467C17.2601 10.3035 17.287 10.2603 17.3148 10.2158C17.4963 9.92487 17.6795 9.63504 17.8636 9.3457Z" fill="black"/>
<path d="M21.3104 20.0814C21.3686 20.0809 21.3686 20.0809 21.428 20.0803C21.4916 20.0807 21.4916 20.0807 21.5566 20.0811C21.6014 20.0809 21.6462 20.0806 21.6923 20.0804C21.8407 20.0798 21.9891 20.0802 22.1374 20.0806C22.2403 20.0805 22.3432 20.0804 22.4461 20.0802C22.6619 20.08 22.8777 20.0803 23.0935 20.081C23.3705 20.0817 23.6474 20.0813 23.9243 20.0805C24.1369 20.08 24.3494 20.0801 24.5619 20.0805C24.664 20.0806 24.7662 20.0805 24.8683 20.0802C25.0109 20.0798 25.1535 20.0803 25.2961 20.0811C25.3385 20.0808 25.381 20.0806 25.4247 20.0803C25.4635 20.0807 25.5023 20.081 25.5423 20.0814C25.576 20.0815 25.6097 20.0815 25.6444 20.0816C25.7577 20.1035 25.7976 20.1453 25.8685 20.2348C25.8964 20.3295 25.8964 20.3295 25.908 20.4333C25.9126 20.4674 25.9171 20.5014 25.9218 20.5365C25.9106 20.6838 25.8705 20.7551 25.778 20.87C25.6409 20.9354 25.6409 20.9354 25.4841 20.9863C25.3377 21.0341 25.2196 21.0737 25.0982 21.169C24.9777 21.4699 25.2308 21.9635 25.3293 22.2566C25.3566 22.3387 25.3566 22.3387 25.3845 22.4225C25.4336 22.5701 25.483 22.7176 25.5324 22.8651C25.574 22.9892 25.6153 23.1133 25.6567 23.2374C25.8985 23.9624 26.1427 24.6864 26.3904 25.4093C26.6867 26.2747 26.9735 27.1432 27.2613 28.0114C27.5376 28.8447 27.8141 29.6779 28.0986 30.5084C28.3495 31.2411 28.5958 31.9754 28.8405 32.7103C28.8701 32.7991 28.8997 32.8879 28.9294 32.9768C28.9846 33.1421 29.0396 33.3075 29.0946 33.4729C29.1114 33.5231 29.1282 33.5732 29.1455 33.625C29.1606 33.6708 29.1758 33.7166 29.1915 33.7639C29.2048 33.804 29.2182 33.8441 29.2319 33.8855C29.2603 33.982 29.2603 33.982 29.2603 34.0728C29.3923 34.0066 29.3944 33.9251 29.4409 33.7861C29.4673 33.708 29.4673 33.708 29.4942 33.6283C29.5134 33.5703 29.5326 33.5124 29.5518 33.4544C29.572 33.3943 29.5922 33.3343 29.6124 33.2742C29.6669 33.112 29.7209 32.9498 29.7749 32.7875C29.8313 32.6182 29.8881 32.4491 29.9448 32.28C30.0789 31.8796 30.2124 31.479 30.3457 31.0783C30.3733 30.9955 30.3733 30.9955 30.4014 30.911C30.5406 30.4925 30.6796 30.074 30.8182 29.6554C31.0142 29.064 31.2138 28.4741 31.4155 27.8847C31.6776 27.118 31.9327 26.3489 32.1876 25.5797C32.4116 24.9039 32.637 24.2286 32.867 23.5548C32.9059 23.4411 32.9446 23.3274 32.9833 23.2137C33.0863 22.9113 33.1896 22.609 33.2942 22.3071C33.3247 22.2188 33.3551 22.1304 33.3853 22.0419C33.4209 21.9377 33.4569 21.8336 33.4934 21.7297C33.5086 21.6848 33.5238 21.64 33.5395 21.5938C33.5528 21.5555 33.566 21.5172 33.5797 21.4778C33.6057 21.3501 33.5948 21.2663 33.5566 21.1422C33.3903 21.0022 33.1894 20.9629 32.9825 20.9127C32.8534 20.8598 32.8104 20.8099 32.7426 20.6885C32.723 20.5879 32.723 20.5879 32.7228 20.4844C32.7215 20.4331 32.7215 20.4331 32.7202 20.3809C32.7516 20.2399 32.8131 20.1896 32.9235 20.0987C33.0385 20.0754 33.0385 20.0754 33.1695 20.0745C33.2187 20.0738 33.2679 20.0731 33.3186 20.0723C33.3715 20.0726 33.4244 20.0728 33.4789 20.073C33.5334 20.0727 33.588 20.0725 33.6441 20.0722C33.7594 20.0718 33.8747 20.072 33.9899 20.0726C34.1665 20.0732 34.343 20.0716 34.5196 20.0699C34.6315 20.0699 34.7435 20.07 34.8554 20.0702C34.9083 20.0696 34.9612 20.069 35.0158 20.0684C35.3801 20.0726 35.3801 20.0726 35.5348 20.204C35.6095 20.3634 35.6135 20.4688 35.5917 20.6432C35.5229 20.8011 35.4844 20.8581 35.3238 20.9255C35.2479 20.9443 35.2479 20.9443 35.1706 20.9636C34.8593 21.0497 34.8593 21.0497 34.5968 21.233C34.4423 21.5121 34.3407 21.799 34.2424 22.1019C34.2263 22.1507 34.2103 22.1995 34.1937 22.2498C34.1592 22.3544 34.1249 22.4591 34.0906 22.5638C33.9996 22.8423 33.9076 23.1205 33.8158 23.3987C33.7974 23.4544 33.7791 23.5102 33.7602 23.5676C33.604 24.041 33.4441 24.513 33.2825 24.9845C33.0458 25.6761 32.8141 26.3692 32.5843 27.0631C32.3545 27.7569 32.1228 28.45 31.8862 29.1416C31.6399 29.8614 31.399 30.583 31.1597 31.3052C30.9082 32.0644 30.6544 32.8227 30.3955 33.5794C30.1867 34.1898 29.9822 34.8016 29.7793 35.4141C29.6823 35.7069 29.5849 35.9996 29.4876 36.2924C29.4138 36.5144 29.3401 36.7364 29.2668 36.9586C29.204 37.1487 29.1408 37.3386 29.0771 37.5284C29.0544 37.5963 29.0319 37.6643 29.0096 37.7324C28.9794 37.8246 28.9485 37.9165 28.9174 38.0085C28.9005 38.0593 28.8836 38.1102 28.8662 38.1626C28.804 38.3012 28.7437 38.3777 28.6272 38.4737C28.4041 38.5483 28.2146 38.5502 27.9962 38.4702C27.8234 38.3609 27.7818 38.2481 27.7226 38.0611C27.7115 38.029 27.7005 37.9968 27.6891 37.9637C27.6658 37.8958 27.643 37.8277 27.6206 37.7595C27.5884 37.6613 27.555 37.5635 27.5211 37.4658C27.4518 37.2656 27.3845 37.0648 27.3172 36.864C27.2921 36.7892 27.267 36.7144 27.2418 36.6396C27.1754 36.442 27.1091 36.2443 27.0428 36.0466C26.9877 35.8823 26.9326 35.7179 26.8774 35.5536C26.5666 34.6282 26.257 33.7024 25.9502 32.7757C25.7524 32.1782 25.5507 31.5821 25.347 30.9866C25.0942 30.2474 24.8479 29.506 24.6022 28.7645C24.3369 27.9639 24.0701 27.1641 23.7967 26.3663C23.5756 25.7206 23.3603 25.073 23.1459 24.425C22.7384 23.1908 22.7384 23.1908 22.3155 21.9617C22.2964 21.907 22.2773 21.8524 22.2576 21.796C22.2403 21.7474 22.2229 21.6987 22.2051 21.6486C22.1907 21.6082 22.1763 21.5678 22.1615 21.5261C22.0873 21.3486 22.0302 21.2163 21.8599 21.1206C21.8144 21.1034 21.7688 21.0862 21.7219 21.0685C21.6738 21.0499 21.6257 21.0312 21.5762 21.012C21.492 20.9811 21.4078 20.9503 21.3236 20.9195C21.0804 20.8304 21.0804 20.8304 20.9842 20.7339C20.9706 20.6207 20.9706 20.6207 20.9701 20.4872C20.9693 20.4433 20.9686 20.3994 20.9678 20.3541C20.997 20.1421 21.1064 20.0817 21.3104 20.0814Z" fill="black"/>
<path d="M17.3213 8.84766C17.3511 8.86263 17.381 8.8776 17.4117 8.89303C17.3832 8.93712 17.3546 8.98122 17.3252 9.02666C17.0586 9.4387 16.7945 9.85223 16.5319 10.2668C16.3284 10.5882 16.124 10.909 15.9193 11.2296C15.6926 11.5847 15.4664 11.94 15.2409 12.2958C14.9849 12.6999 14.7278 13.1033 14.4704 13.5064C14.2745 13.8134 14.0791 14.1206 13.8842 14.4282C13.6282 14.8323 13.371 15.2357 13.1136 15.6389C12.9177 15.9458 12.7224 16.2531 12.5275 16.5606C12.2714 16.9647 12.0143 17.3681 11.7569 17.7713C11.561 18.0782 11.3656 18.3855 11.1707 18.693C10.9147 19.0971 10.6576 19.5005 10.4001 19.9037C10.2043 20.2106 10.0089 20.5179 9.81399 20.8254C9.55795 21.2295 9.30082 21.6329 9.04341 22.0361C8.84751 22.343 8.65215 22.6503 8.45725 22.9578C8.23178 23.3137 8.00556 23.669 7.77888 24.024C7.44622 24.5452 7.11485 25.0671 6.78394 25.5893C6.42258 26.1596 6.06048 26.7295 5.69711 27.2985C5.52455 27.5688 5.35248 27.8394 5.18099 28.1105C5.05228 28.3138 4.92325 28.5169 4.79406 28.7199C4.76665 28.763 4.73925 28.8061 4.71101 28.8505C4.62965 28.9782 4.54797 29.1057 4.46618 29.2331C4.44134 29.2722 4.41649 29.3112 4.39089 29.3515C4.36794 29.3871 4.34498 29.4227 4.32132 29.4595C4.3012 29.4909 4.28107 29.5223 4.26033 29.5547C4.20614 29.6273 4.20614 29.6273 4.11569 29.6727C4.09745 29.6451 4.0792 29.6175 4.0604 29.5891C3.73446 29.0974 3.40477 28.6082 3.07553 28.1187C3.01399 28.0272 2.95245 27.9357 2.89092 27.8442C2.74142 27.6219 2.59191 27.3996 2.44238 27.1773C2.50509 27.0477 2.57014 26.9422 2.66268 26.8317C2.68839 26.8007 2.71411 26.7698 2.7406 26.7379C2.76811 26.7051 2.79562 26.6723 2.82397 26.6385C3.0266 26.3946 3.22658 26.1494 3.42036 25.8984C3.61077 25.6525 3.80965 25.4152 4.01278 25.1798C4.1734 24.9934 4.32866 24.8036 4.48102 24.6103C4.64318 24.4053 4.80949 24.2037 4.97496 24.0014C5.04281 23.9182 5.11065 23.835 5.17847 23.7518C5.72117 23.0864 6.26386 22.421 6.80656 21.7555C6.84037 21.7141 6.87418 21.6726 6.90902 21.6299C6.97447 21.5496 7.03995 21.4694 7.10546 21.3892C7.30791 21.1413 7.50967 20.8928 7.71105 20.644C7.94406 20.3561 8.17774 20.0688 8.41203 19.7819C8.47987 19.6987 8.54771 19.6156 8.61554 19.5324C9.42958 18.5342 10.2436 17.5361 11.0577 16.5379C11.1084 16.4757 11.1084 16.4757 11.1601 16.4123C11.2256 16.332 11.2911 16.2518 11.3566 16.1716C11.559 15.9237 11.7608 15.6752 11.9622 15.4264C12.1952 15.1385 12.4289 14.8512 12.6631 14.5643C12.731 14.4812 12.7988 14.398 12.8667 14.3148C14.2912 12.568 14.2912 12.568 15.7158 10.8213C15.7496 10.7798 15.7834 10.7383 15.8183 10.6956C15.8837 10.6154 15.9492 10.5351 16.0147 10.4549C16.2425 10.1759 16.4694 9.89617 16.696 9.61617C16.9038 9.35948 17.1123 9.10337 17.3213 8.84766Z" fill="black"/>
<path d="M31.8835 4.58281C32.2132 4.85751 32.4273 5.16035 32.6255 5.53541C32.6961 5.67439 32.6961 5.67439 32.788 5.80781C32.8203 5.79851 32.8525 5.78921 32.8857 5.77963C32.929 5.76741 32.9724 5.75519 33.017 5.74259C33.0595 5.73049 33.102 5.71838 33.1458 5.70591C33.8534 5.53268 34.6126 5.57845 35.2468 5.95314C36.177 6.59004 36.564 7.6309 36.7763 8.69929C36.8271 8.97448 36.8675 9.25067 36.9035 9.52818C36.9115 9.58911 36.9115 9.58911 36.9197 9.65127C37.0073 10.3599 37.002 11.0725 37.0024 11.7854C37.0024 11.8326 37.0025 11.8797 37.0025 11.9284C37.0025 12.4239 36.9962 12.9187 36.9736 13.4137C36.9719 13.4527 36.9701 13.4916 36.9683 13.5317C36.9583 13.7278 36.9406 13.9173 36.9035 14.1106C36.8272 14.1118 36.7508 14.1127 36.6745 14.1134C36.632 14.114 36.5895 14.1145 36.5457 14.115C36.391 14.1101 36.2422 14.0895 36.0894 14.0652C36.0908 14.0316 36.0922 13.998 36.0936 13.9633C36.3638 10.3352 36.3638 10.3352 35.069 7.08952C34.8007 6.81379 34.5035 6.64055 34.1131 6.61243C33.7517 6.61385 33.4132 6.631 33.0594 6.71522C33.0709 6.76166 33.0824 6.80809 33.0942 6.85594C33.3581 7.97623 33.3882 9.09141 33.3873 10.2371C33.3872 10.2917 33.3872 10.3462 33.3872 10.4024C33.3862 10.935 33.3808 11.4671 33.3555 11.9991C33.3537 12.0361 33.352 12.0731 33.3502 12.1112C33.3415 12.271 33.3244 12.412 33.2855 12.568C33.0169 12.553 32.7482 12.5381 32.4715 12.5226C32.4747 12.4591 32.478 12.3955 32.4814 12.33C32.716 9.68734 32.716 9.68734 32.2001 7.16892C31.7214 7.45185 31.282 7.76058 30.8589 8.12199C30.777 8.19191 30.6947 8.26125 30.6121 8.33036C30.2451 8.63942 29.8997 8.9647 29.5627 9.30638C29.4827 9.38756 29.4022 9.46835 29.3217 9.54909C29.2697 9.60153 29.2177 9.65399 29.1656 9.70647C29.1421 9.73016 29.1185 9.75384 29.0943 9.77824C28.9446 9.93029 28.807 10.0883 28.6726 10.2541C28.2926 10.1404 27.9436 9.97235 27.5872 9.8004C27.6135 9.65571 27.6527 9.58165 27.7564 9.47841C27.7824 9.4522 27.8084 9.42599 27.8351 9.39898C27.8634 9.37115 27.8917 9.34331 27.9209 9.31462C27.9501 9.28542 27.9793 9.25622 28.0094 9.22613C28.0713 9.16431 28.1334 9.10265 28.1956 9.04115C28.2899 8.94801 28.3836 8.8544 28.4773 8.7607C28.5377 8.7005 28.5982 8.64033 28.6586 8.58019C28.6863 8.55263 28.714 8.52506 28.7425 8.49666C28.9386 8.30308 29.1422 8.11993 29.351 7.94022C29.381 7.91433 29.4111 7.88845 29.442 7.86178C30.1816 7.22719 30.966 6.65372 31.8383 6.21615C31.7142 5.79079 31.4536 5.44805 31.0734 5.22154C30.5826 4.96704 30.0754 5.02414 29.5582 5.17121C28.5567 5.50726 27.706 6.15227 26.9145 6.83715C26.8871 6.86085 26.8597 6.88455 26.8314 6.90896C26.5926 7.11815 26.3704 7.34181 26.1513 7.57158C26.0496 7.668 26.0496 7.668 25.9139 7.71337C25.9139 7.74331 25.9139 7.77326 25.9139 7.80411C25.8407 7.88186 25.7648 7.95704 25.6878 8.03096C25.6423 8.07633 25.597 8.12182 25.5517 8.16743C25.371 8.34879 25.1902 8.53015 25.0094 8.71152C24.6661 8.56179 24.3229 8.41207 23.9692 8.25781C24.0139 8.07877 24.0347 8.03831 24.1546 7.91257C24.1975 7.86708 24.1975 7.86708 24.2413 7.82067C24.2718 7.789 24.3024 7.75734 24.3339 7.72471C24.3649 7.69214 24.3958 7.65956 24.4278 7.626C24.5158 7.53377 24.6042 7.44201 24.6928 7.3504C24.73 7.31175 24.7672 7.27309 24.8055 7.23326C24.9704 7.0649 25.1422 6.90713 25.3205 6.75332C25.4266 6.661 25.5303 6.56627 25.6341 6.47135C27.1446 5.10953 29.8797 3.05074 31.8835 4.58281Z" fill="black"/>
</svg>
