<svg width="25" height="24" viewBox="0 0 25 24" fill="none" xmlns="http://www.w3.org/2000/svg">
<path d="M2.51477 12C2.51477 7.52166 2.51477 5.28249 3.91423 3.89124C5.31369 2.5 7.56608 2.5 12.0709 2.5C16.5756 2.5 18.828 2.5 20.2275 3.89124C21.627 5.28249 21.627 7.52166 21.627 12C21.627 16.4783 21.627 18.7175 20.2275 20.1088C18.828 21.5 16.5756 21.5 12.0709 21.5C7.56608 21.5 5.31369 21.5 3.91423 20.1088C2.51477 18.7175 2.51477 16.4783 2.51477 12Z" stroke="#FAFAFA" stroke-width="1.5" stroke-linecap="round" stroke-linejoin="round"/>
<path d="M21.627 13.5H16.6722C15.8251 13.5 15.1596 14.2036 14.7863 14.9472C14.3807 15.7551 13.5686 16.5 12.0709 16.5C10.5732 16.5 9.76104 15.7551 9.35547 14.9472C8.98215 14.2036 8.3166 13.5 7.46952 13.5H2.51477" stroke="#FAFAFA" stroke-width="1.5" stroke-linejoin="round"/>
</svg>
