<svg width="16" height="16" viewBox="0 0 16 16" fill="none" xmlns="http://www.w3.org/2000/svg">
<path d="M1.68678 9.84674C1.54502 10.7761 2.17884 11.4211 2.95487 11.7426C5.93004 12.9751 10.0703 12.9751 13.0454 11.7426C13.8215 11.4211 14.4553 10.7761 14.3136 9.84674C14.2264 9.27561 13.7956 8.80001 13.4764 8.33561C13.0584 7.71987 13.0168 7.04821 13.0168 6.33367C13.0168 3.57225 10.7708 1.33367 8.00017 1.33367C5.22959 1.33367 2.98359 3.57225 2.98359 6.33367C2.98352 7.04821 2.94198 7.71987 2.52391 8.33561C2.20473 8.80001 1.77391 9.27561 1.68678 9.84674Z" stroke="#FAFAFA" stroke-width="1.14844" stroke-linecap="round" stroke-linejoin="round"/>
<path d="M5.33316 12.6663C5.63882 13.8165 6.71683 14.6663 7.99983 14.6663C9.28283 14.6663 10.3608 13.8165 10.6665 12.6663" stroke="#FAFAFA" stroke-width="1.14844" stroke-linecap="round" stroke-linejoin="round"/>
</svg>
