<svg width="24" height="24" viewBox="0 0 24 24" fill="none" xmlns="http://www.w3.org/2000/svg">
<path d="M11.9988 22C11.1806 22 10.3991 21.6698 8.83601 21.0095C4.94513 19.3657 2.99969 18.5438 2.99969 17.1613C2.99969 16.7742 2.99969 10.0645 2.99969 7M11.9988 22C12.8169 22 13.5984 21.6698 15.1615 21.0095C19.0524 19.3657 20.9978 18.5438 20.9978 17.1613V7M11.9988 22V11.3548" stroke="#FAFAFA" stroke-width="1.5" stroke-linecap="round" stroke-linejoin="round"/>
<path d="M8.32506 9.69138L5.40416 8.27785C3.80118 7.5021 2.99969 7.11423 2.99969 6.5C2.99969 5.88577 3.80118 5.4979 5.40416 4.72215L8.32506 3.30862C10.1277 2.43621 11.0292 2 11.9988 2C12.9684 2 13.8698 2.4362 15.6725 3.30862L18.5934 4.72215C20.1963 5.4979 20.9978 5.88577 20.9978 6.5C20.9978 7.11423 20.1963 7.5021 18.5934 8.27785L15.6725 9.69138C13.8698 10.5638 12.9684 11 11.9988 11C11.0292 11 10.1277 10.5638 8.32506 9.69138Z" stroke="#FAFAFA" stroke-width="1.5" stroke-linecap="round" stroke-linejoin="round"/>
<path d="M5.99939 12L7.99918 13" stroke="#FAFAFA" stroke-width="1.5" stroke-linecap="round" stroke-linejoin="round"/>
<path d="M16.9982 4L6.99927 9" stroke="#FAFAFA" stroke-width="1.5" stroke-linecap="round" stroke-linejoin="round"/>
</svg>
