<svg width="184" height="14" viewBox="0 0 184 14" fill="none" xmlns="http://www.w3.org/2000/svg">
<path d="M3.67589 6.60565H1.0131V5.53095H3.67589C4.19157 5.53095 4.60913 5.44881 4.92857 5.28452C5.24802 5.12024 5.48075 4.89206 5.62679 4.6C5.77738 4.30794 5.85268 3.9748 5.85268 3.6006C5.85268 3.25833 5.77738 2.93661 5.62679 2.63542C5.48075 2.33423 5.24802 2.09236 4.92857 1.90982C4.60913 1.72272 4.19157 1.62917 3.67589 1.62917H1.32113V10.5143H0V0.547619H3.67589C4.42887 0.547619 5.06548 0.677679 5.58571 0.937798C6.10595 1.19792 6.50069 1.55843 6.76994 2.01935C7.03919 2.47569 7.17381 2.99821 7.17381 3.5869C7.17381 4.22579 7.03919 4.77113 6.76994 5.22292C6.50069 5.6747 6.10595 6.01925 5.58571 6.25655C5.06548 6.48929 4.42887 6.60565 3.67589 6.60565ZM10.0283 0V10.5143H8.75506V0H10.0283ZM16.4286 9.24792V5.43512C16.4286 5.14306 16.3692 4.88978 16.2506 4.6753C16.1365 4.45625 15.9631 4.2874 15.7304 4.16875C15.4976 4.0501 15.2101 3.99077 14.8679 3.99077C14.5484 3.99077 14.2678 4.04554 14.0259 4.15506C13.7886 4.26458 13.6015 4.40833 13.4646 4.58631C13.3322 4.76429 13.2661 4.95595 13.2661 5.16131H11.9997C11.9997 4.89663 12.0682 4.63423 12.2051 4.37411C12.342 4.11399 12.5382 3.87897 12.7938 3.66905C13.0539 3.45456 13.3642 3.28571 13.7247 3.1625C14.0898 3.03472 14.4959 2.97083 14.9432 2.97083C15.4816 2.97083 15.9563 3.0621 16.367 3.24464C16.7822 3.42718 17.1063 3.70327 17.339 4.07292C17.5763 4.438 17.6949 4.89663 17.6949 5.44881V8.89881C17.6949 9.14524 17.7155 9.40764 17.7565 9.68601C17.8022 9.96438 17.8684 10.204 17.9551 10.4048V10.5143H16.6339C16.57 10.3683 16.5198 10.1743 16.4833 9.93244C16.4468 9.68601 16.4286 9.45784 16.4286 9.24792ZM16.6476 6.02381L16.6613 6.91369H15.3813C15.0207 6.91369 14.699 6.94335 14.4161 7.00268C14.1331 7.05744 13.8958 7.14187 13.7042 7.25595C13.5125 7.37004 13.3665 7.51379 13.2661 7.6872C13.1657 7.85605 13.1155 8.05456 13.1155 8.28274C13.1155 8.51548 13.168 8.72768 13.2729 8.91935C13.3779 9.11101 13.5353 9.26389 13.7452 9.37798C13.9597 9.4875 14.2221 9.54226 14.5324 9.54226C14.9203 9.54226 15.2626 9.46012 15.5592 9.29583C15.8559 9.13155 16.0909 8.93075 16.2643 8.69345C16.4423 8.45615 16.5381 8.22569 16.5518 8.00208L17.0926 8.61131C17.0606 8.80298 16.9739 9.01518 16.8324 9.24792C16.691 9.48065 16.5016 9.70427 16.2643 9.91875C16.0315 10.1287 15.7532 10.3044 15.4292 10.4458C15.1097 10.5827 14.7492 10.6512 14.3476 10.6512C13.8456 10.6512 13.4053 10.5531 13.0265 10.3568C12.6523 10.1606 12.3602 9.89821 12.1503 9.56964C11.9449 9.23651 11.8423 8.86458 11.8423 8.45387C11.8423 8.05685 11.9198 7.70774 12.075 7.40655C12.2302 7.10079 12.4538 6.84752 12.7458 6.64673C13.0379 6.44137 13.3893 6.28621 13.8 6.18125C14.2107 6.07629 14.6693 6.02381 15.1759 6.02381H16.6476ZM20.9533 4.68899V10.5143H19.6869V3.10774H20.8848L20.9533 4.68899ZM20.6521 6.53036L20.125 6.50982C20.1296 6.00327 20.2049 5.53552 20.3509 5.10655C20.4969 4.67302 20.7023 4.29653 20.967 3.97708C21.2316 3.65764 21.5465 3.41121 21.9116 3.2378C22.2813 3.05982 22.6897 2.97083 23.1369 2.97083C23.502 2.97083 23.8306 3.02103 24.1226 3.12143C24.4147 3.21726 24.6634 3.37242 24.8688 3.5869C25.0787 3.80139 25.2384 4.07976 25.3479 4.42202C25.4574 4.75972 25.5122 5.17272 25.5122 5.66101V10.5143H24.239V5.64732C24.239 5.25942 24.1819 4.94911 24.0679 4.71637C23.9538 4.47907 23.7872 4.30794 23.5682 4.20298C23.3491 4.09345 23.0799 4.03869 22.7604 4.03869C22.4455 4.03869 22.158 4.10486 21.8979 4.2372C21.6424 4.36954 21.421 4.55208 21.2339 4.78482C21.0514 5.01756 20.9076 5.28452 20.8027 5.58571C20.7023 5.88234 20.6521 6.19722 20.6521 6.53036ZM35.7116 3.10774H36.8616V10.3568C36.8616 11.0094 36.7293 11.5662 36.4646 12.0271C36.1999 12.488 35.8303 12.8371 35.3557 13.0744C34.8856 13.3163 34.3426 13.4372 33.7265 13.4372C33.4709 13.4372 33.1697 13.3961 32.8229 13.314C32.4807 13.2364 32.143 13.1018 31.8098 12.9101C31.4813 12.723 31.2052 12.4697 30.9815 12.1503L31.6455 11.3973C31.9559 11.7715 32.2799 12.0316 32.6176 12.1777C32.9598 12.3237 33.2975 12.3967 33.6307 12.3967C34.0322 12.3967 34.3791 12.3214 34.6711 12.1708C34.9632 12.0202 35.1891 11.7966 35.3488 11.5C35.5131 11.2079 35.5952 10.8474 35.5952 10.4185V4.7369L35.7116 3.10774ZM30.6119 6.89315V6.7494C30.6119 6.18353 30.6781 5.67014 30.8104 5.20923C30.9473 4.74375 31.1413 4.34444 31.3923 4.01131C31.6478 3.67817 31.9559 3.42262 32.3164 3.24464C32.6769 3.0621 33.083 2.97083 33.5348 2.97083C34.0003 2.97083 34.4064 3.05298 34.7533 3.21726C35.1047 3.37698 35.4013 3.612 35.6432 3.92232C35.8896 4.22808 36.0835 4.59772 36.225 5.03125C36.3665 5.46478 36.4646 5.95536 36.5193 6.50298V7.13274C36.4691 7.67579 36.371 8.16409 36.225 8.59762C36.0835 9.03115 35.8896 9.40079 35.6432 9.70655C35.4013 10.0123 35.1047 10.2473 34.7533 10.4116C34.4019 10.5713 33.9912 10.6512 33.5211 10.6512C33.0785 10.6512 32.6769 10.5576 32.3164 10.3705C31.9604 10.1834 31.6547 9.92103 31.3991 9.58333C31.1436 9.24563 30.9473 8.84861 30.8104 8.39226C30.6781 7.93135 30.6119 7.43165 30.6119 6.89315ZM31.8783 6.7494V6.89315C31.8783 7.2628 31.9148 7.60962 31.9878 7.93363C32.0654 8.25764 32.1817 8.54286 32.3369 8.78929C32.4966 9.03571 32.6997 9.22966 32.9461 9.37113C33.1926 9.50804 33.4869 9.57649 33.8292 9.57649C34.249 9.57649 34.5958 9.4875 34.8696 9.30952C35.1435 9.13155 35.3602 8.89653 35.5199 8.60446C35.6842 8.3124 35.812 7.99524 35.9033 7.65298V6.00327C35.8531 5.75228 35.7755 5.51042 35.6705 5.27768C35.5701 5.04038 35.4378 4.83046 35.2735 4.64792C35.1138 4.46081 34.9153 4.3125 34.678 4.20298C34.4407 4.09345 34.1623 4.03869 33.8429 4.03869C33.496 4.03869 33.1971 4.11171 32.9461 4.25774C32.6997 4.39921 32.4966 4.59544 32.3369 4.84643C32.1817 5.09286 32.0654 5.38036 31.9878 5.70893C31.9148 6.03294 31.8783 6.37976 31.8783 6.7494ZM40.0515 4.27143V10.5143H38.7851V3.10774H40.0173L40.0515 4.27143ZM42.3652 3.06667L42.3583 4.24405C42.2534 4.22123 42.153 4.20754 42.0571 4.20298C41.9659 4.19385 41.8609 4.18929 41.7423 4.18929C41.4502 4.18929 41.1924 4.23492 40.9688 4.32619C40.7451 4.41746 40.5558 4.54524 40.4006 4.70952C40.2454 4.87381 40.1222 5.07004 40.031 5.29821C39.9442 5.52183 39.8872 5.76825 39.8598 6.0375L39.5039 6.24286C39.5039 5.79563 39.5472 5.37579 39.6339 4.98333C39.7252 4.59087 39.8644 4.24405 40.0515 3.94286C40.2386 3.6371 40.4759 3.3998 40.7634 3.23095C41.0555 3.05754 41.4023 2.97083 41.8039 2.97083C41.8951 2.97083 42.0001 2.98224 42.1188 3.00506C42.2374 3.02331 42.3195 3.04385 42.3652 3.06667ZM47.6292 9.24792V5.43512C47.6292 5.14306 47.5698 4.88978 47.4512 4.6753C47.3371 4.45625 47.1637 4.2874 46.931 4.16875C46.6982 4.0501 46.4107 3.99077 46.0685 3.99077C45.749 3.99077 45.4684 4.04554 45.2265 4.15506C44.9892 4.26458 44.8021 4.40833 44.6652 4.58631C44.5328 4.76429 44.4667 4.95595 44.4667 5.16131H43.2003C43.2003 4.89663 43.2688 4.63423 43.4057 4.37411C43.5426 4.11399 43.7388 3.87897 43.9943 3.66905C44.2545 3.45456 44.5648 3.28571 44.9253 3.1625C45.2904 3.03472 45.6965 2.97083 46.1438 2.97083C46.6822 2.97083 47.1568 3.0621 47.5676 3.24464C47.9828 3.42718 48.3068 3.70327 48.5396 4.07292C48.7769 4.438 48.8955 4.89663 48.8955 5.44881V8.89881C48.8955 9.14524 48.9161 9.40764 48.9571 9.68601C49.0028 9.96438 49.0689 10.204 49.1557 10.4048V10.5143H47.8345C47.7706 10.3683 47.7204 10.1743 47.6839 9.93244C47.6474 9.68601 47.6292 9.45784 47.6292 9.24792ZM47.8482 6.02381L47.8619 6.91369H46.5818C46.2213 6.91369 45.8996 6.94335 45.6167 7.00268C45.3337 7.05744 45.0964 7.14187 44.9048 7.25595C44.7131 7.37004 44.5671 7.51379 44.4667 7.6872C44.3663 7.85605 44.3161 8.05456 44.3161 8.28274C44.3161 8.51548 44.3686 8.72768 44.4735 8.91935C44.5785 9.11101 44.7359 9.26389 44.9458 9.37798C45.1603 9.4875 45.4227 9.54226 45.733 9.54226C46.1209 9.54226 46.4632 9.46012 46.7598 9.29583C47.0564 9.13155 47.2915 8.93075 47.4649 8.69345C47.6429 8.45615 47.7387 8.22569 47.7524 8.00208L48.2932 8.61131C48.2612 8.80298 48.1745 9.01518 48.033 9.24792C47.8916 9.48065 47.7022 9.70427 47.4649 9.91875C47.2321 10.1287 46.9538 10.3044 46.6298 10.4458C46.3103 10.5827 45.9498 10.6512 45.5482 10.6512C45.0462 10.6512 44.6059 10.5531 44.2271 10.3568C43.8529 10.1606 43.5608 9.89821 43.3509 9.56964C43.1455 9.23651 43.0429 8.86458 43.0429 8.45387C43.0429 8.05685 43.1204 7.70774 43.2756 7.40655C43.4308 7.10079 43.6544 6.84752 43.9464 6.64673C44.2385 6.44137 44.5899 6.28621 45.0006 6.18125C45.4113 6.07629 45.8699 6.02381 46.3765 6.02381H47.8482ZM53.9884 3.10774V4.07976H49.9839V3.10774H53.9884ZM51.3393 1.30744H52.6057V8.67976C52.6057 8.93075 52.6444 9.12014 52.722 9.24792C52.7996 9.37569 52.9 9.46012 53.0232 9.50119C53.1464 9.54226 53.2788 9.5628 53.4202 9.5628C53.5252 9.5628 53.6347 9.55367 53.7488 9.53542C53.8675 9.5126 53.9564 9.49435 54.0158 9.48065L54.0226 10.5143C53.9222 10.5462 53.7899 10.5759 53.6256 10.6033C53.4659 10.6352 53.2719 10.6512 53.0438 10.6512C52.7334 10.6512 52.4482 10.5896 52.1881 10.4664C51.928 10.3432 51.7203 10.1378 51.5652 9.8503C51.4146 9.55823 51.3393 9.16577 51.3393 8.67292V1.30744ZM60.0054 8.80298V3.10774H61.2786V10.5143H60.067L60.0054 8.80298ZM60.2449 7.24226L60.772 7.22857C60.772 7.72143 60.7195 8.17778 60.6146 8.59762C60.5142 9.0129 60.3499 9.37341 60.1217 9.67917C59.8936 9.98492 59.5946 10.2245 59.225 10.3979C58.8554 10.5668 58.4059 10.6512 57.8765 10.6512C57.516 10.6512 57.1851 10.5987 56.8839 10.4938C56.5873 10.3888 56.3317 10.2268 56.1173 10.0077C55.9028 9.78869 55.7362 9.50347 55.6176 9.15208C55.5035 8.80069 55.4464 8.37857 55.4464 7.88571V3.10774H56.7128V7.8994C56.7128 8.23254 56.7493 8.50863 56.8223 8.72768C56.8999 8.94216 57.0026 9.11329 57.1304 9.24107C57.2627 9.36429 57.4087 9.45099 57.5685 9.50119C57.7327 9.55139 57.9016 9.57649 58.075 9.57649C58.6135 9.57649 59.0402 9.47381 59.3551 9.26845C59.6699 9.05853 59.8958 8.77788 60.0327 8.42649C60.1742 8.07054 60.2449 7.67579 60.2449 7.24226ZM64.5848 3.10774V10.5143H63.3116V3.10774H64.5848ZM63.2158 1.14315C63.2158 0.937798 63.2774 0.764385 63.4006 0.622917C63.5284 0.481448 63.7155 0.410714 63.9619 0.410714C64.2038 0.410714 64.3886 0.481448 64.5164 0.622917C64.6487 0.764385 64.7149 0.937798 64.7149 1.14315C64.7149 1.33938 64.6487 1.50823 64.5164 1.6497C64.3886 1.78661 64.2038 1.85506 63.9619 1.85506C63.7155 1.85506 63.5284 1.78661 63.4006 1.6497C63.2774 1.50823 63.2158 1.33938 63.2158 1.14315ZM69.7188 3.10774V4.07976H65.7143V3.10774H69.7188ZM67.0696 1.30744H68.336V8.67976C68.336 8.93075 68.3748 9.12014 68.4524 9.24792C68.53 9.37569 68.6304 9.46012 68.7536 9.50119C68.8768 9.54226 69.0091 9.5628 69.1506 9.5628C69.2556 9.5628 69.3651 9.55367 69.4792 9.53542C69.5978 9.5126 69.6868 9.49435 69.7461 9.48065L69.753 10.5143C69.6526 10.5462 69.5202 10.5759 69.356 10.6033C69.1962 10.6352 69.0023 10.6512 68.7741 10.6512C68.4638 10.6512 68.1786 10.5896 67.9185 10.4664C67.6583 10.3432 67.4507 10.1378 67.2955 9.8503C67.1449 9.55823 67.0696 9.16577 67.0696 8.67292V1.30744ZM70.7318 6.89315V6.73571C70.7318 6.20179 70.8094 5.70665 70.9646 5.2503C71.1197 4.78938 71.3434 4.39008 71.6354 4.05238C71.9275 3.71012 72.2812 3.44544 72.6964 3.25833C73.1117 3.06667 73.5772 2.97083 74.0929 2.97083C74.6131 2.97083 75.0809 3.06667 75.4961 3.25833C75.916 3.44544 76.2719 3.71012 76.564 4.05238C76.8606 4.39008 77.0865 4.78938 77.2417 5.2503C77.3968 5.70665 77.4744 6.20179 77.4744 6.73571V6.89315C77.4744 7.42708 77.3968 7.92222 77.2417 8.37857C77.0865 8.83492 76.8606 9.23423 76.564 9.57649C76.2719 9.91419 75.9183 10.1789 75.503 10.3705C75.0923 10.5576 74.6268 10.6512 74.1065 10.6512C73.5863 10.6512 73.1186 10.5576 72.7033 10.3705C72.288 10.1789 71.932 9.91419 71.6354 9.57649C71.3434 9.23423 71.1197 8.83492 70.9646 8.37857C70.8094 7.92222 70.7318 7.42708 70.7318 6.89315ZM71.9982 6.73571V6.89315C71.9982 7.2628 72.0416 7.6119 72.1283 7.94048C72.215 8.26448 72.345 8.55198 72.5185 8.80298C72.6964 9.05397 72.9178 9.25248 73.1824 9.39851C73.4471 9.53998 73.7552 9.61071 74.1065 9.61071C74.4534 9.61071 74.7568 9.53998 75.017 9.39851C75.2816 9.25248 75.5007 9.05397 75.6741 8.80298C75.8475 8.55198 75.9776 8.26448 76.0643 7.94048C76.1556 7.6119 76.2012 7.2628 76.2012 6.89315V6.73571C76.2012 6.37063 76.1556 6.02609 76.0643 5.70208C75.9776 5.37351 75.8452 5.08373 75.6673 4.83274C75.4938 4.57718 75.2748 4.37639 75.0101 4.23036C74.75 4.08433 74.4442 4.01131 74.0929 4.01131C73.746 4.01131 73.4403 4.08433 73.1756 4.23036C72.9155 4.37639 72.6964 4.57718 72.5185 4.83274C72.345 5.08373 72.215 5.37351 72.1283 5.70208C72.0416 6.02609 71.9982 6.37063 71.9982 6.73571Z" fill="black" fill-opacity="0.85"/>
<path d="M92.2259 7.34494H93.5402C93.4717 7.9747 93.2915 8.53829 92.9994 9.03571C92.7073 9.53313 92.2943 9.92788 91.7604 10.2199C91.2265 10.5074 90.5602 10.6512 89.7616 10.6512C89.1775 10.6512 88.6458 10.5417 88.1667 10.3226C87.6921 10.1036 87.2836 9.79325 86.9414 9.39167C86.5991 8.98552 86.3344 8.4995 86.1473 7.93363C85.9648 7.36319 85.8735 6.72887 85.8735 6.03065V5.0381C85.8735 4.33988 85.9648 3.70784 86.1473 3.14196C86.3344 2.57153 86.6014 2.08323 86.9482 1.67708C87.2996 1.27093 87.7217 0.958333 88.2146 0.739286C88.7074 0.520238 89.2619 0.410714 89.878 0.410714C90.631 0.410714 91.2676 0.552183 91.7878 0.835119C92.308 1.11806 92.7119 1.51052 92.9994 2.0125C93.2915 2.50992 93.4717 3.0872 93.5402 3.74435H92.2259C92.162 3.27887 92.0434 2.87956 91.8699 2.54643C91.6965 2.20873 91.4501 1.94861 91.1307 1.76607C90.8112 1.58353 90.3937 1.49226 89.878 1.49226C89.4353 1.49226 89.0451 1.57669 88.7074 1.74554C88.3743 1.91438 88.0937 2.15397 87.8655 2.46429C87.6419 2.7746 87.473 3.14653 87.3589 3.58006C87.2448 4.01359 87.1878 4.49504 87.1878 5.0244V6.03065C87.1878 6.51895 87.238 6.97758 87.3384 7.40655C87.4434 7.83552 87.6008 8.212 87.8107 8.53601C88.0206 8.86002 88.2876 9.11558 88.6116 9.30268C88.9356 9.48522 89.3189 9.57649 89.7616 9.57649C90.3229 9.57649 90.7701 9.4875 91.1033 9.30952C91.4364 9.13155 91.6874 8.87599 91.8563 8.54286C92.0297 8.20972 92.1529 7.81042 92.2259 7.34494ZM94.8134 6.89315V6.73571C94.8134 6.20179 94.891 5.70665 95.0461 5.2503C95.2013 4.78938 95.4249 4.39008 95.717 4.05238C96.009 3.71012 96.3627 3.44544 96.778 3.25833C97.1933 3.06667 97.6587 2.97083 98.1744 2.97083C98.6946 2.97083 99.1624 3.06667 99.5777 3.25833C99.9975 3.44544 100.353 3.71012 100.646 4.05238C100.942 4.39008 101.168 4.78938 101.323 5.2503C101.478 5.70665 101.556 6.20179 101.556 6.73571V6.89315C101.556 7.42708 101.478 7.92222 101.323 8.37857C101.168 8.83492 100.942 9.23423 100.646 9.57649C100.353 9.91419 99.9998 10.1789 99.5845 10.3705C99.1738 10.5576 98.7083 10.6512 98.1881 10.6512C97.6679 10.6512 97.2001 10.5576 96.7848 10.3705C96.3695 10.1789 96.0136 9.91419 95.717 9.57649C95.4249 9.23423 95.2013 8.83492 95.0461 8.37857C94.891 7.92222 94.8134 7.42708 94.8134 6.89315ZM96.0798 6.73571V6.89315C96.0798 7.2628 96.1231 7.6119 96.2098 7.94048C96.2965 8.26448 96.4266 8.55198 96.6 8.80298C96.778 9.05397 96.9993 9.25248 97.264 9.39851C97.5287 9.53998 97.8367 9.61071 98.1881 9.61071C98.5349 9.61071 98.8384 9.53998 99.0985 9.39851C99.3632 9.25248 99.5822 9.05397 99.7557 8.80298C99.9291 8.55198 100.059 8.26448 100.146 7.94048C100.237 7.6119 100.283 7.2628 100.283 6.89315V6.73571C100.283 6.37063 100.237 6.02609 100.146 5.70208C100.059 5.37351 99.9268 5.08373 99.7488 4.83274C99.5754 4.57718 99.3563 4.37639 99.0917 4.23036C98.8315 4.08433 98.5258 4.01131 98.1744 4.01131C97.8276 4.01131 97.5218 4.08433 97.2571 4.23036C96.997 4.37639 96.778 4.57718 96.6 4.83274C96.4266 5.08373 96.2965 5.37351 96.2098 5.70208C96.1231 6.02609 96.0798 6.37063 96.0798 6.73571ZM104.404 4.57946V10.5143H103.13V3.10774H104.335L104.404 4.57946ZM104.143 6.53036L103.555 6.50982C103.559 6.00327 103.625 5.53552 103.753 5.10655C103.881 4.67302 104.07 4.29653 104.321 3.97708C104.572 3.65764 104.885 3.41121 105.259 3.2378C105.633 3.05982 106.067 2.97083 106.56 2.97083C106.907 2.97083 107.226 3.02103 107.518 3.12143C107.81 3.21726 108.063 3.37014 108.278 3.58006C108.492 3.78998 108.659 4.05923 108.778 4.3878C108.896 4.71637 108.956 5.11339 108.956 5.57887V10.5143H107.689V5.64048C107.689 5.25258 107.623 4.94226 107.491 4.70952C107.363 4.47679 107.18 4.30794 106.943 4.20298C106.706 4.09345 106.427 4.03869 106.108 4.03869C105.734 4.03869 105.421 4.10486 105.17 4.2372C104.919 4.36954 104.718 4.55208 104.568 4.78482C104.417 5.01756 104.308 5.28452 104.239 5.58571C104.175 5.88234 104.143 6.19722 104.143 6.53036ZM108.942 5.83214L108.093 6.09226C108.098 5.68611 108.164 5.29593 108.292 4.92173C108.424 4.54752 108.613 4.21438 108.86 3.92232C109.111 3.63026 109.419 3.3998 109.784 3.23095C110.149 3.05754 110.567 2.97083 111.037 2.97083C111.434 2.97083 111.785 3.02331 112.091 3.12827C112.401 3.23323 112.661 3.39524 112.871 3.61429C113.086 3.82877 113.248 4.10486 113.357 4.44256C113.467 4.78026 113.521 5.18185 113.521 5.64732V10.5143H112.248V5.63363C112.248 5.21835 112.182 4.89663 112.05 4.66845C111.922 4.43571 111.739 4.27371 111.502 4.18244C111.269 4.08661 110.991 4.03869 110.667 4.03869C110.389 4.03869 110.142 4.08661 109.928 4.18244C109.713 4.27827 109.533 4.41062 109.387 4.57946C109.241 4.74375 109.129 4.93313 109.051 5.14762C108.978 5.3621 108.942 5.59028 108.942 5.83214ZM116.704 4.53155V13.3619H115.431V3.10774H116.595L116.704 4.53155ZM121.695 6.7494V6.89315C121.695 7.43165 121.631 7.93135 121.503 8.39226C121.375 8.84861 121.188 9.24563 120.942 9.58333C120.7 9.92103 120.401 10.1834 120.045 10.3705C119.689 10.5576 119.281 10.6512 118.82 10.6512C118.35 10.6512 117.934 10.5736 117.574 10.4185C117.213 10.2633 116.908 10.0374 116.657 9.74077C116.406 9.44415 116.205 9.08819 116.054 8.67292C115.908 8.25764 115.808 7.78988 115.753 7.26964V6.50298C115.808 5.95536 115.91 5.46478 116.061 5.03125C116.212 4.59772 116.41 4.22808 116.657 3.92232C116.908 3.612 117.211 3.37698 117.567 3.21726C117.923 3.05298 118.334 2.97083 118.799 2.97083C119.265 2.97083 119.678 3.0621 120.038 3.24464C120.399 3.42262 120.702 3.67817 120.949 4.01131C121.195 4.34444 121.38 4.74375 121.503 5.20923C121.631 5.67014 121.695 6.18353 121.695 6.7494ZM120.421 6.89315V6.7494C120.421 6.37976 120.383 6.03294 120.305 5.70893C120.227 5.38036 120.107 5.09286 119.942 4.84643C119.783 4.59544 119.577 4.39921 119.326 4.25774C119.075 4.11171 118.776 4.03869 118.429 4.03869C118.11 4.03869 117.832 4.09345 117.594 4.20298C117.362 4.3125 117.163 4.46081 116.999 4.64792C116.835 4.83046 116.7 5.04038 116.595 5.27768C116.495 5.51042 116.419 5.75228 116.369 6.00327V7.77619C116.46 8.09563 116.588 8.39683 116.752 8.67976C116.917 8.95813 117.136 9.18403 117.41 9.35744C117.683 9.52629 118.028 9.61071 118.443 9.61071C118.785 9.61071 119.08 9.53998 119.326 9.39851C119.577 9.25248 119.783 9.05397 119.942 8.80298C120.107 8.55198 120.227 8.26448 120.305 7.94048C120.383 7.6119 120.421 7.2628 120.421 6.89315ZM124.576 4.27143V10.5143H123.31V3.10774H124.542L124.576 4.27143ZM126.89 3.06667L126.883 4.24405C126.778 4.22123 126.678 4.20754 126.582 4.20298C126.491 4.19385 126.386 4.18929 126.267 4.18929C125.975 4.18929 125.717 4.23492 125.494 4.32619C125.27 4.41746 125.081 4.54524 124.926 4.70952C124.77 4.87381 124.647 5.07004 124.556 5.29821C124.469 5.52183 124.412 5.76825 124.385 6.0375L124.029 6.24286C124.029 5.79563 124.072 5.37579 124.159 4.98333C124.25 4.59087 124.389 4.24405 124.576 3.94286C124.764 3.6371 125.001 3.3998 125.288 3.23095C125.58 3.05754 125.927 2.97083 126.329 2.97083C126.42 2.97083 126.525 2.98224 126.644 3.00506C126.762 3.02331 126.845 3.04385 126.89 3.06667ZM132.154 9.24792V5.43512C132.154 5.14306 132.095 4.88978 131.976 4.6753C131.862 4.45625 131.689 4.2874 131.456 4.16875C131.223 4.0501 130.936 3.99077 130.593 3.99077C130.274 3.99077 129.993 4.04554 129.751 4.15506C129.514 4.26458 129.327 4.40833 129.19 4.58631C129.058 4.76429 128.992 4.95595 128.992 5.16131H127.725C127.725 4.89663 127.794 4.63423 127.931 4.37411C128.068 4.11399 128.264 3.87897 128.519 3.66905C128.779 3.45456 129.09 3.28571 129.45 3.1625C129.815 3.03472 130.222 2.97083 130.669 2.97083C131.207 2.97083 131.682 3.0621 132.093 3.24464C132.508 3.42718 132.832 3.70327 133.065 4.07292C133.302 4.438 133.421 4.89663 133.421 5.44881V8.89881C133.421 9.14524 133.441 9.40764 133.482 9.68601C133.528 9.96438 133.594 10.204 133.681 10.4048V10.5143H132.36C132.296 10.3683 132.245 10.1743 132.209 9.93244C132.172 9.68601 132.154 9.45784 132.154 9.24792ZM132.373 6.02381L132.387 6.91369H131.107C130.746 6.91369 130.425 6.94335 130.142 7.00268C129.859 7.05744 129.621 7.14187 129.43 7.25595C129.238 7.37004 129.092 7.51379 128.992 7.6872C128.891 7.85605 128.841 8.05456 128.841 8.28274C128.841 8.51548 128.894 8.72768 128.999 8.91935C129.103 9.11101 129.261 9.26389 129.471 9.37798C129.685 9.4875 129.948 9.54226 130.258 9.54226C130.646 9.54226 130.988 9.46012 131.285 9.29583C131.581 9.13155 131.816 8.93075 131.99 8.69345C132.168 8.45615 132.264 8.22569 132.277 8.00208L132.818 8.61131C132.786 8.80298 132.7 9.01518 132.558 9.24792C132.417 9.48065 132.227 9.70427 131.99 9.91875C131.757 10.1287 131.479 10.3044 131.155 10.4458C130.835 10.5827 130.475 10.6512 130.073 10.6512C129.571 10.6512 129.131 10.5531 128.752 10.3568C128.378 10.1606 128.086 9.89821 127.876 9.56964C127.671 9.23651 127.568 8.86458 127.568 8.45387C127.568 8.05685 127.645 7.70774 127.801 7.40655C127.956 7.10079 128.179 6.84752 128.471 6.64673C128.763 6.44137 129.115 6.28621 129.526 6.18125C129.936 6.07629 130.395 6.02381 130.901 6.02381H132.373ZM136.679 4.27143V10.5143H135.413V3.10774H136.645L136.679 4.27143ZM138.993 3.06667L138.986 4.24405C138.881 4.22123 138.78 4.20754 138.685 4.20298C138.593 4.19385 138.488 4.18929 138.37 4.18929C138.078 4.18929 137.82 4.23492 137.596 4.32619C137.373 4.41746 137.183 4.54524 137.028 4.70952C136.873 4.87381 136.75 5.07004 136.658 5.29821C136.572 5.52183 136.515 5.76825 136.487 6.0375L136.131 6.24286C136.131 5.79563 136.175 5.37579 136.261 4.98333C136.353 4.59087 136.492 4.24405 136.679 3.94286C136.866 3.6371 137.103 3.3998 137.391 3.23095C137.683 3.05754 138.03 2.97083 138.431 2.97083C138.523 2.97083 138.627 2.98224 138.746 3.00506C138.865 3.02331 138.947 3.04385 138.993 3.06667ZM144.907 4.53155V13.3619H143.634V3.10774H144.797L144.907 4.53155ZM149.897 6.7494V6.89315C149.897 7.43165 149.833 7.93135 149.705 8.39226C149.578 8.84861 149.39 9.24563 149.144 9.58333C148.902 9.92103 148.603 10.1834 148.247 10.3705C147.891 10.5576 147.483 10.6512 147.022 10.6512C146.552 10.6512 146.137 10.5736 145.776 10.4185C145.416 10.2633 145.11 10.0374 144.859 9.74077C144.608 9.44415 144.407 9.08819 144.257 8.67292C144.111 8.25764 144.01 7.78988 143.955 7.26964V6.50298C144.01 5.95536 144.113 5.46478 144.263 5.03125C144.414 4.59772 144.613 4.22808 144.859 3.92232C145.11 3.612 145.413 3.37698 145.769 3.21726C146.125 3.05298 146.536 2.97083 147.001 2.97083C147.467 2.97083 147.88 3.0621 148.24 3.24464C148.601 3.42262 148.904 3.67817 149.151 4.01131C149.397 4.34444 149.582 4.74375 149.705 5.20923C149.833 5.67014 149.897 6.18353 149.897 6.7494ZM148.624 6.89315V6.7494C148.624 6.37976 148.585 6.03294 148.507 5.70893C148.43 5.38036 148.309 5.09286 148.145 4.84643C147.985 4.59544 147.78 4.39921 147.529 4.25774C147.278 4.11171 146.979 4.03869 146.632 4.03869C146.312 4.03869 146.034 4.09345 145.797 4.20298C145.564 4.3125 145.365 4.46081 145.201 4.64792C145.037 4.83046 144.902 5.04038 144.797 5.27768C144.697 5.51042 144.622 5.75228 144.571 6.00327V7.77619C144.663 8.09563 144.79 8.39683 144.955 8.67976C145.119 8.95813 145.338 9.18403 145.612 9.35744C145.886 9.52629 146.23 9.61071 146.646 9.61071C146.988 9.61071 147.282 9.53998 147.529 9.39851C147.78 9.25248 147.985 9.05397 148.145 8.80298C148.309 8.55198 148.43 8.26448 148.507 7.94048C148.585 7.6119 148.624 7.2628 148.624 6.89315ZM152.888 0V10.5143H151.615V0H152.888ZM159.289 9.24792V5.43512C159.289 5.14306 159.229 4.88978 159.111 4.6753C158.997 4.45625 158.823 4.2874 158.59 4.16875C158.358 4.0501 158.07 3.99077 157.728 3.99077C157.409 3.99077 157.128 4.04554 156.886 4.15506C156.649 4.26458 156.462 4.40833 156.325 4.58631C156.192 4.76429 156.126 4.95595 156.126 5.16131H154.86C154.86 4.89663 154.928 4.63423 155.065 4.37411C155.202 4.11399 155.398 3.87897 155.654 3.66905C155.914 3.45456 156.224 3.28571 156.585 3.1625C156.95 3.03472 157.356 2.97083 157.803 2.97083C158.342 2.97083 158.816 3.0621 159.227 3.24464C159.642 3.42718 159.966 3.70327 160.199 4.07292C160.436 4.438 160.555 4.89663 160.555 5.44881V8.89881C160.555 9.14524 160.576 9.40764 160.617 9.68601C160.662 9.96438 160.728 10.204 160.815 10.4048V10.5143H159.494C159.43 10.3683 159.38 10.1743 159.343 9.93244C159.307 9.68601 159.289 9.45784 159.289 9.24792ZM159.508 6.02381L159.521 6.91369H158.241C157.881 6.91369 157.559 6.94335 157.276 7.00268C156.993 7.05744 156.756 7.14187 156.564 7.25595C156.373 7.37004 156.227 7.51379 156.126 7.6872C156.026 7.85605 155.976 8.05456 155.976 8.28274C155.976 8.51548 156.028 8.72768 156.133 8.91935C156.238 9.11101 156.395 9.26389 156.605 9.37798C156.82 9.4875 157.082 9.54226 157.393 9.54226C157.78 9.54226 158.123 9.46012 158.419 9.29583C158.716 9.13155 158.951 8.93075 159.124 8.69345C159.302 8.45615 159.398 8.22569 159.412 8.00208L159.953 8.61131C159.921 8.80298 159.834 9.01518 159.693 9.24792C159.551 9.48065 159.362 9.70427 159.124 9.91875C158.892 10.1287 158.613 10.3044 158.289 10.4458C157.97 10.5827 157.609 10.6512 157.208 10.6512C156.706 10.6512 156.265 10.5531 155.887 10.3568C155.512 10.1606 155.22 9.89821 155.01 9.56964C154.805 9.23651 154.702 8.86458 154.702 8.45387C154.702 8.05685 154.78 7.70774 154.935 7.40655C155.09 7.10079 155.314 6.84752 155.606 6.64673C155.898 6.44137 156.249 6.28621 156.66 6.18125C157.071 6.07629 157.529 6.02381 158.036 6.02381H159.508ZM163.813 4.68899V10.5143H162.547V3.10774H163.745L163.813 4.68899ZM163.512 6.53036L162.985 6.50982C162.99 6.00327 163.065 5.53552 163.211 5.10655C163.357 4.67302 163.562 4.29653 163.827 3.97708C164.092 3.65764 164.407 3.41121 164.772 3.2378C165.141 3.05982 165.55 2.97083 165.997 2.97083C166.362 2.97083 166.691 3.02103 166.983 3.12143C167.275 3.21726 167.524 3.37242 167.729 3.5869C167.939 3.80139 168.099 4.07976 168.208 4.42202C168.318 4.75972 168.372 5.17272 168.372 5.66101V10.5143H167.099V5.64732C167.099 5.25942 167.042 4.94911 166.928 4.71637C166.814 4.47907 166.647 4.30794 166.428 4.20298C166.209 4.09345 165.94 4.03869 165.621 4.03869C165.306 4.03869 165.018 4.10486 164.758 4.2372C164.502 4.36954 164.281 4.55208 164.094 4.78482C163.912 5.01756 163.768 5.28452 163.663 5.58571C163.562 5.88234 163.512 6.19722 163.512 6.53036ZM173.369 10.6512C172.854 10.6512 172.386 10.5645 171.966 10.3911C171.551 10.2131 171.193 9.96438 170.891 9.64494C170.595 9.3255 170.367 8.94673 170.207 8.50863C170.047 8.07054 169.967 7.59137 169.967 7.07113V6.78363C169.967 6.18125 170.056 5.64504 170.234 5.175C170.412 4.7004 170.654 4.29881 170.96 3.97024C171.266 3.64167 171.612 3.39296 172 3.22411C172.388 3.05526 172.79 2.97083 173.205 2.97083C173.734 2.97083 174.191 3.0621 174.574 3.24464C174.962 3.42718 175.279 3.68274 175.526 4.01131C175.772 4.33532 175.955 4.71865 176.073 5.16131C176.192 5.5994 176.251 6.07857 176.251 6.59881V7.16696H170.72V6.13333H174.985V6.0375C174.967 5.70893 174.898 5.38948 174.779 5.07917C174.665 4.76885 174.483 4.51329 174.232 4.3125C173.981 4.11171 173.639 4.01131 173.205 4.01131C172.918 4.01131 172.653 4.07292 172.411 4.19613C172.169 4.31478 171.962 4.49276 171.788 4.73006C171.615 4.96736 171.48 5.25714 171.384 5.5994C171.288 5.94167 171.24 6.33641 171.24 6.78363V7.07113C171.24 7.42252 171.288 7.75337 171.384 8.06369C171.485 8.36944 171.628 8.63869 171.815 8.87143C172.007 9.10417 172.238 9.28671 172.507 9.41905C172.781 9.55139 173.091 9.61756 173.438 9.61756C173.885 9.61756 174.264 9.52629 174.574 9.34375C174.884 9.16121 175.156 8.91706 175.389 8.61131L176.155 9.22054C175.996 9.4624 175.793 9.69286 175.546 9.9119C175.3 10.131 174.996 10.3089 174.636 10.4458C174.28 10.5827 173.858 10.6512 173.369 10.6512ZM182.042 8.5497C182.042 8.36716 182.001 8.19831 181.919 8.04315C181.841 7.88343 181.679 7.73968 181.433 7.6119C181.191 7.47956 180.826 7.36548 180.338 7.26964C179.927 7.18294 179.555 7.08026 179.222 6.96161C178.893 6.84296 178.613 6.69921 178.38 6.53036C178.152 6.36151 177.976 6.163 177.853 5.93482C177.73 5.70665 177.668 5.43968 177.668 5.13393C177.668 4.84187 177.732 4.56577 177.86 4.30565C177.992 4.04554 178.177 3.81508 178.414 3.61429C178.656 3.41349 178.946 3.25605 179.284 3.14196C179.621 3.02788 179.998 2.97083 180.413 2.97083C181.006 2.97083 181.513 3.07579 181.933 3.28571C182.353 3.49563 182.674 3.77629 182.898 4.12768C183.122 4.4745 183.233 4.86012 183.233 5.28452H181.967C181.967 5.07917 181.905 4.88065 181.782 4.68899C181.663 4.49276 181.488 4.33075 181.255 4.20298C181.027 4.0752 180.746 4.01131 180.413 4.01131C180.062 4.01131 179.776 4.06607 179.557 4.1756C179.343 4.28056 179.186 4.41518 179.085 4.57946C178.989 4.74375 178.941 4.91716 178.941 5.0997C178.941 5.23661 178.964 5.35982 179.01 5.46935C179.06 5.57431 179.147 5.67242 179.27 5.76369C179.393 5.8504 179.567 5.93254 179.79 6.01012C180.014 6.0877 180.299 6.16528 180.646 6.24286C181.253 6.37976 181.752 6.54405 182.145 6.73571C182.537 6.92738 182.829 7.1624 183.021 7.44077C183.213 7.71915 183.309 8.05685 183.309 8.45387C183.309 8.77788 183.24 9.0745 183.103 9.34375C182.971 9.613 182.777 9.84573 182.521 10.042C182.27 10.2336 181.969 10.3842 181.618 10.4938C181.271 10.5987 180.881 10.6512 180.447 10.6512C179.795 10.6512 179.243 10.5348 178.791 10.3021C178.339 10.0693 177.997 9.76815 177.764 9.39851C177.531 9.02887 177.415 8.63869 177.415 8.22798H178.688C178.706 8.5748 178.807 8.85089 178.989 9.05625C179.172 9.25704 179.395 9.40079 179.66 9.4875C179.925 9.56964 180.187 9.61071 180.447 9.61071C180.794 9.61071 181.084 9.56508 181.317 9.47381C181.554 9.38254 181.734 9.25704 181.857 9.09732C181.981 8.9376 182.042 8.75506 182.042 8.5497Z" fill="#E1B505"/>
<path d="M85.0521 11.8833H127.096V12.5679H85.0521V11.8833ZM126.822 11.8833H184V12.5679H126.822V11.8833Z" fill="#E1B505"/>
</svg>
