<svg width="19" height="19" viewBox="0 0 19 19" fill="none" xmlns="http://www.w3.org/2000/svg">
<path d="M16.8283 8.67918C17.2035 9.17002 17.2035 9.83265 16.8283 10.3227C15.6463 11.8657 12.8105 15.0426 9.49976 15.0426C6.18898 15.0426 3.35321 11.8657 2.17124 10.3227C1.98867 10.0877 1.88956 9.79854 1.88956 9.50094C1.88956 9.20333 1.98867 8.9142 2.17124 8.67918C3.35321 7.13621 6.18898 3.95923 9.49976 3.95923C12.8105 3.95923 15.6463 7.13621 16.8283 8.67918V8.67918Z" stroke="black" stroke-width="1.13325" stroke-linecap="round" stroke-linejoin="round"/>
<path d="M9.49989 11.8764C10.8116 11.8764 11.8749 10.8131 11.8749 9.50142C11.8749 8.18974 10.8116 7.12641 9.49989 7.12641C8.1882 7.12641 7.12487 8.18974 7.12487 9.50142C7.12487 10.8131 8.1882 11.8764 9.49989 11.8764Z" stroke="black" stroke-width="1.13325" stroke-linecap="round" stroke-linejoin="round"/>
</svg>
