<svg width="24" height="24" viewBox="0 0 24 24" fill="none" xmlns="http://www.w3.org/2000/svg">
<path d="M21.2569 10.9622C21.7309 11.5822 21.7309 12.4192 21.2569 13.0382C19.764 14.9872 16.182 19.0002 12 19.0002C7.81799 19.0002 4.236 14.9872 2.743 13.0382C2.51239 12.7414 2.3872 12.3761 2.3872 12.0002C2.3872 11.6243 2.51239 11.2591 2.743 10.9622C4.236 9.01324 7.81799 5.00025 12 5.00025C16.182 5.00025 19.764 9.01324 21.2569 10.9622V10.9622Z" stroke="black" stroke-width="1.48205" stroke-linecap="round" stroke-linejoin="round"/>
<path d="M12 15.0002C13.6568 15.0002 15 13.6571 15 12.0002C15 10.3434 13.6568 9.00025 12 9.00025C10.3431 9.00025 9 10.3434 9 12.0002C9 13.6571 10.3431 15.0002 12 15.0002Z" stroke="black" stroke-width="1.48205" stroke-linecap="round" stroke-linejoin="round"/>
</svg>
