<svg width="16" height="16" viewBox="0 0 16 16" fill="none" xmlns="http://www.w3.org/2000/svg">
<path d="M10.3334 8.00033C10.3334 9.28899 9.28875 10.3337 8.00008 10.3337C6.71141 10.3337 5.66675 9.28899 5.66675 8.00033C5.66675 6.71166 6.71141 5.66699 8.00008 5.66699C9.28875 5.66699 10.3334 6.71166 10.3334 8.00033Z" stroke="#0A0A0B"/>
<path d="M14.0073 9.39787C14.3552 9.30407 14.5292 9.25714 14.5979 9.16741C14.6666 9.07774 14.6666 8.93341 14.6666 8.64481V7.35567C14.6666 7.06707 14.6666 6.92274 14.5979 6.83307C14.5291 6.74334 14.3552 6.69641 14.0073 6.60259C12.707 6.25193 11.8932 4.89255 12.2288 3.60079C12.3211 3.24553 12.3672 3.06791 12.3231 2.96373C12.2791 2.85955 12.1527 2.78777 11.8997 2.64418L10.7499 1.99136C10.5018 1.85047 10.3777 1.78002 10.2664 1.79502C10.155 1.81002 10.0294 1.93536 9.77805 2.18603C8.80525 3.15653 7.19565 3.15649 6.22281 2.18597C5.97154 1.93529 5.8459 1.80996 5.73454 1.79495C5.62318 1.77995 5.4991 1.8504 5.25094 1.99129L4.10115 2.64412C3.84827 2.78769 3.72183 2.85948 3.67777 2.96364C3.63371 3.06781 3.67983 3.24545 3.77209 3.60074C4.1075 4.89254 3.29307 6.25196 1.9926 6.60261C1.64467 6.69641 1.4707 6.74334 1.40197 6.83301C1.33325 6.92274 1.33325 7.06707 1.33325 7.35567V8.64481C1.33325 8.93341 1.33325 9.07774 1.40197 9.16741C1.47069 9.25714 1.64466 9.30407 1.9926 9.39787C3.29285 9.74854 4.10664 11.1079 3.77107 12.3997C3.67878 12.7549 3.63263 12.9325 3.67669 13.0367C3.72076 13.1409 3.8472 13.2127 4.10009 13.3563L5.24989 14.0091C5.49806 14.15 5.62215 14.2205 5.73352 14.2055C5.84489 14.1905 5.97051 14.0651 6.22173 13.8144C7.19505 12.8431 8.80578 12.8431 9.77918 13.8143C10.0304 14.0651 10.156 14.1904 10.2674 14.2054C10.3787 14.2204 10.5029 14.1499 10.751 14.0091L11.9008 13.3562C12.1537 13.2127 12.2802 13.1409 12.3242 13.0367C12.3683 12.9325 12.3221 12.7549 12.2298 12.3996C11.8941 11.1079 12.7072 9.74861 14.0073 9.39787Z" stroke="#0A0A0B" stroke-linecap="round"/>
</svg>
