<svg width="137" height="13" viewBox="0 0 137 13" fill="none" xmlns="http://www.w3.org/2000/svg">
<path d="M5.92581 8.01081C5.92581 7.77762 5.88923 7.57186 5.81607 7.39354C5.74748 7.21065 5.62403 7.04604 5.44571 6.89972C5.27196 6.75341 5.02962 6.61395 4.7187 6.48135C4.41235 6.34875 4.0237 6.21387 3.55274 6.0767C3.05892 5.93038 2.61312 5.76806 2.21532 5.58974C1.81752 5.40684 1.47688 5.1988 1.19339 4.96561C0.909904 4.73242 0.692716 4.46493 0.541827 4.16315C0.390939 3.86138 0.315494 3.51616 0.315494 3.12751C0.315494 2.73886 0.395511 2.37992 0.555544 2.05071C0.715578 1.7215 0.944197 1.43573 1.2414 1.19339C1.54318 0.946483 1.90211 0.754443 2.3182 0.617272C2.73428 0.4801 3.19838 0.411514 3.71049 0.411514C4.46036 0.411514 5.09592 0.555544 5.61717 0.843605C6.143 1.12709 6.54308 1.49974 6.81742 1.96155C7.09176 2.41879 7.22894 2.90804 7.22894 3.42929H5.91209C5.91209 3.05435 5.83207 2.72285 5.67204 2.43479C5.51201 2.14216 5.26967 1.91354 4.94503 1.74894C4.62039 1.57976 4.20888 1.49517 3.71049 1.49517C3.23953 1.49517 2.85088 1.56604 2.54453 1.70778C2.23818 1.84953 2.00956 2.04157 1.85867 2.2839C1.71236 2.52624 1.6392 2.80287 1.6392 3.11379C1.6392 3.32412 1.68264 3.51616 1.76951 3.68991C1.86096 3.85909 2.00042 4.01684 2.18788 4.16315C2.37992 4.30947 2.62226 4.44436 2.91489 4.56781C3.2121 4.69126 3.56646 4.81015 3.97797 4.92446C4.54495 5.08449 5.03419 5.26281 5.44571 5.45942C5.85722 5.65604 6.19558 5.8778 6.46078 6.12471C6.73055 6.36704 6.92945 6.64367 7.05747 6.95459C7.19007 7.26094 7.25637 7.60844 7.25637 7.9971C7.25637 8.40404 7.17407 8.77212 7.00946 9.10133C6.84486 9.43054 6.60938 9.71174 6.30303 9.94493C5.99668 10.1781 5.6286 10.3587 5.1988 10.4868C4.77357 10.6102 4.29804 10.6719 3.77222 10.6719C3.3104 10.6719 2.85545 10.6079 2.40736 10.4799C1.96384 10.3519 1.55918 10.1598 1.19339 9.90378C0.832174 9.64773 0.541827 9.33223 0.322353 8.9573C0.107451 8.57779 0 8.13884 0 7.64045H1.31685C1.31685 7.98338 1.38315 8.2783 1.51574 8.52521C1.64834 8.76754 1.82895 8.96873 2.05757 9.12876C2.29076 9.28879 2.55368 9.40768 2.84631 9.48541C3.14351 9.55856 3.45215 9.59514 3.77222 9.59514C4.23403 9.59514 4.62496 9.53113 4.94503 9.4031C5.2651 9.27508 5.50743 9.09218 5.67204 8.85442C5.84122 8.61665 5.92581 8.33545 5.92581 8.01081ZM10.1301 3.11379V10.5348H8.85442V3.11379H10.1301ZM8.7584 1.14538C8.7584 0.939625 8.82013 0.765874 8.94358 0.62413C9.07161 0.482386 9.25907 0.411514 9.50598 0.411514C9.74832 0.411514 9.9335 0.482386 10.0615 0.62413C10.1941 0.765874 10.2604 0.939625 10.2604 1.14538C10.2604 1.34199 10.1941 1.51117 10.0615 1.65292C9.9335 1.79009 9.74832 1.85867 9.50598 1.85867C9.25907 1.85867 9.07161 1.79009 8.94358 1.65292C8.82013 1.51117 8.7584 1.34199 8.7584 1.14538ZM13.4359 4.69812V10.5348H12.1671V3.11379H13.3674L13.4359 4.69812ZM13.1342 6.54308L12.6061 6.5225C12.6106 6.01497 12.6861 5.5463 12.8324 5.1165C12.9787 4.68212 13.1845 4.3049 13.4497 3.98483C13.7149 3.66476 14.0304 3.41786 14.3961 3.24411C14.7665 3.06578 15.1757 2.97662 15.6238 2.97662C15.9896 2.97662 16.3188 3.02692 16.6115 3.12751C16.9041 3.22353 17.1533 3.37899 17.359 3.59389C17.5694 3.80879 17.7294 4.08771 17.8391 4.43064C17.9489 4.76899 18.0038 5.1828 18.0038 5.67204V10.5348H16.7281V5.65832C16.7281 5.26967 16.6709 4.95875 16.5566 4.72556C16.4423 4.48779 16.2754 4.31633 16.0559 4.21116C15.8364 4.10143 15.5667 4.04656 15.2466 4.04656C14.9311 4.04656 14.6431 4.11286 14.3824 4.24546C14.1264 4.37806 13.9046 4.56095 13.7171 4.79414C13.5343 5.02733 13.3902 5.29482 13.2851 5.5966C13.1845 5.8938 13.1342 6.20929 13.1342 6.54308ZM28.0927 9.09447V0H29.3684V10.5348H28.2025L28.0927 9.09447ZM23.0997 6.90658V6.76255C23.0997 6.19558 23.1683 5.68118 23.3054 5.21937C23.4472 4.75299 23.6461 4.35291 23.9021 4.01912C24.1628 3.68534 24.4714 3.42929 24.828 3.25096C25.1893 3.06807 25.5916 2.97662 26.0351 2.97662C26.5015 2.97662 26.9085 3.05892 27.256 3.22353C27.608 3.38356 27.9052 3.61904 28.1476 3.92996C28.3945 4.23631 28.5888 4.60668 28.7306 5.04105C28.8723 5.47543 28.9706 5.96696 29.0255 6.51564V7.14663C28.9752 7.69075 28.8769 8.17999 28.7306 8.61437C28.5888 9.04874 28.3945 9.41911 28.1476 9.72546C27.9052 10.0318 27.608 10.2673 27.256 10.4319C26.9039 10.5919 26.4924 10.6719 26.0214 10.6719C25.5871 10.6719 25.1893 10.5782 24.828 10.3907C24.4714 10.2033 24.1628 9.94036 23.9021 9.602C23.6461 9.26365 23.4472 8.86585 23.3054 8.40861C23.1683 7.9468 23.0997 7.44612 23.0997 6.90658ZM24.3754 6.76255V6.90658C24.3754 7.27695 24.4119 7.62445 24.4851 7.94909C24.5628 8.27373 24.6817 8.5595 24.8418 8.80641C25.0018 9.05332 25.2053 9.24764 25.4522 9.38939C25.6991 9.52656 25.994 9.59514 26.3369 9.59514C26.7576 9.59514 27.1028 9.50598 27.3726 9.32766C27.6469 9.14934 27.8664 8.91386 28.031 8.62123C28.1956 8.32859 28.3236 8.01081 28.4151 7.66788V6.01497C28.3602 5.76349 28.2802 5.52115 28.175 5.28796C28.0744 5.0502 27.9418 4.83987 27.7772 4.65697C27.6172 4.4695 27.4183 4.3209 27.1805 4.21116C26.9473 4.10143 26.6707 4.04656 26.3506 4.04656C26.0031 4.04656 25.7036 4.11972 25.4522 4.26603C25.2053 4.40778 25.0018 4.60439 24.8418 4.85587C24.6817 5.10278 24.5628 5.39084 24.4851 5.72005C24.4119 6.04469 24.3754 6.39219 24.3754 6.76255ZM31.0076 6.90658V6.74884C31.0076 6.21387 31.0853 5.71776 31.2408 5.26053C31.3963 4.79872 31.6203 4.39863 31.9129 4.06028C32.2056 3.71735 32.5599 3.45215 32.976 3.26468C33.3921 3.07264 33.8585 2.97662 34.3752 2.97662C34.8964 2.97662 35.3651 3.07264 35.7812 3.26468C36.2018 3.45215 36.5585 3.71735 36.8511 4.06028C37.1483 4.39863 37.3747 4.79872 37.5301 5.26053C37.6856 5.71776 37.7633 6.21387 37.7633 6.74884V6.90658C37.7633 7.44155 37.6856 7.93766 37.5301 8.39489C37.3747 8.85213 37.1483 9.25222 36.8511 9.59514C36.5585 9.9335 36.2041 10.1987 35.788 10.3907C35.3765 10.5782 34.9101 10.6719 34.3889 10.6719C33.8676 10.6719 33.399 10.5782 32.9829 10.3907C32.5668 10.1987 32.2101 9.9335 31.9129 9.59514C31.6203 9.25222 31.3963 8.85213 31.2408 8.39489C31.0853 7.93766 31.0076 7.44155 31.0076 6.90658ZM32.2764 6.74884V6.90658C32.2764 7.27695 32.3199 7.62673 32.4068 7.95594C32.4936 8.28058 32.6239 8.56864 32.7977 8.82013C32.976 9.07161 33.1978 9.2705 33.463 9.41682C33.7282 9.55856 34.0368 9.62944 34.3889 9.62944C34.7364 9.62944 35.0405 9.55856 35.3011 9.41682C35.5663 9.2705 35.7857 9.07161 35.9595 8.82013C36.1332 8.56864 36.2636 8.28058 36.3504 7.95594C36.4419 7.62673 36.4876 7.27695 36.4876 6.90658V6.74884C36.4876 6.38305 36.4419 6.03783 36.3504 5.71319C36.2636 5.38398 36.131 5.09363 35.9526 4.84215C35.7789 4.5861 35.5594 4.38491 35.2942 4.2386C35.0336 4.09228 34.7272 4.01912 34.3752 4.01912C34.0277 4.01912 33.7213 4.09228 33.4561 4.2386C33.1955 4.38491 32.976 4.5861 32.7977 4.84215C32.6239 5.09363 32.4936 5.38398 32.4068 5.71319C32.3199 6.03783 32.2764 6.38305 32.2764 6.74884ZM40.6165 4.58839V10.5348H39.3408V3.11379H40.5479L40.6165 4.58839ZM40.3558 6.54308L39.766 6.5225C39.7706 6.01497 39.8369 5.5463 39.9649 5.1165C40.0929 4.68212 40.2827 4.3049 40.5342 3.98483C40.7856 3.66476 41.0989 3.41786 41.4738 3.24411C41.8487 3.06578 42.2831 2.97662 42.7769 2.97662C43.1244 2.97662 43.4445 3.02692 43.7371 3.12751C44.0298 3.22353 44.2835 3.3767 44.4984 3.58703C44.7133 3.79736 44.8802 4.06713 44.9991 4.39635C45.118 4.72556 45.1774 5.12335 45.1774 5.58974V10.5348H43.9086V5.65146C43.9086 5.26281 43.8423 4.95189 43.7097 4.7187C43.5817 4.48551 43.3988 4.31633 43.161 4.21116C42.9232 4.10143 42.6443 4.04656 42.3243 4.04656C41.9493 4.04656 41.6361 4.11286 41.3846 4.24546C41.1331 4.37806 40.932 4.56095 40.7811 4.79414C40.6302 5.02733 40.5205 5.29482 40.4519 5.5966C40.3879 5.8938 40.3558 6.20929 40.3558 6.54308ZM45.1637 5.8435L44.3132 6.10413C44.3178 5.69719 44.3841 5.30625 44.5121 4.93131C44.6447 4.55638 44.8345 4.22259 45.0814 3.92996C45.3329 3.63733 45.6415 3.40642 46.0073 3.23725C46.3731 3.0635 46.7915 2.97662 47.2624 2.97662C47.6602 2.97662 48.0123 3.0292 48.3186 3.13437C48.6296 3.23953 48.8902 3.40185 49.1005 3.62133C49.3154 3.83623 49.4777 4.11286 49.5875 4.45121C49.6972 4.78957 49.7521 5.19194 49.7521 5.65832V10.5348H48.4764V5.64461C48.4764 5.22852 48.4101 4.90617 48.2775 4.67755C48.1495 4.44436 47.9666 4.28204 47.7288 4.19059C47.4956 4.09457 47.2167 4.04656 46.8921 4.04656C46.6131 4.04656 46.3662 4.09457 46.1513 4.19059C45.9364 4.28661 45.7558 4.41921 45.6095 4.58839C45.4632 4.75299 45.3512 4.94275 45.2734 5.15765C45.2003 5.37255 45.1637 5.60117 45.1637 5.8435ZM53.0511 3.11379V10.5348H51.7754V3.11379H53.0511ZM51.6793 1.14538C51.6793 0.939625 51.7411 0.765874 51.8645 0.62413C51.9926 0.482386 52.18 0.411514 52.4269 0.411514C52.6693 0.411514 52.8545 0.482386 52.9825 0.62413C53.1151 0.765874 53.1814 0.939625 53.1814 1.14538C53.1814 1.34199 53.1151 1.51117 52.9825 1.65292C52.8545 1.79009 52.6693 1.85867 52.4269 1.85867C52.18 1.85867 51.9926 1.79009 51.8645 1.65292C51.7411 1.51117 51.6793 1.34199 51.6793 1.14538ZM56.3569 4.69812V10.5348H55.0881V3.11379H56.2883L56.3569 4.69812ZM56.0551 6.54308L55.527 6.5225C55.5316 6.01497 55.607 5.5463 55.7533 5.1165C55.8997 4.68212 56.1054 4.3049 56.3706 3.98483C56.6358 3.66476 56.9513 3.41786 57.3171 3.24411C57.6875 3.06578 58.0967 2.97662 58.5448 2.97662C58.9106 2.97662 59.2398 3.02692 59.5324 3.12751C59.825 3.22353 60.0742 3.37899 60.28 3.59389C60.4903 3.80879 60.6504 4.08771 60.7601 4.43064C60.8698 4.76899 60.9247 5.1828 60.9247 5.67204V10.5348H59.649V5.65832C59.649 5.26967 59.5919 4.95875 59.4775 4.72556C59.3632 4.48779 59.1963 4.31633 58.9769 4.21116C58.7574 4.10143 58.4876 4.04656 58.1676 4.04656C57.8521 4.04656 57.564 4.11286 57.3034 4.24546C57.0473 4.37806 56.8256 4.56095 56.6381 4.79414C56.4552 5.02733 56.3112 5.29482 56.206 5.5966C56.1054 5.8938 56.0551 6.20929 56.0551 6.54308ZM64.2305 3.11379V10.5348H62.9548V3.11379H64.2305ZM62.8588 1.14538C62.8588 0.939625 62.9206 0.765874 63.044 0.62413C63.172 0.482386 63.3595 0.411514 63.6064 0.411514C63.8487 0.411514 64.0339 0.482386 64.162 0.62413C64.2946 0.765874 64.3609 0.939625 64.3609 1.14538C64.3609 1.34199 64.2946 1.51117 64.162 1.65292C64.0339 1.79009 63.8487 1.85867 63.6064 1.85867C63.3595 1.85867 63.172 1.79009 63.044 1.65292C62.9206 1.51117 62.8588 1.34199 62.8588 1.14538ZM65.9315 6.90658V6.74884C65.9315 6.21387 66.0092 5.71776 66.1647 5.26053C66.3201 4.79872 66.5442 4.39863 66.8368 4.06028C67.1294 3.71735 67.4838 3.45215 67.8999 3.26468C68.316 3.07264 68.7823 2.97662 69.299 2.97662C69.8203 2.97662 70.2889 3.07264 70.705 3.26468C71.1257 3.45215 71.4823 3.71735 71.775 4.06028C72.0722 4.39863 72.2985 4.79872 72.454 5.26053C72.6094 5.71776 72.6872 6.21387 72.6872 6.74884V6.90658C72.6872 7.44155 72.6094 7.93766 72.454 8.39489C72.2985 8.85213 72.0722 9.25222 71.775 9.59514C71.4823 9.9335 71.128 10.1987 70.7119 10.3907C70.3004 10.5782 69.834 10.6719 69.3127 10.6719C68.7915 10.6719 68.3228 10.5782 67.9067 10.3907C67.4906 10.1987 67.134 9.9335 66.8368 9.59514C66.5442 9.25222 66.3201 8.85213 66.1647 8.39489C66.0092 7.93766 65.9315 7.44155 65.9315 6.90658ZM67.2003 6.74884V6.90658C67.2003 7.27695 67.2437 7.62673 67.3306 7.95594C67.4175 8.28058 67.5478 8.56864 67.7216 8.82013C67.8999 9.07161 68.1216 9.2705 68.3868 9.41682C68.652 9.55856 68.9607 9.62944 69.3127 9.62944C69.6602 9.62944 69.9643 9.55856 70.2249 9.41682C70.4901 9.2705 70.7096 9.07161 70.8834 8.82013C71.0571 8.56864 71.1874 8.28058 71.2743 7.95594C71.3657 7.62673 71.4115 7.27695 71.4115 6.90658V6.74884C71.4115 6.38305 71.3657 6.03783 71.2743 5.71319C71.1874 5.38398 71.0548 5.09363 70.8765 4.84215C70.7027 4.5861 70.4833 4.38491 70.2181 4.2386C69.9574 4.09228 69.6511 4.01912 69.299 4.01912C68.9515 4.01912 68.6452 4.09228 68.38 4.2386C68.1193 4.38491 67.8999 4.5861 67.7216 4.84215C67.5478 5.09363 67.4175 5.38398 67.3306 5.71319C67.2437 6.03783 67.2003 6.38305 67.2003 6.74884Z" fill="black" fill-opacity="0.85"/>
<path d="M87.4674 7.35925H88.7842C88.7156 7.99024 88.535 8.55493 88.2424 9.05332C87.9498 9.55171 87.536 9.94722 87.001 10.2398C86.466 10.5279 85.7985 10.6719 84.9983 10.6719C84.413 10.6719 83.8804 10.5622 83.4003 10.3427C82.9247 10.1233 82.5155 9.81233 82.1726 9.40996C81.8296 9.00302 81.5644 8.51606 81.377 7.94909C81.1941 7.37754 81.1026 6.74198 81.1026 6.0424V5.04791C81.1026 4.34834 81.1941 3.71506 81.377 3.14809C81.5644 2.57654 81.8319 2.08729 82.1794 1.68035C82.5315 1.27341 82.9544 0.9602 83.4483 0.740726C83.9421 0.521252 84.4976 0.411514 85.1149 0.411514C85.8693 0.411514 86.5072 0.553258 87.0284 0.836746C87.5497 1.12023 87.9543 1.51346 88.2424 2.01642C88.535 2.51481 88.7156 3.09322 88.7842 3.75164H87.4674C87.4034 3.28526 87.2845 2.88517 87.1107 2.55139C86.937 2.21303 86.6901 1.95241 86.37 1.76951C86.0499 1.58662 85.6316 1.49517 85.1149 1.49517C84.6714 1.49517 84.2804 1.57976 83.9421 1.74894C83.6083 1.91811 83.3271 2.15816 83.0985 2.46909C82.8744 2.78001 82.7052 3.15266 82.5909 3.58703C82.4766 4.02141 82.4195 4.5038 82.4195 5.03419V6.0424C82.4195 6.53165 82.4698 6.99117 82.5704 7.42098C82.6755 7.85078 82.8333 8.228 83.0436 8.55264C83.2539 8.87728 83.5214 9.13333 83.8461 9.3208C84.1707 9.5037 84.5548 9.59514 84.9983 9.59514C85.5607 9.59514 86.0088 9.50598 86.3426 9.32766C86.6764 9.14934 86.9278 8.89328 87.097 8.5595C87.2708 8.22572 87.3942 7.82563 87.4674 7.35925ZM90.0599 6.90658V6.74884C90.0599 6.21387 90.1377 5.71776 90.2931 5.26053C90.4486 4.79872 90.6726 4.39863 90.9653 4.06028C91.2579 3.71735 91.6122 3.45215 92.0283 3.26468C92.4444 3.07264 92.9108 2.97662 93.4275 2.97662C93.9487 2.97662 94.4174 3.07264 94.8335 3.26468C95.2542 3.45215 95.6108 3.71735 95.9034 4.06028C96.2006 4.39863 96.427 4.79872 96.5824 5.26053C96.7379 5.71776 96.8156 6.21387 96.8156 6.74884V6.90658C96.8156 7.44155 96.7379 7.93766 96.5824 8.39489C96.427 8.85213 96.2006 9.25222 95.9034 9.59514C95.6108 9.9335 95.2564 10.1987 94.8404 10.3907C94.4288 10.5782 93.9625 10.6719 93.4412 10.6719C92.9199 10.6719 92.4513 10.5782 92.0352 10.3907C91.6191 10.1987 91.2625 9.9335 90.9653 9.59514C90.6726 9.25222 90.4486 8.85213 90.2931 8.39489C90.1377 7.93766 90.0599 7.44155 90.0599 6.90658ZM91.3288 6.74884V6.90658C91.3288 7.27695 91.3722 7.62673 91.4591 7.95594C91.5459 8.28058 91.6763 8.56864 91.85 8.82013C92.0283 9.07161 92.2501 9.2705 92.5153 9.41682C92.7805 9.55856 93.0891 9.62944 93.4412 9.62944C93.7887 9.62944 94.0928 9.55856 94.3534 9.41682C94.6186 9.2705 94.8381 9.07161 95.0118 8.82013C95.1856 8.56864 95.3159 8.28058 95.4028 7.95594C95.4942 7.62673 95.5399 7.27695 95.5399 6.90658V6.74884C95.5399 6.38305 95.4942 6.03783 95.4028 5.71319C95.3159 5.38398 95.1833 5.09363 95.005 4.84215C94.8312 4.5861 94.6117 4.38491 94.3465 4.2386C94.0859 4.09228 93.7796 4.01912 93.4275 4.01912C93.08 4.01912 92.7736 4.09228 92.5084 4.2386C92.2478 4.38491 92.0283 4.5861 91.85 4.84215C91.6763 5.09363 91.5459 5.38398 91.4591 5.71319C91.3722 6.03783 91.3288 6.38305 91.3288 6.74884ZM99.6756 4.69812V10.5348H98.4068V3.11379H99.6071L99.6756 4.69812ZM99.3739 6.54308L98.8458 6.5225C98.8503 6.01497 98.9258 5.5463 99.0721 5.1165C99.2184 4.68212 99.4242 4.3049 99.6894 3.98483C99.9546 3.66476 100.27 3.41786 100.636 3.24411C101.006 3.06578 101.415 2.97662 101.864 2.97662C102.229 2.97662 102.559 3.02692 102.851 3.12751C103.144 3.22353 103.393 3.37899 103.599 3.59389C103.809 3.80879 103.969 4.08771 104.079 4.43064C104.189 4.76899 104.243 5.1828 104.243 5.67204V10.5348H102.968V5.65832C102.968 5.26967 102.911 4.95875 102.796 4.72556C102.682 4.48779 102.515 4.31633 102.296 4.21116C102.076 4.10143 101.806 4.04656 101.486 4.04656C101.171 4.04656 100.883 4.11286 100.622 4.24546C100.366 4.37806 100.144 4.56095 99.9568 4.79414C99.774 5.02733 99.6299 5.29482 99.5248 5.5966C99.4242 5.8938 99.3739 6.20929 99.3739 6.54308ZM109.25 10.6719C108.734 10.6719 108.265 10.5851 107.844 10.4113C107.428 10.233 107.069 9.9838 106.767 9.66373C106.47 9.34366 106.242 8.96416 106.082 8.52521C105.922 8.08626 105.842 7.60616 105.842 7.08491V6.79685C105.842 6.19329 105.931 5.65604 106.109 5.18508C106.287 4.70955 106.53 4.30718 106.836 3.97797C107.142 3.64876 107.49 3.39957 107.878 3.23039C108.267 3.06121 108.67 2.97662 109.086 2.97662C109.616 2.97662 110.073 3.06807 110.457 3.25096C110.846 3.43386 111.164 3.68991 111.411 4.01912C111.658 4.34376 111.84 4.72784 111.959 5.17136C112.078 5.61031 112.138 6.09041 112.138 6.61166V7.18093H106.596V6.14528H110.869V6.04926C110.851 5.72005 110.782 5.39998 110.663 5.08906C110.549 4.77814 110.366 4.52209 110.114 4.3209C109.863 4.11972 109.52 4.01912 109.086 4.01912C108.798 4.01912 108.532 4.08085 108.29 4.20431C108.048 4.32319 107.84 4.50151 107.666 4.73927C107.492 4.97704 107.357 5.26738 107.261 5.61031C107.165 5.95324 107.117 6.34875 107.117 6.79685V7.08491C107.117 7.43698 107.165 7.76848 107.261 8.0794C107.362 8.38575 107.506 8.65552 107.693 8.88871C107.885 9.1219 108.116 9.3048 108.386 9.4374C108.66 9.57 108.971 9.6363 109.319 9.6363C109.767 9.6363 110.146 9.54485 110.457 9.36195C110.768 9.17906 111.04 8.93443 111.273 8.62809L112.042 9.2385C111.882 9.48083 111.678 9.71174 111.431 9.93121C111.184 10.1507 110.88 10.329 110.519 10.4662C110.162 10.6034 109.739 10.6719 109.25 10.6719ZM116.589 9.62944C116.891 9.62944 117.17 9.56771 117.426 9.44426C117.682 9.3208 117.892 9.15162 118.057 8.93672C118.221 8.71725 118.315 8.46805 118.338 8.18914H119.545C119.522 8.62809 119.373 9.03731 119.099 9.41682C118.829 9.79176 118.475 10.0958 118.036 10.329C117.597 10.5576 117.115 10.6719 116.589 10.6719C116.031 10.6719 115.544 10.5736 115.128 10.377C114.716 10.1804 114.374 9.91064 114.099 9.56771C113.829 9.22478 113.626 8.83156 113.489 8.38804C113.356 7.93994 113.29 7.4667 113.29 6.96831V6.68025C113.29 6.18186 113.356 5.71091 113.489 5.26738C113.626 4.81929 113.829 4.42378 114.099 4.08085C114.374 3.73792 114.716 3.46815 115.128 3.27154C115.544 3.07493 116.031 2.97662 116.589 2.97662C117.17 2.97662 117.677 3.0955 118.111 3.33327C118.546 3.56646 118.887 3.88652 119.133 4.29347C119.385 4.69584 119.522 5.15307 119.545 5.66518H118.338C118.315 5.35883 118.228 5.0822 118.077 4.83529C117.931 4.58839 117.73 4.39177 117.474 4.24546C117.222 4.09457 116.927 4.01912 116.589 4.01912C116.2 4.01912 115.873 4.09685 115.608 4.25232C115.347 4.4032 115.139 4.60896 114.984 4.86959C114.833 5.12564 114.723 5.41141 114.655 5.72691C114.591 6.03783 114.559 6.35561 114.559 6.68025V6.96831C114.559 7.29295 114.591 7.61302 114.655 7.92851C114.719 8.24401 114.826 8.52978 114.977 8.78583C115.133 9.04189 115.341 9.24764 115.601 9.4031C115.866 9.55399 116.196 9.62944 116.589 9.62944ZM124.078 3.11379V4.08771H120.066V3.11379H124.078ZM121.424 1.30999H122.693V8.69667C122.693 8.94815 122.732 9.13791 122.81 9.26593C122.887 9.39396 122.988 9.47855 123.111 9.5197C123.235 9.56085 123.367 9.58143 123.509 9.58143C123.614 9.58143 123.724 9.57228 123.838 9.55399C123.957 9.53113 124.046 9.51284 124.106 9.49912L124.113 10.5348C124.012 10.5668 123.88 10.5965 123.715 10.6239C123.555 10.6559 123.361 10.6719 123.132 10.6719C122.821 10.6719 122.535 10.6102 122.275 10.4868C122.014 10.3633 121.806 10.1575 121.651 9.86949C121.5 9.57685 121.424 9.18363 121.424 8.68981V1.30999ZM129.943 9.26593V5.44571C129.943 5.15307 129.883 4.89931 129.764 4.68441C129.65 4.46493 129.476 4.29575 129.243 4.17687C129.01 4.05799 128.722 3.99855 128.379 3.99855C128.059 3.99855 127.778 4.05342 127.535 4.16315C127.297 4.27289 127.11 4.41692 126.973 4.59524C126.84 4.77357 126.774 4.96561 126.774 5.17136H125.505C125.505 4.90617 125.574 4.64325 125.711 4.38263C125.848 4.122 126.045 3.88652 126.301 3.6762C126.561 3.46129 126.872 3.29212 127.233 3.16866C127.599 3.04063 128.006 2.97662 128.454 2.97662C128.994 2.97662 129.469 3.06807 129.881 3.25096C130.297 3.43386 130.622 3.71049 130.855 4.08085C131.092 4.44664 131.211 4.90617 131.211 5.45942V8.91615C131.211 9.16305 131.232 9.42597 131.273 9.70488C131.319 9.9838 131.385 10.2238 131.472 10.425V10.5348H130.148C130.084 10.3885 130.034 10.1941 129.997 9.95179C129.961 9.70488 129.943 9.47626 129.943 9.26593ZM130.162 6.03554L130.176 6.92716H128.893C128.532 6.92716 128.21 6.95688 127.926 7.01632C127.643 7.07119 127.405 7.15578 127.213 7.27009C127.021 7.3844 126.874 7.52843 126.774 7.70218C126.673 7.87136 126.623 8.07025 126.623 8.29887C126.623 8.53207 126.676 8.74468 126.781 8.93672C126.886 9.12876 127.044 9.28194 127.254 9.39625C127.469 9.50598 127.732 9.56085 128.043 9.56085C128.431 9.56085 128.774 9.47855 129.071 9.31394C129.369 9.14934 129.604 8.94815 129.778 8.71039C129.956 8.47262 130.052 8.24172 130.066 8.01767L130.608 8.62809C130.576 8.82013 130.489 9.03274 130.347 9.26593C130.205 9.49912 130.016 9.72317 129.778 9.93807C129.545 10.1484 129.266 10.3244 128.941 10.4662C128.621 10.6034 128.26 10.6719 127.858 10.6719C127.355 10.6719 126.913 10.5736 126.534 10.377C126.159 10.1804 125.866 9.9175 125.656 9.58829C125.45 9.2545 125.347 8.88185 125.347 8.47034C125.347 8.07254 125.425 7.72275 125.58 7.42098C125.736 7.11463 125.96 6.86086 126.253 6.65967C126.545 6.45392 126.897 6.29846 127.309 6.19329C127.72 6.08813 128.18 6.03554 128.687 6.03554H130.162ZM134.476 4.27975V10.5348H133.207V3.11379H134.442L134.476 4.27975ZM136.794 3.07264L136.787 4.25232C136.682 4.22945 136.582 4.21574 136.486 4.21116C136.394 4.20202 136.289 4.19745 136.17 4.19745C135.877 4.19745 135.619 4.24317 135.395 4.33462C135.171 4.42607 134.981 4.55409 134.826 4.7187C134.67 4.8833 134.547 5.07992 134.455 5.30854C134.369 5.53258 134.311 5.77949 134.284 6.04926L133.927 6.25502C133.927 5.80693 133.971 5.38627 134.058 4.99304C134.149 4.59982 134.289 4.25232 134.476 3.95054C134.664 3.64419 134.901 3.40642 135.189 3.23725C135.482 3.0635 135.829 2.97662 136.232 2.97662C136.323 2.97662 136.428 2.98805 136.547 3.01091C136.666 3.0292 136.749 3.04978 136.794 3.07264Z" fill="#E1B505"/>
<path d="M80.2796 11.9065H137V12.5923H80.2796V11.9065Z" fill="#E1B505"/>
</svg>
