<svg width="198" height="14" viewBox="0 0 198 14" fill="none" xmlns="http://www.w3.org/2000/svg">
<path d="M5.93444 8.02248C5.93444 7.78895 5.8978 7.58289 5.82454 7.40431C5.75585 7.22115 5.63222 7.0563 5.45364 6.90977C5.27963 6.76324 5.03694 6.62358 4.72557 6.49079C4.41877 6.358 4.02956 6.22292 3.55791 6.08554C3.06338 5.93902 2.61692 5.77646 2.21855 5.59788C1.82017 5.41472 1.47903 5.20637 1.19513 4.97284C0.911229 4.73931 0.693725 4.47143 0.542616 4.16922C0.391508 3.867 0.315954 3.52128 0.315954 3.13206C0.315954 2.74285 0.396087 2.38339 0.556353 2.0537C0.71662 1.72401 0.945572 1.43782 1.24321 1.19513C1.54543 0.947861 1.90488 0.755542 2.32157 0.61817C2.73827 0.480799 3.20304 0.412114 3.71589 0.412114C4.46685 0.412114 5.10334 0.556353 5.62535 0.844833C6.15194 1.12873 6.55261 1.50193 6.82735 1.96441C7.10209 2.42231 7.23946 2.91227 7.23946 3.43428H5.9207C5.9207 3.0588 5.84057 2.72682 5.6803 2.43834C5.52003 2.14528 5.27734 1.91633 4.95223 1.75148C4.62712 1.58206 4.21501 1.49735 3.71589 1.49735C3.24425 1.49735 2.85503 1.56832 2.54824 1.71027C2.24144 1.85222 2.01249 2.04454 1.86138 2.28723C1.71485 2.52992 1.64159 2.80695 1.64159 3.11833C1.64159 3.32896 1.68509 3.52128 1.77209 3.69529C1.86367 3.86471 2.00333 4.02269 2.19107 4.16922C2.38339 4.31575 2.62608 4.45083 2.91914 4.57446C3.21678 4.6981 3.57165 4.81715 3.98377 4.93163C4.55157 5.09189 5.04152 5.27048 5.45364 5.46737C5.86575 5.66427 6.2046 5.88636 6.47018 6.13362C6.74035 6.37631 6.93954 6.65335 7.06775 6.96472C7.20054 7.27152 7.26694 7.61952 7.26694 8.00874C7.26694 8.41628 7.18451 8.78489 7.01967 9.11458C6.85482 9.44427 6.619 9.72588 6.31221 9.95941C6.00541 10.1929 5.6368 10.3738 5.20637 10.502C4.78052 10.6257 4.3043 10.6875 3.77771 10.6875C3.31523 10.6875 2.85961 10.6234 2.41086 10.4952C1.9667 10.3669 1.56145 10.1746 1.19513 9.9182C0.833385 9.66178 0.542616 9.34582 0.322822 8.97034C0.107607 8.59028 0 8.15069 0 7.65158H1.31876C1.31876 7.995 1.38516 8.29035 1.51795 8.53762C1.65074 8.78031 1.83162 8.98179 2.06057 9.14205C2.2941 9.30232 2.55739 9.42138 2.85045 9.49922C3.14809 9.57248 3.45718 9.60912 3.77771 9.60912C4.24019 9.60912 4.6317 9.54501 4.95223 9.4168C5.27277 9.28858 5.51545 9.10542 5.6803 8.86731C5.84972 8.6292 5.93444 8.34759 5.93444 8.02248ZM10.1449 3.11833V10.5501H8.86731V3.11833H10.1449ZM8.77115 1.14705C8.77115 0.940993 8.83297 0.766989 8.9566 0.625039C9.08482 0.483089 9.27256 0.412114 9.51983 0.412114C9.76251 0.412114 9.94797 0.483089 10.0762 0.625039C10.209 0.766989 10.2754 0.940993 10.2754 1.14705C10.2754 1.34395 10.209 1.51337 10.0762 1.65532C9.94797 1.79269 9.76251 1.86138 9.51983 1.86138C9.27256 1.86138 9.08482 1.79269 8.9566 1.65532C8.83297 1.51337 8.77115 1.34395 8.77115 1.14705ZM13.4555 4.70496V10.5501H12.1848V3.11833H13.3868L13.4555 4.70496ZM13.1533 6.55261L12.6244 6.532C12.629 6.02373 12.7045 5.55438 12.8511 5.12395C12.9976 4.68894 13.2037 4.31117 13.4692 3.99063C13.7348 3.6701 14.0508 3.42283 14.4171 3.24883C14.788 3.07025 15.1978 2.98096 15.6466 2.98096C16.0129 2.98096 16.3426 3.03132 16.6357 3.13206C16.9287 3.22822 17.1783 3.38391 17.3843 3.59913C17.595 3.81434 17.7552 4.09366 17.8651 4.43709C17.975 4.77594 18.03 5.19034 18.03 5.6803V10.5501H16.7524V5.66656C16.7524 5.27734 16.6952 4.96597 16.5807 4.73244C16.4662 4.49433 16.2991 4.32261 16.0793 4.2173C15.8595 4.1074 15.5893 4.05245 15.2688 4.05245C14.9529 4.05245 14.6644 4.11885 14.4034 4.25164C14.1469 4.38443 13.9249 4.56759 13.7371 4.80112C13.554 5.03466 13.4097 5.30253 13.3044 5.60475C13.2037 5.90238 13.1533 6.21834 13.1533 6.55261ZM26.5333 10.6875C26.0158 10.6875 25.5465 10.6005 25.1252 10.4265C24.7085 10.2479 24.349 9.99833 24.0468 9.6778C23.7492 9.35727 23.5202 8.97721 23.36 8.53762C23.1997 8.09803 23.1196 7.61723 23.1196 7.09522V6.80674C23.1196 6.20231 23.2089 5.66427 23.3874 5.19263C23.566 4.71641 23.8087 4.31346 24.1155 3.98377C24.4223 3.65407 24.7703 3.40452 25.1595 3.23509C25.5488 3.06567 25.9517 2.98096 26.3684 2.98096C26.8996 2.98096 27.3575 3.07254 27.7421 3.2557C28.1313 3.43886 28.4496 3.69529 28.6968 4.02498C28.9441 4.35009 29.1273 4.73473 29.2463 5.17889C29.3654 5.61848 29.4249 6.09928 29.4249 6.62129V7.19138H23.8751V6.15423H28.1542V6.05807C28.1359 5.72838 28.0672 5.40785 27.9482 5.09647C27.8337 4.7851 27.6505 4.52867 27.3987 4.32719C27.1468 4.12572 26.8034 4.02498 26.3684 4.02498C26.0799 4.02498 25.8143 4.08679 25.5717 4.21043C25.329 4.32948 25.1206 4.50807 24.9466 4.74618C24.7726 4.98429 24.6375 5.27505 24.5414 5.61848C24.4452 5.96191 24.3971 6.358 24.3971 6.80674V7.09522C24.3971 7.44781 24.4452 7.77979 24.5414 8.09116C24.6421 8.39796 24.7863 8.66812 24.9741 8.90165C25.1664 9.13519 25.3976 9.31835 25.6678 9.45114C25.9426 9.58393 26.2539 9.65033 26.6019 9.65033C27.0507 9.65033 27.4307 9.55875 27.7421 9.37559C28.0535 9.19242 28.3259 8.94745 28.5595 8.64065L29.3288 9.25195C29.1685 9.49464 28.9647 9.72588 28.7175 9.94568C28.4702 10.1655 28.1657 10.3441 27.8039 10.4814C27.4468 10.6188 27.0232 10.6875 26.5333 10.6875ZM32.1723 4.59507V10.5501H30.8948V3.11833H32.1037L32.1723 4.59507ZM31.9113 6.55261L31.3206 6.532C31.3252 6.02373 31.3916 5.55438 31.5198 5.12395C31.648 4.68894 31.8381 4.31117 32.0899 3.99063C32.3418 3.6701 32.6554 3.42283 33.0309 3.24883C33.4064 3.07025 33.8414 2.98096 34.3359 2.98096C34.6839 2.98096 35.0045 3.03132 35.2975 3.13206C35.5906 3.22822 35.8447 3.38162 36.0599 3.59226C36.2752 3.80289 36.4423 4.07306 36.5613 4.40275C36.6804 4.73244 36.7399 5.13081 36.7399 5.59788V10.5501H35.4692V5.65969C35.4692 5.27048 35.4029 4.9591 35.2701 4.72557C35.1418 4.49204 34.9587 4.32261 34.7206 4.2173C34.4825 4.1074 34.2031 4.05245 33.8826 4.05245C33.5071 4.05245 33.1935 4.11885 32.9416 4.25164C32.6898 4.38443 32.4883 4.56759 32.3372 4.80112C32.1861 5.03466 32.0762 5.30253 32.0075 5.60475C31.9434 5.90238 31.9113 6.21834 31.9113 6.55261ZM36.7262 5.85201L35.8745 6.11302C35.8791 5.70548 35.9455 5.31398 36.0737 4.9385C36.2065 4.56301 36.3965 4.22874 36.6438 3.93569C36.8956 3.64263 37.2047 3.41139 37.571 3.24196C37.9374 3.06796 38.3563 2.98096 38.828 2.98096C39.2264 2.98096 39.5789 3.03361 39.8857 3.13893C40.1971 3.24425 40.4581 3.40681 40.6687 3.6266C40.884 3.84181 41.0465 4.11885 41.1564 4.4577C41.2663 4.79654 41.3213 5.1995 41.3213 5.66656V10.5501H40.0437V5.65283C40.0437 5.23613 39.9773 4.91331 39.8445 4.68436C39.7163 4.45083 39.5331 4.28827 39.295 4.19669C39.0615 4.10053 38.7822 4.05245 38.4571 4.05245C38.1778 4.05245 37.9305 4.10053 37.7153 4.19669C37.5001 4.29285 37.3192 4.42564 37.1727 4.59507C37.0261 4.75991 36.9139 4.94994 36.8361 5.16516C36.7628 5.38037 36.7262 5.60932 36.7262 5.85201ZM47.6266 9.27943V5.45364C47.6266 5.16058 47.5671 4.90644 47.448 4.69123C47.3335 4.47143 47.1595 4.30201 46.926 4.18295C46.6925 4.0639 46.404 4.00437 46.0606 4.00437C45.74 4.00437 45.4584 4.05932 45.2157 4.16922C44.9776 4.27911 44.7899 4.42335 44.6525 4.60194C44.5197 4.78052 44.4533 4.97284 44.4533 5.17889H43.1826C43.1826 4.91331 43.2513 4.65002 43.3887 4.38901C43.5261 4.128 43.723 3.89218 43.9794 3.68155C44.2404 3.46633 44.5518 3.29691 44.9135 3.17328C45.2798 3.04506 45.6874 2.98096 46.1361 2.98096C46.6764 2.98096 47.1527 3.07254 47.5648 3.2557C47.9815 3.43886 48.3066 3.71589 48.5401 4.08679C48.7782 4.45312 48.8973 4.91331 48.8973 5.46737V8.92913C48.8973 9.1764 48.9179 9.43969 48.9591 9.71901C49.0049 9.99833 49.0713 10.2387 49.1583 10.4402V10.5501H47.8327C47.7686 10.4036 47.7182 10.209 47.6815 9.96628C47.6449 9.71901 47.6266 9.49006 47.6266 9.27943ZM47.8464 6.04433L47.8601 6.93725H46.5757C46.214 6.93725 45.8911 6.96701 45.6072 7.02654C45.3233 7.08149 45.0852 7.1662 44.8929 7.28067C44.7006 7.39515 44.5541 7.53939 44.4533 7.71339C44.3526 7.88282 44.3022 8.08201 44.3022 8.31096C44.3022 8.54449 44.3549 8.75741 44.4602 8.94973C44.5655 9.14205 44.7235 9.29545 44.9341 9.40993C45.1493 9.51983 45.4126 9.57477 45.724 9.57477C46.1132 9.57477 46.4567 9.49235 46.7543 9.32751C47.0519 9.16266 47.2878 8.96118 47.4618 8.72307C47.6403 8.48496 47.7365 8.25372 47.7502 8.02935L48.2929 8.64065C48.2608 8.83297 48.1738 9.04589 48.0318 9.27943C47.8899 9.51296 47.6999 9.73733 47.4618 9.95254C47.2282 10.1632 46.9489 10.3395 46.6238 10.4814C46.3033 10.6188 45.9415 10.6875 45.5386 10.6875C45.0349 10.6875 44.593 10.589 44.2129 10.3921C43.8374 10.1952 43.5444 9.93194 43.3337 9.60225C43.1277 9.26798 43.0247 8.89479 43.0247 8.48267C43.0247 8.0843 43.1025 7.734 43.2582 7.43178C43.4139 7.12499 43.6383 6.87085 43.9313 6.66937C44.2244 6.46332 44.577 6.30763 44.9891 6.20231C45.4012 6.09699 45.8614 6.04433 46.3697 6.04433H47.8464ZM52.2766 3.11833V10.5501H50.9991V3.11833H52.2766ZM50.9029 1.14705C50.9029 0.940993 50.9647 0.766989 51.0884 0.625039C51.2166 0.483089 51.4043 0.412114 51.6516 0.412114C51.8943 0.412114 52.0797 0.483089 52.2079 0.625039C52.3407 0.766989 52.4071 0.940993 52.4071 1.14705C52.4071 1.34395 52.3407 1.51337 52.2079 1.65532C52.0797 1.79269 51.8943 1.86138 51.6516 1.86138C51.4043 1.86138 51.2166 1.79269 51.0884 1.65532C50.9647 1.51337 50.9029 1.34395 50.9029 1.14705ZM55.6972 0V10.5501H54.4196V0H55.6972ZM64.3103 10.6875C63.7929 10.6875 63.3236 10.6005 62.9023 10.4265C62.4856 10.2479 62.1261 9.99833 61.8239 9.6778C61.5263 9.35727 61.2973 8.97721 61.1371 8.53762C60.9768 8.09803 60.8967 7.61723 60.8967 7.09522V6.80674C60.8967 6.20231 60.986 5.66427 61.1645 5.19263C61.3431 4.71641 61.5858 4.31346 61.8926 3.98377C62.1994 3.65407 62.5474 3.40452 62.9366 3.23509C63.3258 3.06567 63.7288 2.98096 64.1455 2.98096C64.6767 2.98096 65.1346 3.07254 65.5192 3.2557C65.9084 3.43886 66.2267 3.69529 66.4739 4.02498C66.7212 4.35009 66.9044 4.73473 67.0234 5.17889C67.1425 5.61848 67.202 6.09928 67.202 6.62129V7.19138H61.6522V6.15423H65.9313V6.05807C65.913 5.72838 65.8443 5.40785 65.7253 5.09647C65.6108 4.7851 65.4276 4.52867 65.1758 4.32719C64.9239 4.12572 64.5805 4.02498 64.1455 4.02498C63.857 4.02498 63.5914 4.08679 63.3487 4.21043C63.106 4.32948 62.8977 4.50807 62.7237 4.74618C62.5497 4.98429 62.4146 5.27505 62.3185 5.61848C62.2223 5.96191 62.1742 6.358 62.1742 6.80674V7.09522C62.1742 7.44781 62.2223 7.77979 62.3185 8.09116C62.4192 8.39796 62.5634 8.66812 62.7512 8.90165C62.9435 9.13519 63.1747 9.31835 63.4449 9.45114C63.7196 9.58393 64.031 9.65033 64.379 9.65033C64.8278 9.65033 65.2078 9.55875 65.5192 9.37559C65.8306 9.19242 66.103 8.94745 66.3366 8.64065L67.1058 9.25195C66.9456 9.49464 66.7418 9.72588 66.4945 9.94568C66.2473 10.1655 65.9428 10.3441 65.581 10.4814C65.2239 10.6188 64.8003 10.6875 64.3103 10.6875ZM69.9494 4.59507V10.5501H68.6719V3.11833H69.8807L69.9494 4.59507ZM69.6884 6.55261L69.0977 6.532C69.1023 6.02373 69.1687 5.55438 69.2969 5.12395C69.4251 4.68894 69.6152 4.31117 69.867 3.99063C70.1188 3.6701 70.4325 3.42283 70.808 3.24883C71.1835 3.07025 71.6185 2.98096 72.113 2.98096C72.461 2.98096 72.7816 3.03132 73.0746 3.13206C73.3677 3.22822 73.6218 3.38162 73.837 3.59226C74.0522 3.80289 74.2194 4.07306 74.3384 4.40275C74.4575 4.73244 74.517 5.13081 74.517 5.59788V10.5501H73.2463V5.65969C73.2463 5.27048 73.1799 4.9591 73.0471 4.72557C72.9189 4.49204 72.7358 4.32261 72.4977 4.2173C72.2595 4.1074 71.9802 4.05245 71.6597 4.05245C71.2842 4.05245 70.9705 4.11885 70.7187 4.25164C70.4669 4.38443 70.2654 4.56759 70.1143 4.80112C69.9632 5.03466 69.8533 5.30253 69.7846 5.60475C69.7205 5.90238 69.6884 6.21834 69.6884 6.55261ZM74.5033 5.85201L73.6516 6.11302C73.6562 5.70548 73.7226 5.31398 73.8508 4.9385C73.9836 4.56301 74.1736 4.22874 74.4209 3.93569C74.6727 3.64263 74.9818 3.41139 75.3481 3.24196C75.7144 3.06796 76.1334 2.98096 76.6051 2.98096C77.0034 2.98096 77.356 3.03361 77.6628 3.13893C77.9742 3.24425 78.2352 3.40681 78.4458 3.6266C78.661 3.84181 78.8236 4.11885 78.9335 4.4577C79.0434 4.79654 79.0983 5.1995 79.0983 5.66656V10.5501H77.8208V5.65283C77.8208 5.23613 77.7544 4.91331 77.6216 4.68436C77.4934 4.45083 77.3102 4.28827 77.0721 4.19669C76.8386 4.10053 76.5593 4.05245 76.2342 4.05245C75.9548 4.05245 75.7076 4.10053 75.4924 4.19669C75.2771 4.29285 75.0963 4.42564 74.9497 4.59507C74.8032 4.75991 74.691 4.94994 74.6132 5.16516C74.5399 5.38037 74.5033 5.60932 74.5033 5.85201ZM82.2922 4.54699V13.4074H81.0147V3.11833H82.1823L82.2922 4.54699ZM87.2994 6.7724V6.91664C87.2994 7.45697 87.2353 7.95837 87.1071 8.42086C86.9789 8.87876 86.7911 9.27714 86.5439 9.61599C86.3012 9.95483 86.0012 10.2181 85.6441 10.4059C85.2869 10.5936 84.8771 10.6875 84.4146 10.6875C83.943 10.6875 83.5263 10.6096 83.1645 10.4539C82.8028 10.2983 82.496 10.0716 82.2441 9.77396C81.9923 9.47632 81.7908 9.11916 81.6397 8.70247C81.4932 8.28577 81.3924 7.81642 81.3375 7.29441V6.52513C81.3924 5.97565 81.4955 5.4834 81.6466 5.04839C81.7977 4.61338 81.9969 4.24248 82.2441 3.93569C82.496 3.62431 82.8005 3.38849 83.1577 3.22822C83.5148 3.06338 83.9269 2.98096 84.394 2.98096C84.8611 2.98096 85.2755 3.07254 85.6372 3.2557C85.999 3.43428 86.3035 3.69071 86.5507 4.02498C86.798 4.35925 86.9835 4.75991 87.1071 5.22697C87.2353 5.68946 87.2994 6.2046 87.2994 6.7724ZM86.0219 6.91664V6.7724C86.0219 6.4015 85.9829 6.05349 85.9051 5.72838C85.8272 5.39869 85.7059 5.11021 85.5411 4.86294C85.3808 4.61109 85.1747 4.4142 84.9229 4.27224C84.671 4.12572 84.3711 4.05245 84.0231 4.05245C83.7026 4.05245 83.4232 4.1074 83.1851 4.2173C82.9516 4.32719 82.7524 4.47601 82.5876 4.66375C82.4227 4.84691 82.2876 5.05755 82.1823 5.29566C82.0816 5.52919 82.006 5.77188 81.9557 6.02373V7.80268C82.0472 8.12322 82.1755 8.42543 82.3403 8.70933C82.5052 8.98866 82.7249 9.21532 82.9997 9.38932C83.2744 9.55875 83.6201 9.64346 84.0368 9.64346C84.3803 9.64346 84.6756 9.57248 84.9229 9.43053C85.1747 9.284 85.3808 9.08482 85.5411 8.83297C85.7059 8.58112 85.8272 8.29264 85.9051 7.96753C85.9829 7.63784 86.0219 7.28754 86.0219 6.91664ZM90.1911 4.28598V10.5501H88.9204V3.11833H90.1567L90.1911 4.28598ZM92.5126 3.07712L92.5058 4.25851C92.4005 4.23561 92.2997 4.22188 92.2036 4.2173C92.112 4.20814 92.0067 4.20356 91.8876 4.20356C91.5945 4.20356 91.3358 4.24935 91.1115 4.34093C90.8871 4.43251 90.6971 4.56072 90.5414 4.72557C90.3857 4.89042 90.262 5.08731 90.1705 5.31627C90.0835 5.54064 90.0262 5.78791 89.9988 6.05807L89.6416 6.26413C89.6416 5.81538 89.6851 5.39411 89.7721 5.00031C89.8637 4.60651 90.0033 4.25851 90.1911 3.95629C90.3788 3.6495 90.6169 3.41139 90.9054 3.24196C91.1985 3.06796 91.5465 2.98096 91.9494 2.98096C92.041 2.98096 92.1463 2.9924 92.2654 3.0153C92.3844 3.03361 92.4669 3.05422 92.5126 3.07712ZM96.6338 10.6875C96.1163 10.6875 95.647 10.6005 95.2257 10.4265C94.809 10.2479 94.4496 9.99833 94.1474 9.6778C93.8497 9.35727 93.6208 8.97721 93.4605 8.53762C93.3002 8.09803 93.2201 7.61723 93.2201 7.09522V6.80674C93.2201 6.20231 93.3094 5.66427 93.488 5.19263C93.6666 4.71641 93.9093 4.31346 94.216 3.98377C94.5228 3.65407 94.8709 3.40452 95.2601 3.23509C95.6493 3.06567 96.0522 2.98096 96.4689 2.98096C97.0001 2.98096 97.458 3.07254 97.8426 3.2557C98.2319 3.43886 98.5501 3.69529 98.7974 4.02498C99.0446 4.35009 99.2278 4.73473 99.3469 5.17889C99.4659 5.61848 99.5254 6.09928 99.5254 6.62129V7.19138H93.9756V6.15423H98.2548V6.05807C98.2364 5.72838 98.1678 5.40785 98.0487 5.09647C97.9342 4.7851 97.7511 4.52867 97.4992 4.32719C97.2474 4.12572 96.9039 4.02498 96.4689 4.02498C96.1805 4.02498 95.9149 4.08679 95.6722 4.21043C95.4295 4.32948 95.2211 4.50807 95.0471 4.74618C94.8731 4.98429 94.7381 5.27505 94.6419 5.61848C94.5457 5.96191 94.4977 6.358 94.4977 6.80674V7.09522C94.4977 7.44781 94.5457 7.77979 94.6419 8.09116C94.7426 8.39796 94.8869 8.66812 95.0746 8.90165C95.2669 9.13519 95.4982 9.31835 95.7683 9.45114C96.0431 9.58393 96.3545 9.65033 96.7025 9.65033C97.1512 9.65033 97.5313 9.55875 97.8426 9.37559C98.154 9.19242 98.4265 8.94745 98.66 8.64065L99.4293 9.25195C99.269 9.49464 99.0653 9.72588 98.818 9.94568C98.5707 10.1655 98.2662 10.3441 97.9045 10.4814C97.5473 10.6188 97.1237 10.6875 96.6338 10.6875ZM105.336 8.57883C105.336 8.39567 105.295 8.22625 105.213 8.07056C105.135 7.91029 104.972 7.76605 104.725 7.63784C104.482 7.50505 104.116 7.39057 103.626 7.29441C103.214 7.20741 102.841 7.10438 102.506 6.98533C102.177 6.86627 101.895 6.72203 101.662 6.55261C101.433 6.38318 101.256 6.18399 101.133 5.95504C101.009 5.72609 100.947 5.45822 100.947 5.15142C100.947 4.85836 101.011 4.58133 101.14 4.32032C101.272 4.05932 101.458 3.82808 101.696 3.6266C101.939 3.42512 102.229 3.26715 102.568 3.15267C102.907 3.03819 103.285 2.98096 103.702 2.98096C104.297 2.98096 104.805 3.08627 105.226 3.29691C105.648 3.50755 105.97 3.78916 106.195 4.14174C106.419 4.48975 106.531 4.87668 106.531 5.30253H105.261C105.261 5.09647 105.199 4.89728 105.075 4.70496C104.956 4.50807 104.78 4.34551 104.546 4.2173C104.317 4.08908 104.036 4.02498 103.702 4.02498C103.349 4.02498 103.063 4.07993 102.843 4.18982C102.628 4.29514 102.47 4.43022 102.369 4.59507C102.273 4.75991 102.225 4.93392 102.225 5.11708C102.225 5.25445 102.248 5.37808 102.293 5.48798C102.344 5.5933 102.431 5.69175 102.554 5.78333C102.678 5.87033 102.852 5.95275 103.076 6.0306C103.301 6.10844 103.587 6.18628 103.935 6.26413C104.544 6.4015 105.045 6.56634 105.439 6.75866C105.833 6.95098 106.126 7.1868 106.318 7.46613C106.511 7.74545 106.607 8.0843 106.607 8.48267C106.607 8.80778 106.538 9.10542 106.401 9.37559C106.268 9.64575 106.073 9.87928 105.817 10.0762C105.565 10.2685 105.263 10.4196 104.91 10.5295C104.562 10.6348 104.171 10.6875 103.736 10.6875C103.081 10.6875 102.527 10.5707 102.074 10.3372C101.62 10.1037 101.277 9.80144 101.043 9.43053C100.81 9.05963 100.693 8.66812 100.693 8.25601H101.971C101.989 8.60402 102.09 8.88105 102.273 9.08711C102.456 9.28858 102.68 9.43282 102.946 9.51983C103.212 9.60225 103.475 9.64346 103.736 9.64346C104.084 9.64346 104.375 9.59767 104.608 9.50609C104.846 9.41451 105.027 9.28858 105.151 9.12832C105.274 8.96805 105.336 8.78489 105.336 8.57883ZM112.658 9.27943V5.45364C112.658 5.16058 112.599 4.90644 112.48 4.69123C112.365 4.47143 112.191 4.30201 111.958 4.18295C111.724 4.0639 111.436 4.00437 111.092 4.00437C110.772 4.00437 110.49 4.05932 110.247 4.16922C110.009 4.27911 109.821 4.42335 109.684 4.60194C109.551 4.78052 109.485 4.97284 109.485 5.17889H108.214C108.214 4.91331 108.283 4.65002 108.42 4.38901C108.558 4.128 108.755 3.89218 109.011 3.68155C109.272 3.46633 109.583 3.29691 109.945 3.17328C110.311 3.04506 110.719 2.98096 111.168 2.98096C111.708 2.98096 112.184 3.07254 112.596 3.2557C113.013 3.43886 113.338 3.71589 113.572 4.08679C113.81 4.45312 113.929 4.91331 113.929 5.46737V8.92913C113.929 9.1764 113.949 9.43969 113.991 9.71901C114.036 9.99833 114.103 10.2387 114.19 10.4402V10.5501H112.864C112.8 10.4036 112.75 10.209 112.713 9.96628C112.676 9.71901 112.658 9.49006 112.658 9.27943ZM112.878 6.04433L112.892 6.93725H111.607C111.245 6.93725 110.923 6.96701 110.639 7.02654C110.355 7.08149 110.117 7.1662 109.924 7.28067C109.732 7.39515 109.586 7.53939 109.485 7.71339C109.384 7.88282 109.334 8.08201 109.334 8.31096C109.334 8.54449 109.386 8.75741 109.492 8.94973C109.597 9.14205 109.755 9.29545 109.966 9.40993C110.181 9.51983 110.444 9.57477 110.756 9.57477C111.145 9.57477 111.488 9.49235 111.786 9.32751C112.083 9.16266 112.319 8.96118 112.493 8.72307C112.672 8.48496 112.768 8.25372 112.782 8.02935L113.324 8.64065C113.292 8.83297 113.205 9.04589 113.063 9.27943C112.921 9.51296 112.731 9.73733 112.493 9.95254C112.26 10.1632 111.98 10.3395 111.655 10.4814C111.335 10.6188 110.973 10.6875 110.57 10.6875C110.066 10.6875 109.625 10.589 109.244 10.3921C108.869 10.1952 108.576 9.93194 108.365 9.60225C108.159 9.26798 108.056 8.89479 108.056 8.48267C108.056 8.0843 108.134 7.734 108.29 7.43178C108.445 7.12499 108.67 6.87085 108.963 6.66937C109.256 6.46332 109.608 6.30763 110.021 6.20231C110.433 6.09699 110.893 6.04433 111.401 6.04433H112.878ZM117.198 4.28598V10.5501H115.928V3.11833H117.164L117.198 4.28598ZM119.52 3.07712L119.513 4.25851C119.408 4.23561 119.307 4.22188 119.211 4.2173C119.119 4.20814 119.014 4.20356 118.895 4.20356C118.602 4.20356 118.343 4.24935 118.119 4.34093C117.894 4.43251 117.704 4.56072 117.549 4.72557C117.393 4.89042 117.269 5.08731 117.178 5.31627C117.091 5.54064 117.033 5.78791 117.006 6.05807L116.649 6.26413C116.649 5.81538 116.692 5.39411 116.779 5.00031C116.871 4.60651 117.011 4.25851 117.198 3.95629C117.386 3.6495 117.624 3.41139 117.913 3.24196C118.206 3.06796 118.554 2.98096 118.957 2.98096C119.048 2.98096 119.154 2.9924 119.273 3.0153C119.392 3.03361 119.474 3.05422 119.52 3.07712ZM122.075 3.11833V10.5501H120.797V3.11833H122.075ZM120.701 1.14705C120.701 0.940993 120.763 0.766989 120.887 0.625039C121.015 0.483089 121.203 0.412114 121.45 0.412114C121.693 0.412114 121.878 0.483089 122.006 0.625039C122.139 0.766989 122.205 0.940993 122.205 1.14705C122.205 1.34395 122.139 1.51337 122.006 1.65532C121.878 1.79269 121.693 1.86138 121.45 1.86138C121.203 1.86138 121.015 1.79269 120.887 1.65532C120.763 1.51337 120.701 1.34395 120.701 1.14705ZM128.497 9.27943V5.45364C128.497 5.16058 128.438 4.90644 128.318 4.69123C128.204 4.47143 128.03 4.30201 127.796 4.18295C127.563 4.0639 127.274 4.00437 126.931 4.00437C126.61 4.00437 126.329 4.05932 126.086 4.16922C125.848 4.27911 125.66 4.42335 125.523 4.60194C125.39 4.78052 125.324 4.97284 125.324 5.17889H124.053C124.053 4.91331 124.122 4.65002 124.259 4.38901C124.397 4.128 124.593 3.89218 124.85 3.68155C125.111 3.46633 125.422 3.29691 125.784 3.17328C126.15 3.04506 126.558 2.98096 127.007 2.98096C127.547 2.98096 128.023 3.07254 128.435 3.2557C128.852 3.43886 129.177 3.71589 129.411 4.08679C129.649 4.45312 129.768 4.91331 129.768 5.46737V8.92913C129.768 9.1764 129.788 9.43969 129.83 9.71901C129.875 9.99833 129.942 10.2387 130.029 10.4402V10.5501H128.703C128.639 10.4036 128.589 10.209 128.552 9.96628C128.515 9.71901 128.497 9.49006 128.497 9.27943ZM128.717 6.04433L128.731 6.93725H127.446C127.084 6.93725 126.762 6.96701 126.478 7.02654C126.194 7.08149 125.956 7.1662 125.763 7.28067C125.571 7.39515 125.424 7.53939 125.324 7.71339C125.223 7.88282 125.173 8.08201 125.173 8.31096C125.173 8.54449 125.225 8.75741 125.331 8.94973C125.436 9.14205 125.594 9.29545 125.805 9.40993C126.02 9.51983 126.283 9.57477 126.594 9.57477C126.984 9.57477 127.327 9.49235 127.625 9.32751C127.922 9.16266 128.158 8.96118 128.332 8.72307C128.511 8.48496 128.607 8.25372 128.621 8.02935L129.163 8.64065C129.131 8.83297 129.044 9.04589 128.902 9.27943C128.76 9.51296 128.57 9.73733 128.332 9.95254C128.099 10.1632 127.819 10.3395 127.494 10.4814C127.174 10.6188 126.812 10.6875 126.409 10.6875C125.905 10.6875 125.463 10.589 125.083 10.3921C124.708 10.1952 124.415 9.93194 124.204 9.60225C123.998 9.26798 123.895 8.89479 123.895 8.48267C123.895 8.0843 123.973 7.734 124.129 7.43178C124.284 7.12499 124.509 6.87085 124.802 6.66937C125.095 6.46332 125.447 6.30763 125.86 6.20231C126.272 6.09699 126.732 6.04433 127.24 6.04433H128.717ZM133.147 0V10.5501H131.869V0H133.147Z" fill="black" fill-opacity="0.85"/>
<path d="M148.395 7.36997H149.714C149.645 8.00187 149.464 8.56738 149.171 9.0665C148.878 9.56562 148.464 9.9617 147.928 10.2548C147.392 10.5432 146.724 10.6875 145.923 10.6875C145.336 10.6875 144.803 10.5776 144.322 10.3578C143.846 10.138 143.436 9.82662 143.093 9.42367C142.749 9.01613 142.484 8.52846 142.296 7.96066C142.113 7.38828 142.021 6.7518 142.021 6.0512V5.05526C142.021 4.35467 142.113 3.72047 142.296 3.15267C142.484 2.58029 142.752 2.09033 143.1 1.6828C143.452 1.27526 143.876 0.961599 144.37 0.741805C144.865 0.522011 145.421 0.412114 146.039 0.412114C146.795 0.412114 147.434 0.554064 147.956 0.837964C148.478 1.12186 148.883 1.51566 149.171 2.01936C149.464 2.51847 149.645 3.09772 149.714 3.7571H148.395C148.331 3.29004 148.212 2.88937 148.038 2.5551C147.864 2.21626 147.617 1.95525 147.296 1.77209C146.976 1.58893 146.557 1.49735 146.039 1.49735C145.595 1.49735 145.204 1.58206 144.865 1.75148C144.531 1.92091 144.249 2.16131 144.02 2.47268C143.796 2.78406 143.626 3.15725 143.512 3.59226C143.397 4.02727 143.34 4.51035 143.34 5.04152V6.0512C143.34 6.54116 143.39 7.00135 143.491 7.43178C143.596 7.86221 143.754 8.23998 143.965 8.5651C144.176 8.89021 144.444 9.14663 144.769 9.33437C145.094 9.51754 145.478 9.60912 145.923 9.60912C146.486 9.60912 146.935 9.51983 147.269 9.34124C147.603 9.16266 147.855 8.90623 148.024 8.57196C148.198 8.23769 148.322 7.83703 148.395 7.36997ZM150.992 6.91664V6.75866C150.992 6.22292 151.069 5.72609 151.225 5.26819C151.381 4.8057 151.605 4.40504 151.898 4.06619C152.191 3.72276 152.546 3.45718 152.963 3.26943C153.38 3.07712 153.847 2.98096 154.364 2.98096C154.886 2.98096 155.355 3.07712 155.772 3.26943C156.193 3.45718 156.551 3.72276 156.844 4.06619C157.141 4.40504 157.368 4.8057 157.524 5.26819C157.679 5.72609 157.757 6.22292 157.757 6.75866V6.91664C157.757 7.45239 157.679 7.94921 157.524 8.40712C157.368 8.86502 157.141 9.26569 156.844 9.60912C156.551 9.94797 156.196 10.2135 155.779 10.4059C155.367 10.5936 154.9 10.6875 154.378 10.6875C153.856 10.6875 153.386 10.5936 152.97 10.4059C152.553 10.2135 152.196 9.94797 151.898 9.60912C151.605 9.26569 151.381 8.86502 151.225 8.40712C151.069 7.94921 150.992 7.45239 150.992 6.91664ZM152.262 6.75866V6.91664C152.262 7.28754 152.306 7.63784 152.393 7.96753C152.48 8.29264 152.61 8.58112 152.784 8.83297C152.963 9.08482 153.185 9.284 153.451 9.43053C153.716 9.57248 154.025 9.64346 154.378 9.64346C154.726 9.64346 155.03 9.57248 155.291 9.43053C155.557 9.284 155.777 9.08482 155.951 8.83297C156.125 8.58112 156.255 8.29264 156.342 7.96753C156.434 7.63784 156.48 7.28754 156.48 6.91664V6.75866C156.48 6.39234 156.434 6.04662 156.342 5.72151C156.255 5.39182 156.122 5.10105 155.944 4.8492C155.77 4.59278 155.55 4.3913 155.284 4.24477C155.023 4.09824 154.717 4.02498 154.364 4.02498C154.016 4.02498 153.709 4.09824 153.444 4.24477C153.183 4.3913 152.963 4.59278 152.784 4.8492C152.61 5.10105 152.48 5.39182 152.393 5.72151C152.306 6.04662 152.262 6.39234 152.262 6.75866ZM160.621 4.70496V10.5501H159.351V3.11833H160.553L160.621 4.70496ZM160.319 6.55261L159.79 6.532C159.795 6.02373 159.87 5.55438 160.017 5.12395C160.163 4.68894 160.369 4.31117 160.635 3.99063C160.901 3.6701 161.217 3.42283 161.583 3.24883C161.954 3.07025 162.364 2.98096 162.812 2.98096C163.179 2.98096 163.508 3.03132 163.801 3.13206C164.094 3.22822 164.344 3.38391 164.55 3.59913C164.761 3.81434 164.921 4.09366 165.031 4.43709C165.141 4.77594 165.196 5.19034 165.196 5.6803V10.5501H163.918V5.66656C163.918 5.27734 163.861 4.96597 163.746 4.73244C163.632 4.49433 163.465 4.32261 163.245 4.2173C163.025 4.1074 162.755 4.05245 162.435 4.05245C162.119 4.05245 161.83 4.11885 161.569 4.25164C161.313 4.38443 161.091 4.56759 160.903 4.80112C160.72 5.03466 160.576 5.30253 160.47 5.60475C160.369 5.90238 160.319 6.21834 160.319 6.55261ZM170.21 10.6875C169.692 10.6875 169.223 10.6005 168.802 10.4265C168.385 10.2479 168.026 9.99833 167.723 9.6778C167.426 9.35727 167.197 8.97721 167.037 8.53762C166.876 8.09803 166.796 7.61723 166.796 7.09522V6.80674C166.796 6.20231 166.885 5.66427 167.064 5.19263C167.243 4.71641 167.485 4.31346 167.792 3.98377C168.099 3.65407 168.447 3.40452 168.836 3.23509C169.225 3.06567 169.628 2.98096 170.045 2.98096C170.576 2.98096 171.034 3.07254 171.419 3.2557C171.808 3.43886 172.126 3.69529 172.373 4.02498C172.621 4.35009 172.804 4.73473 172.923 5.17889C173.042 5.61848 173.101 6.09928 173.101 6.62129V7.19138H167.552V6.15423H171.831V6.05807C171.812 5.72838 171.744 5.40785 171.625 5.09647C171.51 4.7851 171.327 4.52867 171.075 4.32719C170.823 4.12572 170.48 4.02498 170.045 4.02498C169.756 4.02498 169.491 4.08679 169.248 4.21043C169.006 4.32948 168.797 4.50807 168.623 4.74618C168.449 4.98429 168.314 5.27505 168.218 5.61848C168.122 5.96191 168.074 6.358 168.074 6.80674V7.09522C168.074 7.44781 168.122 7.77979 168.218 8.09116C168.319 8.39796 168.463 8.66812 168.651 8.90165C168.843 9.13519 169.074 9.31835 169.344 9.45114C169.619 9.58393 169.93 9.65033 170.278 9.65033C170.727 9.65033 171.107 9.55875 171.419 9.37559C171.73 9.19242 172.002 8.94745 172.236 8.64065L173.005 9.25195C172.845 9.49464 172.641 9.72588 172.394 9.94568C172.147 10.1655 171.842 10.3441 171.48 10.4814C171.123 10.6188 170.7 10.6875 170.21 10.6875ZM177.559 9.64346C177.861 9.64346 178.141 9.58164 178.397 9.45801C178.654 9.33437 178.864 9.16495 179.029 8.94973C179.194 8.72994 179.288 8.48038 179.311 8.20106H180.52C180.497 8.64065 180.348 9.05047 180.073 9.43053C179.803 9.80602 179.448 10.1105 179.008 10.3441C178.569 10.573 178.086 10.6875 177.559 10.6875C177.001 10.6875 176.513 10.589 176.096 10.3921C175.684 10.1952 175.341 9.92507 175.066 9.58164C174.796 9.23821 174.592 8.84442 174.455 8.40025C174.322 7.9515 174.255 7.47757 174.255 6.97846V6.68998C174.255 6.19086 174.322 5.71922 174.455 5.27505C174.592 4.82631 174.796 4.43022 175.066 4.08679C175.341 3.74337 175.684 3.4732 176.096 3.2763C176.513 3.0794 177.001 2.98096 177.559 2.98096C178.141 2.98096 178.649 3.10001 179.084 3.33812C179.519 3.57165 179.86 3.89218 180.107 4.29972C180.359 4.70267 180.497 5.16058 180.52 5.67343H179.311C179.288 5.36664 179.201 5.0896 179.05 4.84234C178.903 4.59507 178.702 4.39817 178.445 4.25164C178.193 4.10053 177.898 4.02498 177.559 4.02498C177.17 4.02498 176.843 4.10282 176.577 4.25851C176.316 4.40962 176.108 4.61567 175.952 4.87668C175.801 5.1331 175.691 5.41929 175.622 5.73525C175.558 6.04662 175.526 6.36487 175.526 6.68998V6.97846C175.526 7.30357 175.558 7.6241 175.622 7.94006C175.686 8.25601 175.794 8.5422 175.945 8.79863C176.101 9.05505 176.309 9.26111 176.57 9.4168C176.836 9.56791 177.165 9.64346 177.559 9.64346ZM185.06 3.11833V4.09366H181.042V3.11833H185.06ZM182.401 1.3119H183.672V8.70933C183.672 8.96118 183.711 9.15121 183.789 9.27943C183.867 9.40764 183.968 9.49235 184.091 9.53356C184.215 9.57477 184.348 9.59538 184.49 9.59538C184.595 9.59538 184.705 9.58622 184.819 9.56791C184.938 9.54501 185.028 9.52669 185.087 9.51296L185.094 10.5501C184.993 10.5822 184.86 10.6119 184.696 10.6394C184.535 10.6715 184.341 10.6875 184.112 10.6875C183.8 10.6875 183.514 10.6257 183.253 10.502C182.992 10.3784 182.784 10.1723 182.628 9.88386C182.477 9.5908 182.401 9.197 182.401 8.70247V1.3119ZM190.932 9.27943V5.45364C190.932 5.16058 190.873 4.90644 190.754 4.69123C190.639 4.47143 190.465 4.30201 190.232 4.18295C189.998 4.0639 189.71 4.00437 189.366 4.00437C189.046 4.00437 188.764 4.05932 188.521 4.16922C188.283 4.27911 188.096 4.42335 187.958 4.60194C187.825 4.78052 187.759 4.97284 187.759 5.17889H186.488C186.488 4.91331 186.557 4.65002 186.694 4.38901C186.832 4.128 187.029 3.89218 187.285 3.68155C187.546 3.46633 187.857 3.29691 188.219 3.17328C188.585 3.04506 188.993 2.98096 189.442 2.98096C189.982 2.98096 190.458 3.07254 190.87 3.2557C191.287 3.43886 191.612 3.71589 191.846 4.08679C192.084 4.45312 192.203 4.91331 192.203 5.46737V8.92913C192.203 9.1764 192.224 9.43969 192.265 9.71901C192.311 9.99833 192.377 10.2387 192.464 10.4402V10.5501H191.138C191.074 10.4036 191.024 10.209 190.987 9.96628C190.951 9.71901 190.932 9.49006 190.932 9.27943ZM191.152 6.04433L191.166 6.93725H189.881C189.52 6.93725 189.197 6.96701 188.913 7.02654C188.629 7.08149 188.391 7.1662 188.199 7.28067C188.006 7.39515 187.86 7.53939 187.759 7.71339C187.658 7.88282 187.608 8.08201 187.608 8.31096C187.608 8.54449 187.661 8.75741 187.766 8.94973C187.871 9.14205 188.029 9.29545 188.24 9.40993C188.455 9.51983 188.718 9.57477 189.03 9.57477C189.419 9.57477 189.762 9.49235 190.06 9.32751C190.358 9.16266 190.593 8.96118 190.767 8.72307C190.946 8.48496 191.042 8.25372 191.056 8.02935L191.599 8.64065C191.566 8.83297 191.479 9.04589 191.337 9.27943C191.196 9.51296 191.006 9.73733 190.767 9.95254C190.534 10.1632 190.255 10.3395 189.929 10.4814C189.609 10.6188 189.247 10.6875 188.844 10.6875C188.341 10.6875 187.899 10.589 187.519 10.3921C187.143 10.1952 186.85 9.93194 186.639 9.60225C186.433 9.26798 186.33 8.89479 186.33 8.48267C186.33 8.0843 186.408 7.734 186.564 7.43178C186.72 7.12499 186.944 6.87085 187.237 6.66937C187.53 6.46332 187.883 6.30763 188.295 6.20231C188.707 6.09699 189.167 6.04433 189.675 6.04433H191.152ZM195.472 4.28598V10.5501H194.202V3.11833H195.438L195.472 4.28598ZM197.794 3.07712L197.787 4.25851C197.682 4.23561 197.581 4.22188 197.485 4.2173C197.393 4.20814 197.288 4.20356 197.169 4.20356C196.876 4.20356 196.617 4.24935 196.393 4.34093C196.168 4.43251 195.978 4.56072 195.823 4.72557C195.667 4.89042 195.543 5.08731 195.452 5.31627C195.365 5.54064 195.308 5.78791 195.28 6.05807L194.923 6.26413C194.923 5.81538 194.966 5.39411 195.053 5.00031C195.145 4.60651 195.285 4.25851 195.472 3.95629C195.66 3.6495 195.898 3.41139 196.187 3.24196C196.48 3.06796 196.828 2.98096 197.231 2.98096C197.322 2.98096 197.428 2.9924 197.547 3.0153C197.666 3.03361 197.748 3.05422 197.794 3.07712Z" fill="#E1B505"/>
<path d="M141.197 11.9238H198V12.6107H141.197V11.9238Z" fill="#E1B505"/>
</svg>
